Alfphabet-III.ufo
<glyph name="exclam" format="1">
  <advance width="491"/>
  <unicode hex="0021"/>
  <outline>
    <contour>
      <point x="141" y="1458" type="line"/>
      <point x="350" y="1458" type="line"/>
      <point x="272" y="373" type="line"/>
      <point x="219" y="373" type="line"/>
    </contour>
    <contour>
      <point x="166" y="0" type="line"/>
      <point x="166" y="164" type="line"/>
      <point x="326" y="164" type="line"/>
      <point x="326" y="0" type="line"/>
    </contour>
  </outline>
</glyph>
<glyph name="quotedbl" format="1">
  <advance width="569"/>
  <unicode hex="0022"/>
  <outline>
    <contour>
      <point x="92" y="1098" type="line"/>
      <point x="92" y="1458" type="line"/>
      <point x="205" y="1458" type="line"/>
      <point x="205" y="1098" type="line"/>
    </contour>
    <contour>
      <point x="362" y="1098" type="line"/>
      <point x="362" y="1458" type="line"/>
      <point x="477" y="1458" type="line"/>
      <point x="477" y="1098" type="line"/>
    </contour>
  </outline>
</glyph>
<glyph name="numbersign" format="1">
  <advance width="761"/>
  <unicode hex="0023"/>
  <outline>
    <contour>
      <point x="37" y="457" type="line"/>
      <point x="37" y="530" type="line"/>
      <point x="156" y="530" type="line"/>
      <point x="207" y="928" type="line"/>
      <point x="100" y="928" type="line"/>
      <point x="100" y="1001" type="line"/>
      <point x="217" y="1001" type="line"/>
      <point x="276" y="1458" type="line"/>
      <point x="365" y="1458" type="line"/>
      <point x="305" y="1001" type="line"/>
      <point x="528" y="1001" type="line"/>
      <point x="588" y="1458" type="line"/>
      <point x="676" y="1458" type="line"/>
      <point x="616" y="1001" type="line"/>
      <point x="725" y="1001" type="line"/>
      <point x="725" y="928" type="line"/>
      <point x="606" y="928" type="line"/>
      <point x="555" y="530" type="line"/>
      <point x="662" y="530" type="line"/>
      <point x="662" y="457" type="line"/>
      <point x="545" y="457" type="line"/>
      <point x="485" y="0" type="line"/>
      <point x="397" y="0" type="line"/>
      <point x="457" y="457" type="line"/>
      <point x="233" y="457" type="line"/>
      <point x="174" y="0" type="line"/>
      <point x="86" y="0" type="line"/>
      <point x="145" y="457" type="line"/>
    </contour>
    <contour>
      <point x="244" y="530" type="line"/>
      <point x="467" y="530" type="line"/>
      <point x="518" y="928" type="line"/>
      <point x="295" y="928" type="line"/>
    </contour>
  </outline>
</glyph>
<glyph name="dollar" format="1">
  <advance width="761"/>
  <unicode hex="0024"/>
  <outline>
    <contour>
      <point x="47" y="317" type="qcurve" smooth="yes"/>
      <point x="47" y="377" type="line"/>
      <point x="205" y="377" type="line"/>
      <point x="205" y="328" type="line" smooth="yes"/>
      <point x="205" y="273"/>
      <point x="269" y="169"/>
      <point x="356" y="147" type="qcurve"/>
      <point x="356" y="684" type="line"/>
      <point x="270" y="719" type="line" smooth="yes"/>
      <point x="144" y="769"/>
      <point x="100" y="859" type="qcurve" smooth="yes"/>
      <point x="57" y="946"/>
      <point x="57" y="1081" type="qcurve" smooth="yes"/>
      <point x="57" y="1234"/>
      <point x="129" y="1341" type="qcurve" smooth="yes"/>
      <point x="201" y="1447"/>
      <point x="354" y="1468" type="qcurve"/>
      <point x="354" y="1624" type="line"/>
      <point x="408" y="1624" type="line"/>
      <point x="408" y="1468" type="line"/>
      <point x="483" y="1457"/>
      <point x="539" y="1428" type="qcurve" smooth="yes"/>
      <point x="599" y="1397"/>
      <point x="635" y="1356" type="qcurve" smooth="yes"/>
      <point x="673" y="1314"/>
      <point x="694" y="1261" type="qcurve" smooth="yes"/>
      <point x="715" y="1208"/>
      <point x="715" y="1153" type="qcurve" smooth="yes"/>
      <point x="715" y="1073" type="line"/>
      <point x="557" y="1073" type="line"/>
      <point x="557" y="1096" type="line" smooth="yes"/>
      <point x="557" y="1165"/>
      <point x="497" y="1285"/>
      <point x="408" y="1313" type="qcurve"/>
      <point x="408" y="836" type="line"/>
      <point x="510" y="795" type="line" smooth="yes"/>
      <point x="573" y="768"/>
      <point x="613" y="734" type="qcurve" smooth="yes"/>
      <point x="654" y="699"/>
      <point x="676" y="654" type="qcurve" smooth="yes"/>
      <point x="700" y="605"/>
      <point x="707" y="548" type="qcurve" smooth="yes"/>
      <point x="715" y="484"/>
      <point x="715" y="408" type="qcurve" smooth="yes"/>
      <point x="715" y="324"/>
      <point x="699" y="247" type="qcurve" smooth="yes"/>
      <point x="684" y="174"/>
      <point x="612" y="66"/>
      <point x="554" y="32" type="qcurve" smooth="yes"/>
      <point x="496" y="-2"/>
      <point x="410" y="-10" type="qcurve"/>
      <point x="410" y="-184" type="line"/>
      <point x="356" y="-184" type="line"/>
      <point x="356" y="-10" type="line"/>
      <point x="288" y="-3"/>
      <point x="228" y="27" type="qcurve" smooth="yes"/>
      <point x="170" y="56"/>
      <point x="131" y="98" type="qcurve" smooth="yes"/>
      <point x="89" y="143"/>
      <point x="69" y="198" type="qcurve" smooth="yes"/>
      <point x="47" y="258"/>
    </contour>
    <contour>
      <point x="215" y="1083" type="qcurve" smooth="yes"/>
      <point x="215" y="1041"/>
      <point x="219" y="1014" type="qcurve" smooth="yes"/>
      <point x="224" y="983"/>
      <point x="237" y="956" type="qcurve" smooth="yes"/>
      <point x="250" y="930"/>
      <point x="277" y="906" type="qcurve" smooth="yes"/>
      <point x="303" y="883"/>
      <point x="354" y="858" type="qcurve"/>
      <point x="356" y="1315" type="line"/>
      <point x="310" y="1297"/>
      <point x="282" y="1271" type="qcurve" smooth="yes"/>
      <point x="256" y="1247"/>
      <point x="240" y="1214" type="qcurve" smooth="yes"/>
      <point x="224" y="1182"/>
      <point x="220" y="1150" type="qcurve" smooth="yes"/>
      <point x="215" y="1112"/>
    </contour>
    <contour>
      <point x="408" y="147" type="line"/>
      <point x="462" y="159"/>
      <point x="492" y="185" type="qcurve" smooth="yes"/>
      <point x="522" y="210"/>
      <point x="537" y="245" type="qcurve" smooth="yes"/>
      <point x="551" y="277"/>
      <point x="554" y="319" type="qcurve" smooth="yes"/>
      <point x="557" y="360"/>
      <point x="557" y="406" type="qcurve" smooth="yes"/>
      <point x="557" y="457"/>
      <point x="552" y="500" type="qcurve" smooth="yes"/>
      <point x="548" y="536"/>
      <point x="531" y="566" type="qcurve" smooth="yes"/>
      <point x="515" y="595"/>
      <point x="486" y="615" type="qcurve" smooth="yes"/>
      <point x="451" y="639"/>
      <point x="408" y="659" type="qcurve"/>
    </contour>
  </outline>
</glyph>
<glyph name="percent" format="1">
  <advance width="720"/>
  <unicode hex="0025"/>
  <outline>
    <contour>
      <point x="43" y="1186" type="qcurve" smooth="yes"/>
      <point x="43" y="1323" type="line" smooth="yes"/>
      <point x="43" y="1391"/>
      <point x="83" y="1431" type="qcurve" smooth="yes"/>
      <point x="122" y="1470"/>
      <point x="193" y="1470" type="qcurve" smooth="yes"/>
      <point x="263" y="1470"/>
      <point x="302" y="1431" type="qcurve" smooth="yes"/>
      <point x="342" y="1391"/>
      <point x="342" y="1323" type="qcurve" smooth="yes"/>
      <point x="342" y="1186" type="line" smooth="yes"/>
      <point x="342" y="1126"/>
      <point x="303" y="1089" type="qcurve" smooth="yes"/>
      <point x="263" y="1051"/>
      <point x="193" y="1051" type="qcurve" smooth="yes"/>
      <point x="122" y="1051"/>
      <point x="82" y="1089" type="qcurve" smooth="yes"/>
      <point x="43" y="1126"/>
    </contour>
    <contour>
      <point x="78" y="0" type="line"/>
      <point x="561" y="1458" type="line"/>
      <point x="643" y="1458" type="line"/>
      <point x="160" y="0" type="line"/>
    </contour>
    <contour>
      <point x="115" y="1206" type="line" smooth="yes"/>
      <point x="115" y="1172"/>
      <point x="138" y="1149" type="qcurve" smooth="yes"/>
      <point x="163" y="1124"/>
      <point x="223" y="1124"/>
      <point x="246" y="1149" type="qcurve" smooth="yes"/>
      <point x="268" y="1172"/>
      <point x="268" y="1206" type="qcurve" smooth="yes"/>
      <point x="270" y="1315" type="line" smooth="yes"/>
      <point x="270" y="1349"/>
      <point x="247" y="1372" type="qcurve" smooth="yes"/>
      <point x="222" y="1397"/>
      <point x="193" y="1397" type="qcurve" smooth="yes"/>
      <point x="163" y="1397"/>
      <point x="138" y="1372" type="qcurve" smooth="yes"/>
      <point x="115" y="1349"/>
      <point x="115" y="1315" type="qcurve" smooth="yes"/>
    </contour>
    <contour>
      <point x="379" y="123" type="qcurve" smooth="yes"/>
      <point x="379" y="260" type="line" smooth="yes"/>
      <point x="379" y="330"/>
      <point x="419" y="369" type="qcurve" smooth="yes"/>
      <point x="460" y="408"/>
      <point x="528" y="408" type="qcurve" smooth="yes"/>
      <point x="598" y="408"/>
      <point x="678" y="330"/>
      <point x="678" y="260" type="qcurve" smooth="yes"/>
      <point x="678" y="123" type="line" smooth="yes"/>
      <point x="678" y="63"/>
      <point x="639" y="26" type="qcurve" smooth="yes"/>
      <point x="599" y="-12"/>
      <point x="528" y="-12" type="qcurve" smooth="yes"/>
      <point x="458" y="-12"/>
      <point x="418" y="26" type="qcurve" smooth="yes"/>
      <point x="379" y="64"/>
    </contour>
    <contour>
      <point x="451" y="143" type="line" smooth="yes"/>
      <point x="451" y="109"/>
      <point x="474" y="86" type="qcurve" smooth="yes"/>
      <point x="499" y="61"/>
      <point x="528" y="61" type="qcurve" smooth="yes"/>
      <point x="558" y="61"/>
      <point x="583" y="86" type="qcurve" smooth="yes"/>
      <point x="606" y="109"/>
      <point x="606" y="143" type="qcurve" smooth="yes"/>
      <point x="606" y="252" type="line" smooth="yes"/>
      <point x="606" y="286"/>
      <point x="583" y="309" type="qcurve" smooth="yes"/>
      <point x="558" y="334"/>
      <point x="528" y="334" type="qcurve" smooth="yes"/>
      <point x="499" y="334"/>
      <point x="474" y="309" type="qcurve" smooth="yes"/>
      <point x="451" y="286"/>
      <point x="451" y="252" type="qcurve" smooth="yes"/>
    </contour>
  </outline>
</glyph>
<glyph name="ampersand" format="1">
  <advance width="985"/>
  <unicode hex="0026"/>
  <outline>
    <contour>
      <point x="98" y="313" type="qcurve" smooth="yes"/>
      <point x="98" y="430"/>
      <point x="155" y="520" type="qcurve" smooth="yes"/>
      <point x="216" y="616"/>
      <point x="309" y="702" type="qcurve"/>
      <point x="247" y="791"/>
      <point x="208" y="880" type="qcurve" smooth="yes"/>
      <point x="172" y="962"/>
      <point x="172" y="1055" type="qcurve" smooth="yes"/>
      <point x="172" y="1167"/>
      <point x="304" y="1323"/>
      <point x="432" y="1323" type="qcurve" smooth="yes"/>
      <point x="496" y="1323"/>
      <point x="541" y="1304" type="qcurve" smooth="yes"/>
      <point x="589" y="1284"/>
      <point x="620" y="1250" type="qcurve" smooth="yes"/>
      <point x="652" y="1215"/>
      <point x="684" y="1127"/>
      <point x="684" y="1075" type="qcurve" smooth="yes"/>
      <point x="684" y="976"/>
      <point x="623" y="884" type="qcurve" smooth="yes"/>
      <point x="558" y="786"/>
      <point x="463" y="698" type="qcurve"/>
      <point x="564" y="528" type="line" smooth="yes"/>
      <point x="606" y="456"/>
      <point x="688" y="332" type="qcurve"/>
      <point x="807" y="500" type="line"/>
      <point x="893" y="436" type="line"/>
      <point x="743" y="236" type="line"/>
      <point x="885" y="0" type="line"/>
      <point x="737" y="0" type="line"/>
      <point x="657" y="131" type="line"/>
      <point x="579" y="52"/>
      <point x="517" y="20" type="qcurve" smooth="yes"/>
      <point x="454" y="-12"/>
      <point x="375" y="-12" type="qcurve" smooth="yes"/>
      <point x="317" y="-12"/>
      <point x="269" y="10" type="qcurve" smooth="yes"/>
      <point x="218" y="33"/>
      <point x="181" y="76" type="qcurve" smooth="yes"/>
      <point x="143" y="120"/>
      <point x="121" y="179" type="qcurve" smooth="yes"/>
      <point x="98" y="240"/>
    </contour>
    <contour>
      <point x="231" y="324" type="qcurve" smooth="yes"/>
      <point x="231" y="283"/>
      <point x="245" y="241" type="qcurve" smooth="yes"/>
      <point x="259" y="200"/>
      <point x="282" y="171" type="qcurve" smooth="yes"/>
      <point x="307" y="140"/>
      <point x="339" y="123" type="qcurve" smooth="yes"/>
      <point x="375" y="104"/>
      <point x="414" y="104" type="qcurve" smooth="yes"/>
      <point x="472" y="104"/>
      <point x="519" y="141" type="qcurve" smooth="yes"/>
      <point x="569" y="180"/>
      <point x="600" y="221" type="qcurve"/>
      <point x="373" y="598" type="line"/>
      <point x="307" y="529"/>
      <point x="231" y="401"/>
    </contour>
    <contour>
      <point x="305" y="1051" type="qcurve" smooth="yes"/>
      <point x="305" y="995"/>
      <point x="332" y="932" type="qcurve" smooth="yes"/>
      <point x="358" y="872"/>
      <point x="406" y="791" type="qcurve"/>
      <point x="460" y="846"/>
      <point x="510" y="913" type="qcurve" smooth="yes"/>
      <point x="558" y="979"/>
      <point x="563" y="1071" type="qcurve" smooth="yes"/>
      <point x="563" y="1095"/>
      <point x="554" y="1119" type="qcurve" smooth="yes"/>
      <point x="546" y="1141"/>
      <point x="510" y="1183"/>
      <point x="488" y="1194" type="qcurve" smooth="yes"/>
      <point x="464" y="1206"/>
      <point x="436" y="1206" type="qcurve" smooth="yes"/>
      <point x="373" y="1206"/>
      <point x="305" y="1108"/>
    </contour>
  </outline>
</glyph>
<glyph name="quotesingle" format="1">
  <advance width="380"/>
  <unicode hex="0027"/>
  <outline>
    <contour>
      <point x="133" y="1098" type="line"/>
      <point x="133" y="1458" type="line"/>
      <point x="248" y="1458" type="line"/>
      <point x="248" y="1098" type="line"/>
    </contour>
  </outline>
</glyph>
<glyph name="parenleft" format="1">
  <advance width="454"/>
  <unicode hex="0028"/>
  <outline>
    <contour>
      <point x="127" y="627" type="qcurve" smooth="yes"/>
      <point x="127" y="732"/>
      <point x="142" y="843" type="qcurve" smooth="yes"/>
      <point x="156" y="949"/>
      <point x="188" y="1063" type="qcurve" smooth="yes"/>
      <point x="217" y="1169"/>
      <point x="262" y="1272" type="qcurve" smooth="yes"/>
      <point x="308" y="1377"/>
      <point x="360" y="1458" type="qcurve"/>
      <point x="383" y="1458" type="line"/>
      <point x="327" y="1237"/>
      <point x="306" y="1018" type="qcurve" smooth="yes"/>
      <point x="285" y="794"/>
      <point x="285" y="567" type="qcurve" smooth="yes"/>
      <point x="285" y="355"/>
      <point x="310" y="167" type="qcurve" smooth="yes"/>
      <point x="334" y="-17"/>
      <point x="383" y="-205" type="qcurve"/>
      <point x="360" y="-205" type="line"/>
      <point x="303" y="-121"/>
      <point x="258" y="-12" type="qcurve" smooth="yes"/>
      <point x="216" y="90"/>
      <point x="185" y="202" type="qcurve" smooth="yes"/>
      <point x="157" y="304"/>
      <point x="141" y="420" type="qcurve" smooth="yes"/>
      <point x="127" y="521"/>
    </contour>
  </outline>
</glyph>
<glyph name="parenright" format="1">
  <advance width="454"/>
  <unicode hex="0029"/>
  <outline>
    <contour>
      <point x="72" y="-205" type="line"/>
      <point x="127" y="9"/>
      <point x="148" y="236" type="qcurve" smooth="yes"/>
      <point x="170" y="470"/>
      <point x="170" y="686" type="qcurve" smooth="yes"/>
      <point x="170" y="890"/>
      <point x="144" y="1086" type="qcurve" smooth="yes"/>
      <point x="118" y="1278"/>
      <point x="72" y="1458" type="qcurve"/>
      <point x="94" y="1458" type="line"/>
      <point x="156" y="1360"/>
      <point x="196" y="1265" type="qcurve" smooth="yes"/>
      <point x="240" y="1162"/>
      <point x="268" y="1052" type="qcurve" smooth="yes"/>
      <point x="297" y="939"/>
      <point x="312" y="834" type="qcurve" smooth="yes"/>
      <point x="328" y="719"/>
      <point x="328" y="627" type="qcurve" smooth="yes"/>
      <point x="328" y="529"/>
      <point x="312" y="411" type="qcurve" smooth="yes"/>
      <point x="297" y="303"/>
      <point x="266" y="190" type="qcurve" smooth="yes"/>
      <point x="235" y="80"/>
      <point x="193" y="-18" type="qcurve" smooth="yes"/>
      <point x="148" y="-122"/>
      <point x="94" y="-205" type="qcurve"/>
    </contour>
  </outline>
</glyph>
<glyph name="asterisk" format="1">
  <advance width="757"/>
  <unicode hex="002A"/>
  <outline>
    <contour>
      <point x="98" y="989" type="line"/>
      <point x="319" y="1122" type="line"/>
      <point x="98" y="1257" type="line"/>
      <point x="131" y="1323" type="line"/>
      <point x="348" y="1178" type="line"/>
      <point x="348" y="1458" type="line"/>
      <point x="418" y="1458" type="line"/>
      <point x="418" y="1178" type="line"/>
      <point x="627" y="1323" type="line"/>
      <point x="659" y="1257" type="line"/>
      <point x="438" y="1122" type="line"/>
      <point x="659" y="989" type="line"/>
      <point x="627" y="922" type="line"/>
      <point x="410" y="1067" type="line"/>
      <point x="410" y="786" type="line"/>
      <point x="340" y="786" type="line"/>
      <point x="340" y="1067" type="line"/>
      <point x="131" y="922" type="line"/>
    </contour>
  </outline>
</glyph>
<glyph name="plus" format="1">
  <advance width="1228"/>
  <unicode hex="002B"/>
  <outline>
    <contour>
      <point x="121" y="459" type="line"/>
      <point x="121" y="578" type="line"/>
      <point x="557" y="578" type="line"/>
      <point x="557" y="1036" type="line"/>
      <point x="670" y="1036" type="line"/>
      <point x="670" y="578" type="line"/>
      <point x="1108" y="578" type="line"/>
      <point x="1108" y="459" type="line"/>
      <point x="672" y="459" type="line"/>
      <point x="672" y="0" type="line"/>
      <point x="559" y="0" type="line"/>
      <point x="559" y="459" type="line"/>
    </contour>
  </outline>
</glyph>
<glyph name="hyphen" format="1">
  <advance width="827"/>
  <unicode hex="002D"/>
  <outline>
    <contour>
      <point x="96" y="559" type="line"/>
      <point x="96" y="725" type="line"/>
      <point x="729" y="725" type="line"/>
      <point x="729" y="559" type="line"/>
    </contour>
  </outline>
</glyph>
<glyph name="period" format="1">
  <advance width="360"/>
  <unicode hex="002E"/>
  <outline>
    <contour>
      <point x="98" y="0" type="line"/>
      <point x="98" y="166" type="line"/>
      <point x="262" y="166" type="line"/>
      <point x="262" y="0" type="line"/>
    </contour>
  </outline>
</glyph>
<glyph name="slash" format="1">
  <advance width="454"/>
  <unicode hex="002F"/>
  <outline>
    <contour>
      <point x="41" y="-12" type="line"/>
      <point x="301" y="1470" type="line"/>
      <point x="414" y="1470" type="line"/>
      <point x="154" y="-12" type="line"/>
    </contour>
  </outline>
</glyph>
<glyph name="one" format="1">
  <advance width="466"/>
  <unicode hex="0031"/>
  <outline>
    <contour>
      <point x="98" y="1118" type="line"/>
      <point x="98" y="1352" type="line"/>
      <point x="203" y="1458" type="line"/>
      <point x="369" y="1458" type="line"/>
      <point x="369" y="0" type="line"/>
      <point x="203" y="0" type="line"/>
      <point x="203" y="1225" type="line"/>
    </contour>
  </outline>
</glyph>
<glyph name="two" format="1">
  <advance width="827"/>
  <unicode hex="0032"/>
  <outline>
    <contour>
      <point x="96" y="0" type="line"/>
      <point x="96" y="166" type="line"/>
      <point x="549" y="1106" type="line" smooth="yes"/>
      <point x="563" y="1131"/>
      <point x="563" y="1171" type="qcurve" smooth="yes"/>
      <point x="563" y="1235"/>
      <point x="475" y="1323"/>
      <point x="414" y="1323" type="qcurve" smooth="yes"/>
      <point x="350" y="1323"/>
      <point x="262" y="1235"/>
      <point x="262" y="1171" type="qcurve" smooth="yes"/>
      <point x="262" y="1131"/>
      <point x="283" y="1098" type="qcurve"/>
      <point x="139" y="1014" type="line"/>
      <point x="122" y="1042"/>
      <point x="108" y="1089" type="qcurve" smooth="yes"/>
      <point x="96" y="1130"/>
      <point x="96" y="1171" type="qcurve" smooth="yes"/>
      <point x="96" y="1235"/>
      <point x="148" y="1355"/>
      <point x="232" y="1439"/>
      <point x="350" y="1489"/>
      <point x="478" y="1489"/>
      <point x="537" y="1464" type="qcurve" smooth="yes"/>
      <point x="594" y="1440"/>
      <point x="637" y="1397" type="qcurve" smooth="yes"/>
      <point x="681" y="1353"/>
      <point x="705" y="1295" type="qcurve" smooth="yes"/>
      <point x="729" y="1236"/>
      <point x="729" y="1171" type="qcurve" smooth="yes"/>
      <point x="729" y="1100"/>
      <point x="698" y="1036" type="qcurve" smooth="yes"/>
      <point x="281" y="166" type="line"/>
      <point x="729" y="166" type="line"/>
      <point x="729" y="0" type="line"/>
    </contour>
  </outline>
</glyph>
<glyph name="three" format="1">
  <advance width="827"/>
  <unicode hex="0033"/>
  <outline>
    <contour>
      <point x="98" y="135" type="qcurve"/>
      <point x="240" y="221" type="line"/>
      <point x="263" y="182"/>
      <point x="302" y="160" type="qcurve" smooth="yes"/>
      <point x="343" y="137"/>
      <point x="389" y="137" type="qcurve" smooth="yes"/>
      <point x="461" y="137"/>
      <point x="563" y="239"/>
      <point x="563" y="311" type="qcurve" smooth="yes"/>
      <point x="563" y="616" type="line" smooth="yes"/>
      <point x="563" y="670"/>
      <point x="537" y="710" type="qcurve" smooth="yes"/>
      <point x="511" y="751"/>
      <point x="467" y="772" type="qcurve" smooth="yes"/>
      <point x="236" y="881" type="line"/>
      <point x="526" y="1292" type="line"/>
      <point x="195" y="1292" type="line"/>
      <point x="195" y="1458" type="line"/>
      <point x="729" y="1458" type="line"/>
      <point x="729" y="1292" type="line"/>
      <point x="481" y="944" type="line"/>
      <point x="590" y="909"/>
      <point x="659" y="822" type="qcurve" smooth="yes"/>
      <point x="729" y="734"/>
      <point x="729" y="616" type="qcurve" smooth="yes"/>
      <point x="729" y="311" type="line" smooth="yes"/>
      <point x="729" y="240"/>
      <point x="675" y="116"/>
      <point x="630" y="71" type="qcurve" smooth="yes"/>
      <point x="584" y="25"/>
      <point x="458" y="-29"/>
      <point x="389" y="-29" type="qcurve" smooth="yes"/>
      <point x="296" y="-29"/>
      <point x="220" y="16" type="qcurve" smooth="yes"/>
      <point x="143" y="61"/>
    </contour>
  </outline>
</glyph>
<glyph name="four" format="1">
  <advance width="827"/>
  <unicode hex="0034"/>
  <outline>
    <contour>
      <point x="98" y="297" type="line"/>
      <point x="98" y="463" type="line"/>
      <point x="485" y="1458" type="line"/>
      <point x="651" y="1458" type="line"/>
      <point x="651" y="463" type="line"/>
      <point x="729" y="463" type="line"/>
      <point x="729" y="297" type="line"/>
      <point x="651" y="297" type="line"/>
      <point x="651" y="0" type="line"/>
      <point x="485" y="0" type="line"/>
      <point x="485" y="297" type="line"/>
    </contour>
    <contour>
      <point x="274" y="463" type="line"/>
      <point x="485" y="463" type="line"/>
      <point x="485" y="1004" type="line"/>
    </contour>
  </outline>
</glyph>
<glyph name="five" format="1">
  <advance width="827"/>
  <unicode hex="0035"/>
  <outline>
    <contour>
      <point x="96" y="137" type="qcurve"/>
      <point x="240" y="221" type="line"/>
      <point x="263" y="182"/>
      <point x="302" y="160" type="qcurve" smooth="yes"/>
      <point x="343" y="137"/>
      <point x="389" y="137" type="qcurve" smooth="yes"/>
      <point x="461" y="137"/>
      <point x="563" y="239"/>
      <point x="563" y="311" type="qcurve" smooth="yes"/>
      <point x="563" y="686" type="line" smooth="yes"/>
      <point x="563" y="758"/>
      <point x="461" y="860"/>
      <point x="389" y="860" type="qcurve" smooth="yes"/>
      <point x="305" y="860"/>
      <point x="254" y="799" type="qcurve"/>
      <point x="96" y="928" type="line"/>
      <point x="96" y="1458" type="line"/>
      <point x="633" y="1458" type="line"/>
      <point x="633" y="1292" type="line"/>
      <point x="262" y="1292" type="line"/>
      <point x="262" y="1001" type="line"/>
      <point x="321" y="1026"/>
      <point x="389" y="1026" type="qcurve" smooth="yes"/>
      <point x="458" y="1026"/>
      <point x="521" y="999" type="qcurve" smooth="yes"/>
      <point x="586" y="971"/>
      <point x="674" y="883"/>
      <point x="702" y="818" type="qcurve" smooth="yes"/>
      <point x="729" y="755"/>
      <point x="729" y="686" type="qcurve" smooth="yes"/>
      <point x="729" y="311" type="line" smooth="yes"/>
      <point x="729" y="240"/>
      <point x="675" y="116"/>
      <point x="630" y="71" type="qcurve" smooth="yes"/>
      <point x="584" y="25"/>
      <point x="458" y="-29"/>
      <point x="389" y="-29" type="qcurve" smooth="yes"/>
      <point x="294" y="-29"/>
      <point x="218" y="16" type="qcurve" smooth="yes"/>
      <point x="140" y="62"/>
    </contour>
  </outline>
</glyph>
<glyph name="seven" format="1">
  <advance width="827"/>
  <unicode hex="0037"/>
  <outline>
    <contour>
      <point x="96" y="0" type="line"/>
      <point x="555" y="1292" type="line"/>
      <point x="96" y="1292" type="line"/>
      <point x="96" y="1458" type="line"/>
      <point x="729" y="1458" type="line"/>
      <point x="729" y="1292" type="line"/>
      <point x="272" y="0" type="line"/>
    </contour>
  </outline>
</glyph>
<glyph name="eight" format="1">
  <advance width="827"/>
  <unicode hex="0038"/>
  <outline>
    <contour>
      <point x="96" y="287" type="qcurve" smooth="yes"/>
      <point x="96" y="584" type="line" smooth="yes"/>
      <point x="96" y="660"/>
      <point x="129" y="723" type="qcurve" smooth="yes"/>
      <point x="161" y="784"/>
      <point x="215" y="829" type="qcurve"/>
      <point x="160" y="896"/>
      <point x="160" y="987" type="qcurve" smooth="yes"/>
      <point x="160" y="1235" type="line" smooth="yes"/>
      <point x="160" y="1289"/>
      <point x="180" y="1333" type="qcurve" smooth="yes"/>
      <point x="202" y="1382"/>
      <point x="234" y="1414" type="qcurve" smooth="yes"/>
      <point x="267" y="1447"/>
      <point x="314" y="1468" type="qcurve" smooth="yes"/>
      <point x="360" y="1489"/>
      <point x="414" y="1489" type="qcurve" smooth="yes"/>
      <point x="464" y="1489"/>
      <point x="511" y="1468" type="qcurve" smooth="yes"/>
      <point x="560" y="1446"/>
      <point x="592" y="1414" type="qcurve" smooth="yes"/>
      <point x="626" y="1380"/>
      <point x="646" y="1333" type="qcurve" smooth="yes"/>
      <point x="666" y="1285"/>
      <point x="666" y="1235" type="qcurve" smooth="yes"/>
      <point x="666" y="987" type="line" smooth="yes"/>
      <point x="666" y="897"/>
      <point x="610" y="829" type="qcurve"/>
      <point x="666" y="785"/>
      <point x="697" y="723" type="qcurve" smooth="yes"/>
      <point x="729" y="659"/>
      <point x="729" y="584" type="qcurve" smooth="yes"/>
      <point x="729" y="287" type="line" smooth="yes"/>
      <point x="729" y="221"/>
      <point x="681" y="107"/>
      <point x="637" y="63" type="qcurve" smooth="yes"/>
      <point x="594" y="20"/>
      <point x="537" y="-4" type="qcurve" smooth="yes"/>
      <point x="478" y="-29"/>
      <point x="350" y="-29"/>
      <point x="232" y="21"/>
      <point x="190" y="63" type="qcurve" smooth="yes"/>
      <point x="149" y="104"/>
      <point x="122" y="164" type="qcurve" smooth="yes"/>
      <point x="96" y="222"/>
    </contour>
    <contour>
      <point x="262" y="287" type="line" smooth="yes"/>
      <point x="262" y="224"/>
      <point x="306" y="180" type="qcurve" smooth="yes"/>
      <point x="349" y="137"/>
      <point x="414" y="137" type="qcurve" smooth="yes"/>
      <point x="476" y="137"/>
      <point x="519" y="180" type="qcurve" smooth="yes"/>
      <point x="563" y="224"/>
      <point x="563" y="287" type="qcurve" smooth="yes"/>
      <point x="563" y="584" type="line" smooth="yes"/>
      <point x="563" y="646"/>
      <point x="519" y="690" type="qcurve" smooth="yes"/>
      <point x="476" y="733"/>
      <point x="414" y="733" type="qcurve" smooth="yes"/>
      <point x="349" y="733"/>
      <point x="306" y="690" type="qcurve" smooth="yes"/>
      <point x="262" y="646"/>
      <point x="262" y="584" type="qcurve" smooth="yes"/>
    </contour>
    <contour>
      <point x="326" y="987" type="line" smooth="yes"/>
      <point x="326" y="950"/>
      <point x="351" y="925" type="qcurve" smooth="yes"/>
      <point x="377" y="899"/>
      <point x="414" y="899" type="qcurve" smooth="yes"/>
      <point x="448" y="899"/>
      <point x="500" y="951"/>
      <point x="500" y="987" type="qcurve" smooth="yes"/>
      <point x="500" y="1235" type="line" smooth="yes"/>
      <point x="500" y="1271"/>
      <point x="448" y="1323"/>
      <point x="414" y="1323" type="qcurve" smooth="yes"/>
      <point x="377" y="1323"/>
      <point x="351" y="1297" type="qcurve" smooth="yes"/>
      <point x="326" y="1272"/>
      <point x="326" y="1235" type="qcurve" smooth="yes"/>
    </contour>
  </outline>
</glyph>
<glyph name="colon" format="1">
  <advance width="360"/>
  <unicode hex="003A"/>
  <outline>
    <contour>
      <point x="98" y="0" type="line"/>
      <point x="98" y="166" type="line"/>
      <point x="262" y="166" type="line"/>
      <point x="262" y="0" type="line"/>
    </contour>
    <contour>
      <point x="98" y="393" type="line"/>
      <point x="98" y="559" type="line"/>
      <point x="262" y="559" type="line"/>
      <point x="262" y="393" type="line"/>
    </contour>
  </outline>
</glyph>
<glyph name="semicolon" format="1">
  <advance width="380"/>
  <unicode hex="003B"/>
  <outline>
    <contour>
      <point x="111" y="-125" type="line"/>
      <point x="111" y="178" type="line"/>
      <point x="270" y="178" type="line"/>
      <point x="270" y="-4" type="line"/>
    </contour>
    <contour>
      <point x="111" y="506" type="line"/>
      <point x="111" y="674" type="line"/>
      <point x="270" y="674" type="line"/>
      <point x="270" y="506" type="line"/>
    </contour>
  </outline>
</glyph>
<glyph name="less" format="1">
  <advance width="1228"/>
  <unicode hex="003C"/>
  <outline>
    <contour>
      <point x="121" y="471" type="line"/>
      <point x="121" y="565" type="line"/>
      <point x="1108" y="1038" type="line"/>
      <point x="1108" y="924" type="line"/>
      <point x="258" y="518" type="line"/>
      <point x="1108" y="113" type="line"/>
      <point x="1108" y="-2" type="line"/>
    </contour>
  </outline>
</glyph>
<glyph name="equal" format="1">
  <advance width="1228"/>
  <unicode hex="003D"/>
  <outline>
    <contour>
      <point x="121" y="231" type="line"/>
      <point x="121" y="356" type="line"/>
      <point x="1108" y="356" type="line"/>
      <point x="1108" y="231" type="line"/>
    </contour>
    <contour>
      <point x="121" y="680" type="line"/>
      <point x="121" y="805" type="line"/>
      <point x="1108" y="805" type="line"/>
      <point x="1108" y="680" type="line"/>
    </contour>
  </outline>
</glyph>
<glyph name="greater" format="1">
  <advance width="1228"/>
  <unicode hex="003E"/>
  <outline>
    <contour>
      <point x="121" y="-2" type="line"/>
      <point x="121" y="113" type="line"/>
      <point x="971" y="518" type="line"/>
      <point x="121" y="924" type="line"/>
      <point x="121" y="1038" type="line"/>
      <point x="1108" y="565" type="line"/>
      <point x="1108" y="471" type="line"/>
    </contour>
  </outline>
</glyph>
<glyph name="question" format="1">
  <advance width="757"/>
  <unicode hex="003F"/>
  <outline>
    <contour>
      <point x="90" y="1075" type="line"/>
      <point x="90" y="1174" type="line" smooth="yes"/>
      <point x="90" y="1234"/>
      <point x="136" y="1344"/>
      <point x="175" y="1383" type="qcurve" smooth="yes"/>
      <point x="215" y="1423"/>
      <point x="268" y="1447" type="qcurve" smooth="yes"/>
      <point x="318" y="1470"/>
      <point x="381" y="1470" type="qcurve" smooth="yes"/>
      <point x="509" y="1470"/>
      <point x="589" y="1380" type="qcurve" smooth="yes"/>
      <point x="668" y="1291"/>
      <point x="668" y="1116" type="qcurve" smooth="yes"/>
      <point x="668" y="1076"/>
      <point x="666" y="1026" type="qcurve" smooth="yes"/>
      <point x="665" y="1009"/>
      <point x="660" y="964" type="qcurve" smooth="yes"/>
      <point x="657" y="939"/>
      <point x="651" y="921" type="qcurve" smooth="yes"/>
      <point x="647" y="909"/>
      <point x="637" y="889" type="qcurve" smooth="yes"/>
      <point x="496" y="639" type="line" smooth="yes"/>
      <point x="485" y="618"/>
      <point x="470" y="582" type="qcurve" smooth="yes"/>
      <point x="459" y="554"/>
      <point x="459" y="516" type="qcurve" smooth="yes"/>
      <point x="459" y="373" type="line"/>
      <point x="299" y="373" type="line"/>
      <point x="299" y="545" type="line" smooth="yes"/>
      <point x="297" y="590"/>
      <point x="311" y="624" type="qcurve" smooth="yes"/>
      <point x="327" y="665"/>
      <point x="348" y="702" type="qcurve" smooth="yes"/>
      <point x="479" y="924" type="line" smooth="yes"/>
      <point x="498" y="956"/>
      <point x="504" y="990" type="qcurve" smooth="yes"/>
      <point x="510" y="1026"/>
      <point x="510" y="1059" type="qcurve" smooth="yes"/>
      <point x="510" y="1171" type="line" smooth="yes"/>
      <point x="510" y="1226"/>
      <point x="472" y="1267" type="qcurve" smooth="yes"/>
      <point x="435" y="1307"/>
      <point x="381" y="1307" type="qcurve" smooth="yes"/>
      <point x="337" y="1307"/>
      <point x="293" y="1272" type="qcurve" smooth="yes"/>
      <point x="250" y="1238"/>
      <point x="250" y="1171" type="qcurve" smooth="yes"/>
      <point x="250" y="1075" type="line"/>
    </contour>
    <contour>
      <point x="299" y="0" type="line"/>
      <point x="299" y="164" type="line"/>
      <point x="457" y="164" type="line"/>
      <point x="457" y="0" type="line"/>
    </contour>
  </outline>
</glyph>
<glyph name="at" format="1">
  <advance width="1638"/>
  <unicode hex="0040"/>
  <outline>
    <contour>
      <point x="135" y="733" type="qcurve" smooth="yes"/>
      <point x="135" y="888"/>
      <point x="195" y="1021" type="qcurve" smooth="yes"/>
      <point x="256" y="1156"/>
      <point x="356" y="1255" type="qcurve" smooth="yes"/>
      <point x="459" y="1356"/>
      <point x="595" y="1413" type="qcurve" smooth="yes"/>
      <point x="732" y="1470"/>
      <point x="885" y="1470" type="qcurve" smooth="yes"/>
      <point x="1026" y="1470"/>
      <point x="1150" y="1425" type="qcurve" smooth="yes"/>
      <point x="1275" y="1380"/>
      <point x="1367" y="1298" type="qcurve" smooth="yes"/>
      <point x="1460" y="1215"/>
      <point x="1514" y="1105" type="qcurve" smooth="yes"/>
      <point x="1569" y="992"/>
      <point x="1569" y="862" type="qcurve" smooth="yes"/>
      <point x="1569" y="737"/>
      <point x="1522" y="631" type="qcurve" smooth="yes"/>
      <point x="1477" y="530"/>
      <point x="1407" y="452" type="qcurve" smooth="yes"/>
      <point x="1339" y="376"/>
      <point x="1263" y="336" type="qcurve" smooth="yes"/>
      <point x="1186" y="295"/>
      <point x="1066" y="295"/>
      <point x="1032" y="326" type="qcurve" smooth="yes"/>
      <point x="1000" y="355"/>
      <point x="989" y="428" type="qcurve"/>
      <point x="952" y="428" type="line"/>
      <point x="903" y="374"/>
      <point x="850" y="334" type="qcurve" smooth="yes"/>
      <point x="799" y="295"/>
      <point x="713" y="295" type="qcurve" smooth="yes"/>
      <point x="650" y="295"/>
      <point x="603" y="318" type="qcurve" smooth="yes"/>
      <point x="551" y="343"/>
      <point x="518" y="382" type="qcurve" smooth="yes"/>
      <point x="483" y="423"/>
      <point x="464" y="476" type="qcurve" smooth="yes"/>
      <point x="444" y="531"/>
      <point x="444" y="592" type="qcurve" smooth="yes"/>
      <point x="444" y="694"/>
      <point x="478" y="793" type="qcurve" smooth="yes"/>
      <point x="513" y="894"/>
      <point x="572" y="971" type="qcurve" smooth="yes"/>
      <point x="630" y="1046"/>
      <point x="716" y="1098" type="qcurve" smooth="yes"/>
      <point x="798" y="1147"/>
      <point x="899" y="1147" type="qcurve" smooth="yes"/>
      <point x="965" y="1147"/>
      <point x="1083" y="1073"/>
      <point x="1116" y="981" type="qcurve"/>
      <point x="1157" y="981" type="line"/>
      <point x="1198" y="1110" type="line"/>
      <point x="1274" y="1110" type="line"/>
      <point x="1106" y="561" type="line" smooth="yes"/>
      <point x="1097" y="536"/>
      <point x="1090" y="504" type="qcurve" smooth="yes"/>
      <point x="1083" y="471"/>
      <point x="1083" y="457" type="qcurve" smooth="yes"/>
      <point x="1083" y="427"/>
      <point x="1099" y="398" type="qcurve" smooth="yes"/>
      <point x="1114" y="371"/>
      <point x="1157" y="371" type="qcurve" smooth="yes"/>
      <point x="1215" y="371"/>
      <point x="1270" y="417" type="qcurve" smooth="yes"/>
      <point x="1324" y="462"/>
      <point x="1412" y="608"/>
      <point x="1462" y="772"/>
      <point x="1462" y="852" type="qcurve" smooth="yes"/>
      <point x="1462" y="969"/>
      <point x="1415" y="1068" type="qcurve" smooth="yes"/>
      <point x="1369" y="1165"/>
      <point x="1288" y="1235" type="qcurve" smooth="yes"/>
      <point x="1208" y="1304"/>
      <point x="1104" y="1343" type="qcurve" smooth="yes"/>
      <point x="999" y="1382"/>
      <point x="887" y="1382" type="qcurve" smooth="yes"/>
      <point x="752" y="1382"/>
      <point x="635" y="1328" type="qcurve" smooth="yes"/>
      <point x="520" y="1275"/>
      <point x="430" y="1182" type="qcurve" smooth="yes"/>
      <point x="342" y="1091"/>
      <point x="242" y="851"/>
      <point x="242" y="723" type="qcurve" smooth="yes"/>
      <point x="242" y="590"/>
      <point x="292" y="470" type="qcurve" smooth="yes"/>
      <point x="340" y="355"/>
      <point x="431" y="264" type="qcurve" smooth="yes"/>
      <point x="519" y="176"/>
      <point x="759" y="76"/>
      <point x="897" y="76" type="qcurve" smooth="yes"/>
      <point x="975" y="76"/>
      <point x="1046" y="93" type="qcurve" smooth="yes"/>
      <point x="1125" y="112"/>
      <point x="1188" y="140" type="qcurve" smooth="yes"/>
      <point x="1256" y="170"/>
      <point x="1312" y="210" type="qcurve" smooth="yes"/>
      <point x="1367" y="249"/>
      <point x="1407" y="297" type="qcurve"/>
      <point x="1505" y="297" type="line"/>
      <point x="1454" y="222"/>
      <point x="1388" y="168" type="qcurve" smooth="yes"/>
      <point x="1321" y="112"/>
      <point x="1238" y="71" type="qcurve" smooth="yes"/>
      <point x="1155" y="29"/>
      <point x="1066" y="9" type="qcurve" smooth="yes"/>
      <point x="974" y="-12"/>
      <point x="881" y="-12" type="qcurve" smooth="yes"/>
      <point x="723" y="-12"/>
      <point x="589" y="44" type="qcurve" smooth="yes"/>
      <point x="452" y="101"/>
      <point x="352" y="200" type="qcurve" smooth="yes"/>
      <point x="254" y="297"/>
      <point x="194" y="436" type="qcurve" smooth="yes"/>
      <point x="135" y="574"/>
    </contour>
    <contour>
      <point x="557" y="606" type="qcurve" smooth="yes"/>
      <point x="557" y="506"/>
      <point x="611" y="451" type="qcurve" smooth="yes"/>
      <point x="665" y="395"/>
      <point x="754" y="395" type="qcurve" smooth="yes"/>
      <point x="822" y="395"/>
      <point x="880" y="441" type="qcurve" smooth="yes"/>
      <point x="936" y="486"/>
      <point x="981" y="555" type="qcurve" smooth="yes"/>
      <point x="1025" y="623"/>
      <point x="1050" y="700" type="qcurve" smooth="yes"/>
      <point x="1076" y="778"/>
      <point x="1077" y="844" type="qcurve" smooth="yes"/>
      <point x="1077" y="926"/>
      <point x="1032" y="986" type="qcurve" smooth="yes"/>
      <point x="986" y="1047"/>
      <point x="899" y="1047" type="qcurve" smooth="yes"/>
      <point x="824" y="1047"/>
      <point x="762" y="1004" type="qcurve" smooth="yes"/>
      <point x="696" y="959"/>
      <point x="653" y="895" type="qcurve" smooth="yes"/>
      <point x="609" y="830"/>
      <point x="583" y="753" type="qcurve" smooth="yes"/>
      <point x="557" y="675"/>
    </contour>
  </outline>
</glyph>
<glyph name="A" format="1">
  <advance width="913"/>
  <unicode hex="0041"/>
  <outline>
    <contour>
      <point x="98" y="0" type="line"/>
      <point x="375" y="1458" type="line"/>
      <point x="541" y="1458" type="line"/>
      <point x="817" y="0" type="line"/>
      <point x="649" y="0" type="line"/>
      <point x="590" y="305" type="line"/>
      <point x="324" y="305" type="line"/>
      <point x="266" y="0" type="line"/>
    </contour>
    <contour>
      <point x="354" y="471" type="line"/>
      <point x="559" y="471" type="line"/>
      <point x="457" y="1008" type="line"/>
    </contour>
  </outline>
</glyph>
<glyph name="B" format="1">
  <advance width="827"/>
  <unicode hex="0042"/>
  <outline>
    <contour>
      <point x="98" y="0" type="line"/>
      <point x="98" y="1458" type="line"/>
      <point x="414" y="1458" type="line" smooth="yes"/>
      <point x="466" y="1458"/>
      <point x="554" y="1420"/>
      <point x="589" y="1385" type="qcurve" smooth="yes"/>
      <point x="623" y="1351"/>
      <point x="642" y="1307" type="qcurve" smooth="yes"/>
      <point x="662" y="1261"/>
      <point x="662" y="1210" type="qcurve" smooth="yes"/>
      <point x="662" y="983" type="line" smooth="yes"/>
      <point x="662" y="895"/>
      <point x="610" y="831" type="qcurve"/>
      <point x="664" y="786"/>
      <point x="696" y="724" type="qcurve" smooth="yes"/>
      <point x="729" y="659"/>
      <point x="729" y="584" type="qcurve" smooth="yes"/>
      <point x="729" y="315" type="line" smooth="yes"/>
      <point x="729" y="250"/>
      <point x="681" y="136"/>
      <point x="637" y="92" type="qcurve" smooth="yes"/>
      <point x="594" y="49"/>
      <point x="537" y="25" type="qcurve" smooth="yes"/>
      <point x="478" y="0"/>
      <point x="414" y="0" type="qcurve" smooth="yes"/>
    </contour>
    <contour>
      <point x="264" y="166" type="line"/>
      <point x="414" y="166" type="line" smooth="yes"/>
      <point x="475" y="166"/>
      <point x="563" y="254"/>
      <point x="563" y="315" type="qcurve" smooth="yes"/>
      <point x="563" y="584" type="line" smooth="yes"/>
      <point x="563" y="646"/>
      <point x="519" y="690" type="qcurve" smooth="yes"/>
      <point x="476" y="733"/>
      <point x="414" y="733" type="qcurve" smooth="yes"/>
      <point x="264" y="733" type="line"/>
    </contour>
    <contour>
      <point x="264" y="899" type="line"/>
      <point x="414" y="899" type="line" smooth="yes"/>
      <point x="447" y="899"/>
      <point x="472" y="924" type="qcurve" smooth="yes"/>
      <point x="496" y="948"/>
      <point x="496" y="983" type="qcurve" smooth="yes"/>
      <point x="496" y="1210" type="line" smooth="yes"/>
      <point x="496" y="1245"/>
      <point x="472" y="1269" type="qcurve" smooth="yes"/>
      <point x="449" y="1292"/>
      <point x="414" y="1292" type="qcurve" smooth="yes"/>
      <point x="264" y="1292" type="line"/>
    </contour>
  </outline>
</glyph>
<glyph name="C" format="1">
  <advance width="827"/>
  <unicode hex="0043"/>
  <outline>
    <contour>
      <point x="98" y="287" type="qcurve" smooth="yes"/>
      <point x="98" y="1171" type="line" smooth="yes"/>
      <point x="98" y="1234"/>
      <point x="123" y="1295" type="qcurve" smooth="yes"/>
      <point x="147" y="1354"/>
      <point x="190" y="1397" type="qcurve" smooth="yes"/>
      <point x="232" y="1439"/>
      <point x="350" y="1489"/>
      <point x="478" y="1489"/>
      <point x="537" y="1464" type="qcurve" smooth="yes"/>
      <point x="594" y="1440"/>
      <point x="637" y="1397" type="qcurve" smooth="yes"/>
      <point x="681" y="1353"/>
      <point x="705" y="1295" type="qcurve" smooth="yes"/>
      <point x="729" y="1236"/>
      <point x="729" y="1171" type="qcurve"/>
      <point x="563" y="1171" type="line"/>
      <point x="563" y="1235"/>
      <point x="475" y="1323"/>
      <point x="414" y="1323" type="qcurve" smooth="yes"/>
      <point x="351" y="1323"/>
      <point x="307" y="1279" type="qcurve" smooth="yes"/>
      <point x="264" y="1236"/>
      <point x="264" y="1171" type="qcurve" smooth="yes"/>
      <point x="264" y="287" type="line" smooth="yes"/>
      <point x="264" y="223"/>
      <point x="350" y="137"/>
      <point x="414" y="137" type="qcurve" smooth="yes"/>
      <point x="476" y="137"/>
      <point x="519" y="180" type="qcurve" smooth="yes"/>
      <point x="563" y="224"/>
      <point x="563" y="287" type="qcurve"/>
      <point x="729" y="287" type="line"/>
      <point x="729" y="221"/>
      <point x="681" y="107"/>
      <point x="637" y="63" type="qcurve" smooth="yes"/>
      <point x="594" y="20"/>
      <point x="537" y="-4" type="qcurve" smooth="yes"/>
      <point x="478" y="-29"/>
      <point x="350" y="-29"/>
      <point x="232" y="21"/>
      <point x="148" y="105"/>
      <point x="98" y="223"/>
    </contour>
  </outline>
</glyph>
<glyph name="D" format="1">
  <advance width="827"/>
  <unicode hex="0044"/>
  <outline>
    <contour>
      <point x="98" y="0" type="line"/>
      <point x="98" y="1458" type="line"/>
      <point x="414" y="1458" type="line" smooth="yes"/>
      <point x="480" y="1458"/>
      <point x="537" y="1434" type="qcurve" smooth="yes"/>
      <point x="592" y="1411"/>
      <point x="682" y="1321"/>
      <point x="705" y="1266" type="qcurve" smooth="yes"/>
      <point x="729" y="1209"/>
      <point x="729" y="1143" type="qcurve" smooth="yes"/>
      <point x="729" y="315" type="line" smooth="yes"/>
      <point x="729" y="250"/>
      <point x="681" y="136"/>
      <point x="637" y="92" type="qcurve" smooth="yes"/>
      <point x="594" y="49"/>
      <point x="537" y="25" type="qcurve" smooth="yes"/>
      <point x="478" y="0"/>
      <point x="414" y="0" type="qcurve" smooth="yes"/>
    </contour>
    <contour>
      <point x="264" y="166" type="line"/>
      <point x="414" y="166" type="line" smooth="yes"/>
      <point x="475" y="166"/>
      <point x="563" y="254"/>
      <point x="563" y="315" type="qcurve" smooth="yes"/>
      <point x="563" y="1143" type="line" smooth="yes"/>
      <point x="563" y="1205"/>
      <point x="519" y="1249" type="qcurve" smooth="yes"/>
      <point x="476" y="1292"/>
      <point x="414" y="1292" type="qcurve" smooth="yes"/>
      <point x="264" y="1292" type="line"/>
    </contour>
  </outline>
</glyph>
<glyph name="E" format="1">
  <advance width="718"/>
  <unicode hex="0045"/>
  <outline>
    <contour>
      <point x="98" y="0" type="line"/>
      <point x="98" y="1458" type="line"/>
      <point x="623" y="1458" type="line"/>
      <point x="623" y="1292" type="line"/>
      <point x="264" y="1292" type="line"/>
      <point x="264" y="899" type="line"/>
      <point x="506" y="899" type="line"/>
      <point x="506" y="733" type="line"/>
      <point x="264" y="733" type="line"/>
      <point x="264" y="166" type="line"/>
      <point x="623" y="166" type="line"/>
      <point x="623" y="0" type="line"/>
    </contour>
  </outline>
</glyph>
<glyph name="H" format="1">
  <advance width="827"/>
  <unicode hex="0048"/>
  <outline>
    <contour>
      <point x="96" y="0" type="line"/>
      <point x="96" y="1458" type="line"/>
      <point x="262" y="1458" type="line"/>
      <point x="262" y="899" type="line"/>
      <point x="563" y="899" type="line"/>
      <point x="563" y="1458" type="line"/>
      <point x="729" y="1458" type="line"/>
      <point x="729" y="0" type="line"/>
      <point x="563" y="0" type="line"/>
      <point x="563" y="733" type="line"/>
      <point x="262" y="733" type="line"/>
      <point x="262" y="0" type="line"/>
    </contour>
  </outline>
</glyph>
<glyph name="K" format="1">
  <advance width="827"/>
  <unicode hex="004B"/>
  <outline>
    <contour>
      <point x="98" y="0" type="line"/>
      <point x="98" y="1458" type="line"/>
      <point x="264" y="1458" type="line"/>
      <point x="264" y="1036" type="line"/>
      <point x="532" y="1458" type="line"/>
      <point x="729" y="1458" type="line"/>
      <point x="418" y="973" type="line"/>
      <point x="729" y="0" type="line"/>
      <point x="555" y="0" type="line"/>
      <point x="303" y="793" type="line"/>
      <point x="264" y="729" type="line"/>
      <point x="264" y="0" type="line"/>
    </contour>
  </outline>
</glyph>
<glyph name="L" format="1">
  <advance width="718"/>
  <unicode hex="004C"/>
  <outline>
    <contour>
      <point x="96" y="0" type="line"/>
      <point x="96" y="1458" type="line"/>
      <point x="262" y="1458" type="line"/>
      <point x="262" y="166" type="line"/>
      <point x="623" y="166" type="line"/>
      <point x="623" y="0" type="line"/>
    </contour>
  </outline>
</glyph>
<glyph name="M" format="1">
  <advance width="827"/>
  <unicode hex="004D"/>
  <outline>
    <contour>
      <point x="98" y="0" type="line"/>
      <point x="98" y="1458" type="line"/>
      <point x="264" y="1458" type="line"/>
      <point x="414" y="1198" type="line"/>
      <point x="563" y="1458" type="line"/>
      <point x="729" y="1458" type="line"/>
      <point x="729" y="0" type="line"/>
      <point x="563" y="0" type="line"/>
      <point x="563" y="1128" type="line"/>
      <point x="414" y="866" type="line"/>
      <point x="264" y="1128" type="line"/>
      <point x="264" y="0" type="line"/>
    </contour>
  </outline>
</glyph>
<glyph name="N" format="1">
  <advance width="827"/>
  <unicode hex="004E"/>
  <outline>
    <contour>
      <point x="98" y="0" type="line"/>
      <point x="98" y="1458" type="line"/>
      <point x="264" y="1458" type="line"/>
      <point x="563" y="905" type="line"/>
      <point x="563" y="1458" type="line"/>
      <point x="729" y="1458" type="line"/>
      <point x="729" y="0" type="line"/>
      <point x="563" y="0" type="line"/>
      <point x="563" y="559" type="line"/>
      <point x="264" y="1112" type="line"/>
      <point x="264" y="0" type="line"/>
    </contour>
  </outline>
</glyph>
<glyph name="P" format="1">
  <advance width="827"/>
  <unicode hex="0050"/>
  <outline>
    <contour>
      <point x="98" y="0" type="line"/>
      <point x="98" y="1458" type="line"/>
      <point x="414" y="1458" type="line" smooth="yes"/>
      <point x="480" y="1458"/>
      <point x="537" y="1434" type="qcurve" smooth="yes"/>
      <point x="592" y="1411"/>
      <point x="682" y="1321"/>
      <point x="705" y="1266" type="qcurve" smooth="yes"/>
      <point x="729" y="1209"/>
      <point x="729" y="1143" type="qcurve" smooth="yes"/>
      <point x="729" y="874" type="line" smooth="yes"/>
      <point x="729" y="809"/>
      <point x="681" y="695"/>
      <point x="637" y="651" type="qcurve" smooth="yes"/>
      <point x="594" y="608"/>
      <point x="537" y="584" type="qcurve" smooth="yes"/>
      <point x="478" y="559"/>
      <point x="414" y="559" type="qcurve" smooth="yes"/>
      <point x="264" y="559" type="line"/>
      <point x="264" y="0" type="line"/>
    </contour>
    <contour>
      <point x="264" y="725" type="line"/>
      <point x="414" y="725" type="line" smooth="yes"/>
      <point x="475" y="725"/>
      <point x="563" y="813"/>
      <point x="563" y="874" type="qcurve" smooth="yes"/>
      <point x="563" y="1143" type="line" smooth="yes"/>
      <point x="563" y="1205"/>
      <point x="519" y="1249" type="qcurve" smooth="yes"/>
      <point x="476" y="1292"/>
      <point x="414" y="1292" type="qcurve" smooth="yes"/>
      <point x="264" y="1292" type="line"/>
    </contour>
  </outline>
</glyph>
<glyph name="Q" format="1">
  <advance width="827"/>
  <unicode hex="0051"/>
  <outline>
    <contour>
      <point x="96" y="315" type="qcurve" smooth="yes"/>
      <point x="96" y="1171" type="line" smooth="yes"/>
      <point x="96" y="1235"/>
      <point x="148" y="1355"/>
      <point x="232" y="1439"/>
      <point x="350" y="1489"/>
      <point x="478" y="1489"/>
      <point x="537" y="1464" type="qcurve" smooth="yes"/>
      <point x="594" y="1440"/>
      <point x="637" y="1397" type="qcurve" smooth="yes"/>
      <point x="681" y="1353"/>
      <point x="705" y="1295" type="qcurve" smooth="yes"/>
      <point x="729" y="1236"/>
      <point x="729" y="1171" type="qcurve" smooth="yes"/>
      <point x="729" y="315" type="line" smooth="yes"/>
      <point x="729" y="204"/>
      <point x="662" y="119" type="qcurve"/>
      <point x="729" y="0" type="line"/>
      <point x="539" y="0" type="line"/>
      <point x="526" y="20" type="line"/>
      <point x="473" y="0"/>
      <point x="414" y="0" type="qcurve" smooth="yes"/>
      <point x="350" y="0"/>
      <point x="232" y="50"/>
      <point x="190" y="92" type="qcurve" smooth="yes"/>
      <point x="149" y="133"/>
      <point x="122" y="193" type="qcurve" smooth="yes"/>
      <point x="96" y="251"/>
    </contour>
    <contour>
      <point x="262" y="315" type="line" smooth="yes"/>
      <point x="262" y="254"/>
      <point x="350" y="166"/>
      <point x="414" y="166" type="qcurve" smooth="yes"/>
      <point x="427" y="166" type="line" smooth="yes"/>
      <point x="432" y="166"/>
      <point x="442" y="168" type="qcurve"/>
      <point x="356" y="315" type="line"/>
      <point x="547" y="315" type="line"/>
      <point x="561" y="291" type="line"/>
      <point x="563" y="299"/>
      <point x="563" y="315" type="qcurve" smooth="yes"/>
      <point x="563" y="1171" type="line" smooth="yes"/>
      <point x="563" y="1235"/>
      <point x="475" y="1323"/>
      <point x="414" y="1323" type="qcurve" smooth="yes"/>
      <point x="350" y="1323"/>
      <point x="262" y="1235"/>
      <point x="262" y="1171" type="qcurve" smooth="yes"/>
    </contour>
  </outline>
</glyph>
<glyph name="R" format="1">
  <advance width="827"/>
  <unicode hex="0052"/>
  <outline>
    <contour>
      <point x="98" y="0" type="line"/>
      <point x="98" y="1458" type="line"/>
      <point x="414" y="1458" type="line" smooth="yes"/>
      <point x="480" y="1458"/>
      <point x="537" y="1434" type="qcurve" smooth="yes"/>
      <point x="592" y="1411"/>
      <point x="682" y="1321"/>
      <point x="705" y="1266" type="qcurve" smooth="yes"/>
      <point x="729" y="1209"/>
      <point x="729" y="1143" type="qcurve" smooth="yes"/>
      <point x="729" y="874" type="line" smooth="yes"/>
      <point x="729" y="788"/>
      <point x="687" y="716" type="qcurve" smooth="yes"/>
      <point x="644" y="642"/>
      <point x="573" y="602" type="qcurve"/>
      <point x="729" y="0" type="line"/>
      <point x="559" y="0" type="line"/>
      <point x="414" y="559" type="line"/>
      <point x="264" y="559" type="line"/>
      <point x="264" y="0" type="line"/>
    </contour>
    <contour>
      <point x="264" y="725" type="line"/>
      <point x="414" y="725" type="line" smooth="yes"/>
      <point x="475" y="725"/>
      <point x="563" y="813"/>
      <point x="563" y="874" type="qcurve" smooth="yes"/>
      <point x="563" y="1143" type="line" smooth="yes"/>
      <point x="563" y="1205"/>
      <point x="519" y="1249" type="qcurve" smooth="yes"/>
      <point x="476" y="1292"/>
      <point x="414" y="1292" type="qcurve" smooth="yes"/>
      <point x="264" y="1292" type="line"/>
    </contour>
  </outline>
</glyph>
<glyph name="S" format="1">
  <advance width="827"/>
  <unicode hex="0053"/>
  <outline>
    <contour>
      <point x="98" y="287" type="qcurve"/>
      <point x="264" y="287" type="line"/>
      <point x="264" y="223"/>
      <point x="350" y="137"/>
      <point x="414" y="137" type="qcurve" smooth="yes"/>
      <point x="476" y="137"/>
      <point x="519" y="180" type="qcurve" smooth="yes"/>
      <point x="563" y="224"/>
      <point x="563" y="287" type="qcurve" smooth="yes"/>
      <point x="563" y="584" type="line" smooth="yes"/>
      <point x="563" y="646"/>
      <point x="519" y="690" type="qcurve" smooth="yes"/>
      <point x="476" y="733"/>
      <point x="414" y="733" type="qcurve" smooth="yes"/>
      <point x="360" y="733"/>
      <point x="314" y="754" type="qcurve" smooth="yes"/>
      <point x="267" y="775"/>
      <point x="201" y="841"/>
      <point x="180" y="888" type="qcurve" smooth="yes"/>
      <point x="160" y="932"/>
      <point x="160" y="987" type="qcurve" smooth="yes"/>
      <point x="160" y="1235" type="line" smooth="yes"/>
      <point x="160" y="1289"/>
      <point x="180" y="1333" type="qcurve" smooth="yes"/>
      <point x="202" y="1382"/>
      <point x="234" y="1414" type="qcurve" smooth="yes"/>
      <point x="267" y="1447"/>
      <point x="314" y="1468" type="qcurve" smooth="yes"/>
      <point x="360" y="1489"/>
      <point x="414" y="1489" type="qcurve" smooth="yes"/>
      <point x="464" y="1489"/>
      <point x="511" y="1468" type="qcurve" smooth="yes"/>
      <point x="560" y="1446"/>
      <point x="592" y="1414" type="qcurve" smooth="yes"/>
      <point x="626" y="1380"/>
      <point x="646" y="1333" type="qcurve" smooth="yes"/>
      <point x="666" y="1285"/>
      <point x="666" y="1235" type="qcurve"/>
      <point x="500" y="1235" type="line"/>
      <point x="500" y="1271"/>
      <point x="448" y="1323"/>
      <point x="414" y="1323" type="qcurve" smooth="yes"/>
      <point x="377" y="1323"/>
      <point x="351" y="1297" type="qcurve" smooth="yes"/>
      <point x="326" y="1272"/>
      <point x="326" y="1235" type="qcurve" smooth="yes"/>
      <point x="326" y="987" type="line" smooth="yes"/>
      <point x="326" y="950"/>
      <point x="351" y="925" type="qcurve" smooth="yes"/>
      <point x="377" y="899"/>
      <point x="414" y="899" type="qcurve" smooth="yes"/>
      <point x="478" y="899"/>
      <point x="537" y="874" type="qcurve" smooth="yes"/>
      <point x="594" y="850"/>
      <point x="637" y="807" type="qcurve" smooth="yes"/>
      <point x="682" y="762"/>
      <point x="705" y="707" type="qcurve" smooth="yes"/>
      <point x="729" y="650"/>
      <point x="729" y="584" type="qcurve" smooth="yes"/>
      <point x="729" y="287" type="line" smooth="yes"/>
      <point x="729" y="221"/>
      <point x="681" y="107"/>
      <point x="637" y="63" type="qcurve" smooth="yes"/>
      <point x="594" y="20"/>
      <point x="537" y="-4" type="qcurve" smooth="yes"/>
      <point x="478" y="-29"/>
      <point x="350" y="-29"/>
      <point x="232" y="21"/>
      <point x="148" y="105"/>
      <point x="98" y="223"/>
    </contour>
  </outline>
</glyph>
<glyph name="T" format="1">
  <advance width="778"/>
  <unicode hex="0054"/>
  <outline>
    <contour>
      <point x="98" y="1292" type="line"/>
      <point x="98" y="1458" type="line"/>
      <point x="680" y="1458" type="line"/>
      <point x="680" y="1292" type="line"/>
      <point x="471" y="1292" type="line"/>
      <point x="471" y="0" type="line"/>
      <point x="305" y="0" type="line"/>
      <point x="305" y="1292" type="line"/>
    </contour>
  </outline>
</glyph>
<glyph name="V" format="1">
  <advance width="827"/>
  <unicode hex="0056"/>
  <outline>
    <contour>
      <point x="96" y="1458" type="line"/>
      <point x="264" y="1458" type="line"/>
      <point x="414" y="530" type="line"/>
      <point x="561" y="1458" type="line"/>
      <point x="729" y="1458" type="line"/>
      <point x="496" y="0" type="line"/>
      <point x="332" y="0" type="line"/>
    </contour>
  </outline>
</glyph>
<glyph name="W" format="1">
  <advance width="972"/>
  <unicode hex="0057"/>
  <outline>
    <contour>
      <point x="96" y="1458" type="line"/>
      <point x="264" y="1458" type="line"/>
      <point x="367" y="383" type="line"/>
      <point x="485" y="711" type="line"/>
      <point x="606" y="383" type="line"/>
      <point x="709" y="1458" type="line"/>
      <point x="874" y="1458" type="line"/>
      <point x="733" y="0" type="line"/>
      <point x="569" y="0" type="line"/>
      <point x="485" y="227" type="line"/>
      <point x="403" y="0" type="line"/>
      <point x="238" y="0" type="line"/>
    </contour>
  </outline>
</glyph>
<glyph name="X" format="1">
  <advance width="827"/>
  <unicode hex="0058"/>
  <outline>
    <contour>
      <point x="96" y="0" type="line"/>
      <point x="328" y="729" type="line"/>
      <point x="96" y="1458" type="line"/>
      <point x="270" y="1458" type="line"/>
      <point x="414" y="1006" type="line"/>
      <point x="557" y="1458" type="line"/>
      <point x="729" y="1458" type="line"/>
      <point x="500" y="729" type="line"/>
      <point x="729" y="0" type="line"/>
      <point x="557" y="0" type="line"/>
      <point x="414" y="455" type="line"/>
      <point x="270" y="0" type="line"/>
    </contour>
  </outline>
</glyph>
<glyph name="Y" format="1">
  <advance width="827"/>
  <unicode hex="0059"/>
  <outline>
    <contour>
      <point x="98" y="1458" type="line"/>
      <point x="270" y="1458" type="line"/>
      <point x="414" y="1014" type="line"/>
      <point x="555" y="1458" type="line"/>
      <point x="729" y="1458" type="line"/>
      <point x="496" y="729" type="line"/>
      <point x="496" y="0" type="line"/>
      <point x="330" y="0" type="line"/>
      <point x="330" y="729" type="line"/>
    </contour>
  </outline>
</glyph>
<glyph name="Z" format="1">
  <advance width="827"/>
  <unicode hex="005A"/>
  <outline>
    <contour>
      <point x="96" y="0" type="line"/>
      <point x="96" y="166" type="line"/>
      <point x="551" y="1292" type="line"/>
      <point x="96" y="1292" type="line"/>
      <point x="96" y="1458" type="line"/>
      <point x="729" y="1458" type="line"/>
      <point x="729" y="1292" type="line"/>
      <point x="274" y="166" type="line"/>
      <point x="729" y="166" type="line"/>
      <point x="729" y="0" type="line"/>
    </contour>
  </outline>
</glyph>
<glyph name="bracketleft" format="1">
  <advance width="454"/>
  <unicode hex="005B"/>
  <outline>
    <contour>
      <point x="143" y="-205" type="line"/>
      <point x="143" y="1458" type="line"/>
      <point x="414" y="1458" type="line"/>
      <point x="414" y="1384" type="line"/>
      <point x="276" y="1384" type="line"/>
      <point x="276" y="-131" type="line"/>
      <point x="414" y="-131" type="line"/>
      <point x="414" y="-205" type="line"/>
    </contour>
  </outline>
</glyph>
<glyph name="backslash" format="1">
  <advance width="454"/>
  <unicode hex="005C"/>
  <outline>
    <contour>
      <point x="41" y="1470" type="line"/>
      <point x="154" y="1470" type="line"/>
      <point x="414" y="-12" type="line"/>
      <point x="301" y="-12" type="line"/>
    </contour>
  </outline>
</glyph>
<glyph name="bracketright" format="1">
  <advance width="454"/>
  <unicode hex="005D"/>
  <outline>
    <contour>
      <point x="41" y="-131" type="line"/>
      <point x="178" y="-131" type="line"/>
      <point x="178" y="1384" type="line"/>
      <point x="41" y="1384" type="line"/>
      <point x="41" y="1458" type="line"/>
      <point x="311" y="1458" type="line"/>
      <point x="311" y="-205" type="line"/>
      <point x="41" y="-205" type="line"/>
    </contour>
  </outline>
</glyph>
<glyph name="asciicircum" format="1">
  <advance width="1228"/>
  <unicode hex="005E"/>
  <outline>
    <contour>
      <point x="143" y="580" type="line"/>
      <point x="563" y="1458" type="line"/>
      <point x="666" y="1458" type="line"/>
      <point x="1085" y="580" type="line"/>
      <point x="979" y="580" type="line"/>
      <point x="614" y="1350" type="line"/>
      <point x="250" y="580" type="line"/>
    </contour>
  </outline>
</glyph>
<glyph name="underscore" format="1">
  <advance width="1024"/>
  <unicode hex="005F"/>
  <outline>
    <contour>
      <point x="25" y="-154" type="line"/>
      <point x="999" y="-154" type="line"/>
      <point x="999" y="-256" type="line"/>
      <point x="25" y="-256" type="line"/>
    </contour>
  </outline>
</glyph>
<glyph name="grave" format="1">
  <advance width="706"/>
  <unicode hex="0060"/>
  <outline>
    <contour>
      <point x="387" y="1516" type="line"/>
      <point x="489" y="1618" type="line"/>
      <point x="686" y="1421" type="line"/>
      <point x="614" y="1350" type="line"/>
    </contour>
  </outline>
</glyph>
<glyph name="a" format="1">
  <advance width="890"/>
  <unicode hex="0061"/>
  <outline>
    <contour>
      <point x="55" y="389" type="qcurve" smooth="yes"/>
      <point x="55" y="468"/>
      <point x="84" y="540" type="qcurve" smooth="yes"/>
      <point x="112" y="609"/>
      <point x="163" y="663" type="qcurve" smooth="yes"/>
      <point x="211" y="713"/>
      <point x="280" y="745" type="qcurve" smooth="yes"/>
      <point x="348" y="776"/>
      <point x="422" y="776" type="qcurve" smooth="yes"/>
      <point x="463" y="776"/>
      <point x="500" y="765" type="qcurve" smooth="yes"/>
      <point x="547" y="751"/>
      <point x="610" y="725" type="qcurve"/>
      <point x="610" y="874" type="line" smooth="yes"/>
      <point x="610" y="946"/>
      <point x="563" y="996" type="qcurve" smooth="yes"/>
      <point x="515" y="1047"/>
      <point x="451" y="1047" type="qcurve" smooth="yes"/>
      <point x="394" y="1047"/>
      <point x="350" y="1009" type="qcurve" smooth="yes"/>
      <point x="307" y="972"/>
      <point x="295" y="913" type="qcurve"/>
      <point x="117" y="913" type="line"/>
      <point x="123" y="979"/>
      <point x="152" y="1039" type="qcurve" smooth="yes"/>
      <point x="181" y="1098"/>
      <point x="225" y="1141" type="qcurve" smooth="yes"/>
      <point x="268" y="1183"/>
      <point x="328" y="1208" type="qcurve" smooth="yes"/>
      <point x="387" y="1233"/>
      <point x="451" y="1233" type="qcurve" smooth="yes"/>
      <point x="518" y="1233"/>
      <point x="582" y="1205" type="qcurve" smooth="yes"/>
      <point x="642" y="1179"/>
      <point x="734" y="1077"/>
      <point x="760" y="1014" type="qcurve" smooth="yes"/>
      <point x="786" y="950"/>
      <point x="786" y="874" type="qcurve" smooth="yes"/>
      <point x="786" y="0" type="line"/>
      <point x="610" y="0" type="line"/>
      <point x="610" y="53" type="line"/>
      <point x="544" y="21"/>
      <point x="500" y="10" type="qcurve" smooth="yes"/>
      <point x="461" y="0"/>
      <point x="422" y="0" type="qcurve" smooth="yes"/>
      <point x="348" y="0"/>
      <point x="212" y="62"/>
      <point x="163" y="114" type="qcurve" smooth="yes"/>
      <point x="111" y="169"/>
      <point x="84" y="238" type="qcurve" smooth="yes"/>
      <point x="55" y="311"/>
    </contour>
    <contour>
      <point x="231" y="389" type="qcurve" smooth="yes"/>
      <point x="231" y="351"/>
      <point x="247" y="311" type="qcurve" smooth="yes"/>
      <point x="261" y="275"/>
      <point x="288" y="247" type="qcurve" smooth="yes"/>
      <point x="314" y="219"/>
      <point x="348" y="203" type="qcurve" smooth="yes"/>
      <point x="384" y="186"/>
      <point x="422" y="186" type="qcurve" smooth="yes"/>
      <point x="459" y="186"/>
      <point x="495" y="203" type="qcurve" smooth="yes"/>
      <point x="527" y="218"/>
      <point x="554" y="247" type="qcurve" smooth="yes"/>
      <point x="581" y="275"/>
      <point x="595" y="311" type="qcurve" smooth="yes"/>
      <point x="610" y="348"/>
      <point x="610" y="389" type="qcurve" smooth="yes"/>
      <point x="610" y="428"/>
      <point x="595" y="465" type="qcurve" smooth="yes"/>
      <point x="581" y="501"/>
      <point x="554" y="529" type="qcurve" smooth="yes"/>
      <point x="527" y="558"/>
      <point x="495" y="573" type="qcurve" smooth="yes"/>
      <point x="459" y="590"/>
      <point x="422" y="590" type="qcurve" smooth="yes"/>
      <point x="384" y="590"/>
      <point x="348" y="573" type="qcurve" smooth="yes"/>
      <point x="314" y="557"/>
      <point x="288" y="529" type="qcurve" smooth="yes"/>
      <point x="261" y="501"/>
      <point x="247" y="465" type="qcurve" smooth="yes"/>
      <point x="231" y="425"/>
    </contour>
  </outline>
</glyph>
<glyph name="b" format="1">
  <advance width="829"/>
  <unicode hex="0062"/>
  <outline>
    <contour>
      <point x="78" y="0" type="line"/>
      <point x="78" y="1458" type="line"/>
      <point x="254" y="1458" type="line"/>
      <point x="254" y="1159" type="line"/>
      <point x="321" y="1184"/>
      <point x="351" y="1191" type="qcurve" smooth="yes"/>
      <point x="383" y="1198"/>
      <point x="416" y="1198" type="qcurve" smooth="yes"/>
      <point x="484" y="1198"/>
      <point x="546" y="1170" type="qcurve" smooth="yes"/>
      <point x="606" y="1143"/>
      <point x="651" y="1095" type="qcurve" smooth="yes"/>
      <point x="695" y="1048"/>
      <point x="723" y="983" type="qcurve" smooth="yes"/>
      <point x="750" y="920"/>
      <point x="750" y="846" type="qcurve" smooth="yes"/>
      <point x="750" y="354" type="line" smooth="yes"/>
      <point x="750" y="280"/>
      <point x="723" y="216" type="qcurve" smooth="yes"/>
      <point x="696" y="151"/>
      <point x="606" y="55"/>
      <point x="546" y="28" type="qcurve" smooth="yes"/>
      <point x="484" y="0"/>
      <point x="416" y="0" type="qcurve" smooth="yes"/>
      <point x="384" y="0"/>
      <point x="352" y="7" type="qcurve" smooth="yes"/>
      <point x="312" y="16"/>
      <point x="254" y="35" type="qcurve"/>
      <point x="254" y="0" type="line"/>
    </contour>
    <contour>
      <point x="254" y="354" type="line" smooth="yes"/>
      <point x="254" y="283"/>
      <point x="301" y="233" type="qcurve" smooth="yes"/>
      <point x="347" y="184"/>
      <point x="416" y="184" type="qcurve" smooth="yes"/>
      <point x="481" y="184"/>
      <point x="573" y="282"/>
      <point x="573" y="354" type="qcurve" smooth="yes"/>
      <point x="573" y="846" type="line" smooth="yes"/>
      <point x="573" y="917"/>
      <point x="527" y="964" type="qcurve" smooth="yes"/>
      <point x="480" y="1012"/>
      <point x="416" y="1012" type="qcurve" smooth="yes"/>
      <point x="348" y="1012"/>
      <point x="301" y="964" type="qcurve" smooth="yes"/>
      <point x="254" y="915"/>
      <point x="254" y="846" type="qcurve" smooth="yes"/>
    </contour>
  </outline>
</glyph>
<glyph name="c" format="1">
  <advance width="829"/>
  <unicode hex="0063"/>
  <outline>
    <contour>
      <point x="80" y="334" type="qcurve" smooth="yes"/>
      <point x="80" y="877" type="line" smooth="yes"/>
      <point x="80" y="953"/>
      <point x="106" y="1015" type="qcurve" smooth="yes"/>
      <point x="132" y="1078"/>
      <point x="178" y="1128" type="qcurve" smooth="yes"/>
      <point x="223" y="1178"/>
      <point x="285" y="1205" type="qcurve" smooth="yes"/>
      <point x="349" y="1233"/>
      <point x="416" y="1233" type="qcurve" smooth="yes"/>
      <point x="477" y="1233"/>
      <point x="538" y="1208" type="qcurve" smooth="yes"/>
      <point x="597" y="1184"/>
      <point x="641" y="1141" type="qcurve" smooth="yes"/>
      <point x="687" y="1097"/>
      <point x="715" y="1039" type="qcurve" smooth="yes"/>
      <point x="744" y="979"/>
      <point x="750" y="913" type="qcurve"/>
      <point x="571" y="913" type="line"/>
      <point x="559" y="972"/>
      <point x="516" y="1009" type="qcurve" smooth="yes"/>
      <point x="472" y="1047"/>
      <point x="416" y="1047" type="qcurve" smooth="yes"/>
      <point x="350" y="1047"/>
      <point x="302" y="996" type="qcurve" smooth="yes"/>
      <point x="256" y="947"/>
      <point x="256" y="877" type="qcurve" smooth="yes"/>
      <point x="256" y="334" type="line" smooth="yes"/>
      <point x="256" y="263"/>
      <point x="302" y="214" type="qcurve" smooth="yes"/>
      <point x="349" y="164"/>
      <point x="416" y="164" type="qcurve" smooth="yes"/>
      <point x="472" y="164"/>
      <point x="516" y="203" type="qcurve" smooth="yes"/>
      <point x="559" y="242"/>
      <point x="571" y="297" type="qcurve"/>
      <point x="750" y="297" type="line"/>
      <point x="744" y="231"/>
      <point x="715" y="171" type="qcurve" smooth="yes"/>
      <point x="688" y="115"/>
      <point x="641" y="70" type="qcurve" smooth="yes"/>
      <point x="595" y="25"/>
      <point x="538" y="2" type="qcurve" smooth="yes"/>
      <point x="477" y="-23"/>
      <point x="416" y="-23" type="qcurve" smooth="yes"/>
      <point x="348" y="-23"/>
      <point x="285" y="6" type="qcurve" smooth="yes"/>
      <point x="223" y="35"/>
      <point x="133" y="131"/>
      <point x="106" y="196" type="qcurve" smooth="yes"/>
      <point x="80" y="258"/>
    </contour>
  </outline>
</glyph>
<glyph name="f" format="1">
  <advance width="743"/>
  <unicode hex="0066"/>
  <outline>
    <contour>
      <point x="80" y="0" type="line"/>
      <point x="80" y="1126" type="line" smooth="yes"/>
      <point x="80" y="1203"/>
      <point x="106" y="1265" type="qcurve" smooth="yes"/>
      <point x="133" y="1329"/>
      <point x="178" y="1377" type="qcurve" smooth="yes"/>
      <point x="224" y="1426"/>
      <point x="285" y="1453" type="qcurve" smooth="yes"/>
      <point x="349" y="1481"/>
      <point x="416" y="1481" type="qcurve" smooth="yes"/>
      <point x="477" y="1481"/>
      <point x="538" y="1456" type="qcurve" smooth="yes"/>
      <point x="596" y="1432"/>
      <point x="686" y="1348"/>
      <point x="744" y="1232"/>
      <point x="750" y="1165" type="qcurve"/>
      <point x="573" y="1165" type="line"/>
      <point x="561" y="1222"/>
      <point x="517" y="1260" type="qcurve" smooth="yes"/>
      <point x="475" y="1296"/>
      <point x="416" y="1296" type="qcurve" smooth="yes"/>
      <point x="349" y="1296"/>
      <point x="302" y="1246" type="qcurve" smooth="yes"/>
      <point x="256" y="1197"/>
      <point x="256" y="1126" type="qcurve" smooth="yes"/>
      <point x="256" y="821" type="line"/>
      <point x="506" y="821" type="line"/>
      <point x="506" y="637" type="line"/>
      <point x="256" y="637" type="line"/>
      <point x="256" y="0" type="line"/>
    </contour>
  </outline>
</glyph>
<glyph name="g" format="1">
  <advance width="843"/>
  <unicode hex="0067"/>
  <outline>
    <contour>
      <point x="78" y="371" type="qcurve" smooth="yes"/>
      <point x="78" y="860" type="line" smooth="yes"/>
      <point x="78" y="934"/>
      <point x="104" y="995" type="qcurve" smooth="yes"/>
      <point x="132" y="1061"/>
      <point x="177" y="1107" type="qcurve" smooth="yes"/>
      <point x="225" y="1157"/>
      <point x="285" y="1183" type="qcurve" smooth="yes"/>
      <point x="346" y="1210"/>
      <point x="416" y="1210" type="qcurve" smooth="yes"/>
      <point x="446" y="1210"/>
      <point x="478" y="1203" type="qcurve" smooth="yes"/>
      <point x="517" y="1195"/>
      <point x="573" y="1174" type="qcurve"/>
      <point x="573" y="1210" type="line"/>
      <point x="750" y="1210" type="line"/>
      <point x="750" y="-20" type="line" smooth="yes"/>
      <point x="750" y="-93"/>
      <point x="696" y="-221"/>
      <point x="651" y="-269" type="qcurve" smooth="yes"/>
      <point x="604" y="-319"/>
      <point x="546" y="-345" type="qcurve" smooth="yes"/>
      <point x="484" y="-373"/>
      <point x="416" y="-373" type="qcurve" smooth="yes"/>
      <point x="359" y="-373"/>
      <point x="302" y="-351" type="qcurve" smooth="yes"/>
      <point x="247" y="-330"/>
      <point x="203" y="-293" type="qcurve"/>
      <point x="330" y="-162" type="line"/>
      <point x="368" y="-188"/>
      <point x="416" y="-188" type="qcurve" smooth="yes"/>
      <point x="480" y="-188"/>
      <point x="527" y="-138" type="qcurve" smooth="yes"/>
      <point x="573" y="-89"/>
      <point x="573" y="-20" type="qcurve" smooth="yes"/>
      <point x="573" y="53" type="line"/>
      <point x="513" y="31"/>
      <point x="478" y="25" type="qcurve" smooth="yes"/>
      <point x="438" y="18"/>
      <point x="416" y="18" type="qcurve" smooth="yes"/>
      <point x="349" y="18"/>
      <point x="285" y="46" type="qcurve" smooth="yes"/>
      <point x="226" y="72"/>
      <point x="177" y="121" type="qcurve" smooth="yes"/>
      <point x="131" y="167"/>
      <point x="104" y="232" type="qcurve" smooth="yes"/>
      <point x="78" y="294"/>
    </contour>
    <contour>
      <point x="254" y="371" type="line" smooth="yes"/>
      <point x="254" y="300"/>
      <point x="301" y="251" type="qcurve" smooth="yes"/>
      <point x="348" y="203"/>
      <point x="416" y="203" type="qcurve" smooth="yes"/>
      <point x="480" y="203"/>
      <point x="527" y="251" type="qcurve" smooth="yes"/>
      <point x="573" y="298"/>
      <point x="573" y="371" type="qcurve" smooth="yes"/>
      <point x="573" y="860" type="line" smooth="yes"/>
      <point x="573" y="928"/>
      <point x="481" y="1026"/>
      <point x="416" y="1026" type="qcurve" smooth="yes"/>
      <point x="348" y="1026"/>
      <point x="301" y="978" type="qcurve" smooth="yes"/>
      <point x="254" y="929"/>
      <point x="254" y="860" type="qcurve" smooth="yes"/>
    </contour>
  </outline>
</glyph>
<glyph name="h" format="1">
  <advance width="829"/>
  <unicode hex="0068"/>
  <outline>
    <contour>
      <point x="78" y="0" type="line"/>
      <point x="78" y="1458" type="line"/>
      <point x="254" y="1458" type="line"/>
      <point x="254" y="1159" type="line"/>
      <point x="321" y="1184"/>
      <point x="351" y="1191" type="qcurve" smooth="yes"/>
      <point x="383" y="1198"/>
      <point x="416" y="1198" type="qcurve" smooth="yes"/>
      <point x="484" y="1198"/>
      <point x="546" y="1170" type="qcurve" smooth="yes"/>
      <point x="606" y="1143"/>
      <point x="651" y="1095" type="qcurve" smooth="yes"/>
      <point x="695" y="1048"/>
      <point x="723" y="983" type="qcurve" smooth="yes"/>
      <point x="750" y="920"/>
      <point x="750" y="846" type="qcurve" smooth="yes"/>
      <point x="750" y="0" type="line"/>
      <point x="573" y="0" type="line"/>
      <point x="573" y="846" type="line" smooth="yes"/>
      <point x="573" y="917"/>
      <point x="527" y="964" type="qcurve" smooth="yes"/>
      <point x="480" y="1012"/>
      <point x="416" y="1012" type="qcurve" smooth="yes"/>
      <point x="348" y="1012"/>
      <point x="301" y="964" type="qcurve" smooth="yes"/>
      <point x="254" y="915"/>
      <point x="254" y="846" type="qcurve" smooth="yes"/>
      <point x="254" y="0" type="line"/>
    </contour>
  </outline>
</glyph>
<glyph name="i" format="1">
  <advance width="430"/>
  <unicode hex="0069"/>
  <outline>
    <contour>
      <point x="127" y="0" type="line"/>
      <point x="127" y="1198" type="line"/>
      <point x="303" y="1198" type="line"/>
      <point x="303" y="0" type="line"/>
    </contour>
    <contour>
      <point x="127" y="1403" type="line"/>
      <point x="127" y="1458" type="line"/>
      <point x="303" y="1458" type="line"/>
      <point x="303" y="1403" type="line"/>
    </contour>
  </outline>
</glyph>
<glyph name="j" format="1">
  <advance width="503"/>
  <unicode hex="006A"/>
  <outline>
    <contour>
      <point x="-195" y="-293" type="qcurve"/>
      <point x="-68" y="-164" type="line"/>
      <point x="-31" y="-188"/>
      <point x="18" y="-188" type="qcurve" smooth="yes"/>
      <point x="84" y="-188"/>
      <point x="176" y="-90"/>
      <point x="176" y="-23" type="qcurve" smooth="yes"/>
      <point x="176" y="1200" type="line"/>
      <point x="352" y="1200" type="line"/>
      <point x="352" y="-23" type="line" smooth="yes"/>
      <point x="352" y="-97"/>
      <point x="326" y="-159" type="qcurve" smooth="yes"/>
      <point x="299" y="-224"/>
      <point x="254" y="-270" type="qcurve" smooth="yes"/>
      <point x="207" y="-318"/>
      <point x="148" y="-345" type="qcurve" smooth="yes"/>
      <point x="86" y="-373"/>
      <point x="18" y="-373" type="qcurve" smooth="yes"/>
      <point x="-38" y="-373"/>
      <point x="-152" y="-329"/>
    </contour>
    <contour>
      <point x="176" y="1403" type="line"/>
      <point x="176" y="1458" type="line"/>
      <point x="352" y="1458" type="line"/>
      <point x="352" y="1403" type="line"/>
    </contour>
  </outline>
</glyph>
<glyph name="k" format="1">
  <advance width="843"/>
  <unicode hex="006B"/>
  <outline>
    <contour>
      <point x="82" y="0" type="line"/>
      <point x="82" y="1458" type="line"/>
      <point x="258" y="1458" type="line"/>
      <point x="258" y="885" type="line"/>
      <point x="539" y="1198" type="line"/>
      <point x="780" y="1198" type="line"/>
      <point x="432" y="809" type="line"/>
      <point x="805" y="0" type="line"/>
      <point x="610" y="0" type="line"/>
      <point x="258" y="764" type="line"/>
      <point x="258" y="0" type="line"/>
    </contour>
  </outline>
</glyph>
<glyph name="l" format="1">
  <advance width="430"/>
  <unicode hex="006C"/>
  <outline>
    <contour>
      <point x="127" y="0" type="line"/>
      <point x="127" y="1458" type="line"/>
      <point x="303" y="1458" type="line"/>
      <point x="303" y="0" type="line"/>
    </contour>
  </outline>
</glyph>
<glyph name="m" format="1">
  <advance width="1310"/>
  <unicode hex="006D"/>
  <outline>
    <contour>
      <point x="70" y="0" type="line"/>
      <point x="70" y="1210" type="line"/>
      <point x="246" y="1210" type="line"/>
      <point x="246" y="1171" type="line"/>
      <point x="311" y="1196"/>
      <point x="344" y="1203" type="qcurve" smooth="yes"/>
      <point x="376" y="1210"/>
      <point x="408" y="1210" type="qcurve" smooth="yes"/>
      <point x="474" y="1210"/>
      <point x="532" y="1184" type="qcurve" smooth="yes"/>
      <point x="594" y="1156"/>
      <point x="655" y="1098" type="qcurve"/>
      <point x="714" y="1156"/>
      <point x="777" y="1184" type="qcurve" smooth="yes"/>
      <point x="835" y="1210"/>
      <point x="903" y="1210" type="qcurve" smooth="yes"/>
      <point x="973" y="1210"/>
      <point x="1093" y="1156"/>
      <point x="1140" y="1106" type="qcurve" smooth="yes"/>
      <point x="1184" y="1059"/>
      <point x="1212" y="992" type="qcurve" smooth="yes"/>
      <point x="1239" y="928"/>
      <point x="1239" y="854" type="qcurve" smooth="yes"/>
      <point x="1239" y="0" type="line"/>
      <point x="1063" y="0" type="line"/>
      <point x="1063" y="854" type="line" smooth="yes"/>
      <point x="1063" y="925"/>
      <point x="1016" y="975" type="qcurve" smooth="yes"/>
      <point x="970" y="1024"/>
      <point x="903" y="1024" type="qcurve" smooth="yes"/>
      <point x="838" y="1024"/>
      <point x="790" y="975" type="qcurve" smooth="yes"/>
      <point x="741" y="924"/>
      <point x="741" y="854" type="qcurve" smooth="yes"/>
      <point x="741" y="0" type="line"/>
      <point x="565" y="0" type="line"/>
      <point x="565" y="854" type="line" smooth="yes"/>
      <point x="565" y="926"/>
      <point x="473" y="1024"/>
      <point x="408" y="1024" type="qcurve" smooth="yes"/>
      <point x="339" y="1024"/>
      <point x="293" y="975" type="qcurve" smooth="yes"/>
      <point x="246" y="925"/>
      <point x="246" y="854" type="qcurve" smooth="yes"/>
      <point x="246" y="0" type="line"/>
    </contour>
  </outline>
</glyph>
<glyph name="n" format="1">
  <advance width="829"/>
  <unicode hex="006E"/>
  <outline>
    <contour>
      <point x="78" y="0" type="line"/>
      <point x="78" y="1210" type="line"/>
      <point x="254" y="1210" type="line"/>
      <point x="254" y="1171" type="line"/>
      <point x="321" y="1196"/>
      <point x="351" y="1203" type="qcurve" smooth="yes"/>
      <point x="383" y="1210"/>
      <point x="416" y="1210" type="qcurve" smooth="yes"/>
      <point x="486" y="1210"/>
      <point x="546" y="1183" type="qcurve" smooth="yes"/>
      <point x="605" y="1156"/>
      <point x="651" y="1106" type="qcurve" smooth="yes"/>
      <point x="696" y="1056"/>
      <point x="750" y="928"/>
      <point x="750" y="854" type="qcurve" smooth="yes"/>
      <point x="750" y="0" type="line"/>
      <point x="575" y="0" type="line"/>
      <point x="575" y="854" type="line" smooth="yes"/>
      <point x="575" y="925"/>
      <point x="528" y="975" type="qcurve" smooth="yes"/>
      <point x="482" y="1024"/>
      <point x="416" y="1024" type="qcurve" smooth="yes"/>
      <point x="347" y="1024"/>
      <point x="301" y="975" type="qcurve" smooth="yes"/>
      <point x="254" y="925"/>
      <point x="254" y="854" type="qcurve" smooth="yes"/>
      <point x="254" y="0" type="line"/>
    </contour>
  </outline>
</glyph>
<glyph name="p" format="1">
  <advance width="829"/>
  <unicode hex="0070"/>
  <outline>
    <contour>
      <point x="78" y="-248" type="line"/>
      <point x="78" y="858" type="line"/>
      <point x="78" y="1210" type="line"/>
      <point x="254" y="1210" type="line"/>
      <point x="254" y="1171" type="line"/>
      <point x="321" y="1196"/>
      <point x="351" y="1203" type="qcurve" smooth="yes"/>
      <point x="383" y="1210"/>
      <point x="416" y="1210" type="qcurve" smooth="yes"/>
      <point x="486" y="1210"/>
      <point x="546" y="1183" type="qcurve" smooth="yes"/>
      <point x="604" y="1157"/>
      <point x="651" y="1107" type="qcurve" smooth="yes"/>
      <point x="695" y="1060"/>
      <point x="723" y="995" type="qcurve" smooth="yes"/>
      <point x="750" y="932"/>
      <point x="750" y="858" type="qcurve" smooth="yes"/>
      <point x="750" y="367" type="line" smooth="yes"/>
      <point x="750" y="292"/>
      <point x="696" y="164"/>
      <point x="651" y="116" type="qcurve" smooth="yes"/>
      <point x="604" y="66"/>
      <point x="546" y="40" type="qcurve" smooth="yes"/>
      <point x="484" y="12"/>
      <point x="416" y="12" type="qcurve" smooth="yes"/>
      <point x="384" y="12"/>
      <point x="352" y="19" type="qcurve" smooth="yes"/>
      <point x="312" y="28"/>
      <point x="254" y="47" type="qcurve"/>
      <point x="254" y="-248" type="line"/>
    </contour>
    <contour>
      <point x="254" y="367" type="line" smooth="yes"/>
      <point x="254" y="296"/>
      <point x="301" y="247" type="qcurve" smooth="yes"/>
      <point x="348" y="199"/>
      <point x="416" y="199" type="qcurve" smooth="yes"/>
      <point x="481" y="199"/>
      <point x="573" y="297"/>
      <point x="573" y="367" type="qcurve" smooth="yes"/>
      <point x="573" y="858" type="line" smooth="yes"/>
      <point x="573" y="928"/>
      <point x="481" y="1026"/>
      <point x="416" y="1026" type="qcurve" smooth="yes"/>
      <point x="347" y="1026"/>
      <point x="301" y="977" type="qcurve" smooth="yes"/>
      <point x="254" y="927"/>
      <point x="254" y="858" type="qcurve" smooth="yes"/>
    </contour>
  </outline>
</glyph>
<glyph name="q" format="1">
  <advance width="829"/>
  <unicode hex="0071"/>
  <outline>
    <contour>
      <point x="78" y="367" type="qcurve" smooth="yes"/>
      <point x="78" y="858" type="line" smooth="yes"/>
      <point x="78" y="934"/>
      <point x="104" y="995" type="qcurve" smooth="yes"/>
      <point x="132" y="1061"/>
      <point x="177" y="1107" type="qcurve" smooth="yes"/>
      <point x="225" y="1157"/>
      <point x="285" y="1183" type="qcurve" smooth="yes"/>
      <point x="346" y="1210"/>
      <point x="416" y="1210" type="qcurve" smooth="yes"/>
      <point x="446" y="1210"/>
      <point x="478" y="1203" type="qcurve" smooth="yes"/>
      <point x="507" y="1197"/>
      <point x="573" y="1171" type="qcurve"/>
      <point x="573" y="1210" type="line"/>
      <point x="750" y="1210" type="line"/>
      <point x="750" y="-248" type="line"/>
      <point x="573" y="-248" type="line"/>
      <point x="573" y="47" type="line"/>
      <point x="514" y="27"/>
      <point x="478" y="19" type="qcurve" smooth="yes"/>
      <point x="446" y="12"/>
      <point x="416" y="12" type="qcurve" smooth="yes"/>
      <point x="349" y="12"/>
      <point x="285" y="40" type="qcurve" smooth="yes"/>
      <point x="225" y="66"/>
      <point x="177" y="116" type="qcurve" smooth="yes"/>
      <point x="131" y="163"/>
      <point x="104" y="228" type="qcurve" smooth="yes"/>
      <point x="78" y="290"/>
    </contour>
    <contour>
      <point x="254" y="367" type="line" smooth="yes"/>
      <point x="254" y="296"/>
      <point x="301" y="247" type="qcurve" smooth="yes"/>
      <point x="348" y="199"/>
      <point x="416" y="199" type="qcurve" smooth="yes"/>
      <point x="481" y="199"/>
      <point x="573" y="297"/>
      <point x="573" y="367" type="qcurve" smooth="yes"/>
      <point x="573" y="858" type="line" smooth="yes"/>
      <point x="573" y="928"/>
      <point x="481" y="1026"/>
      <point x="416" y="1026" type="qcurve" smooth="yes"/>
      <point x="347" y="1026"/>
      <point x="301" y="977" type="qcurve" smooth="yes"/>
      <point x="254" y="927"/>
      <point x="254" y="858" type="qcurve" smooth="yes"/>
    </contour>
  </outline>
</glyph>
<glyph name="r" format="1">
  <advance width="722"/>
  <unicode hex="0072"/>
  <outline>
    <contour>
      <point x="80" y="0" type="line"/>
      <point x="80" y="1210" type="line"/>
      <point x="256" y="1210" type="line"/>
      <point x="256" y="1171" type="line"/>
      <point x="320" y="1196"/>
      <point x="384" y="1210"/>
      <point x="416" y="1210" type="qcurve" smooth="yes"/>
      <point x="480" y="1210"/>
      <point x="538" y="1186" type="qcurve" smooth="yes"/>
      <point x="595" y="1163"/>
      <point x="687" y="1073"/>
      <point x="715" y="1018" type="qcurve" smooth="yes"/>
      <point x="744" y="960"/>
      <point x="750" y="893" type="qcurve"/>
      <point x="571" y="893" type="line"/>
      <point x="559" y="949"/>
      <point x="516" y="986" type="qcurve" smooth="yes"/>
      <point x="472" y="1024"/>
      <point x="416" y="1024" type="qcurve" smooth="yes"/>
      <point x="349" y="1024"/>
      <point x="302" y="974" type="qcurve" smooth="yes"/>
      <point x="256" y="925"/>
      <point x="256" y="854" type="qcurve" smooth="yes"/>
      <point x="256" y="0" type="line"/>
    </contour>
  </outline>
</glyph>
<glyph name="s" format="1">
  <advance width="841"/>
  <unicode hex="0073"/>
  <outline>
    <contour>
      <point x="41" y="328" type="qcurve"/>
      <point x="217" y="328" type="line"/>
      <point x="233" y="257"/>
      <point x="284" y="211" type="qcurve" smooth="yes"/>
      <point x="337" y="164"/>
      <point x="403" y="164" type="qcurve" smooth="yes"/>
      <point x="444" y="164"/>
      <point x="477" y="180" type="qcurve" smooth="yes"/>
      <point x="512" y="197"/>
      <point x="564" y="251"/>
      <point x="579" y="288" type="qcurve" smooth="yes"/>
      <point x="594" y="324"/>
      <point x="594" y="365" type="qcurve" smooth="yes"/>
      <point x="594" y="404"/>
      <point x="579" y="442" type="qcurve" smooth="yes"/>
      <point x="564" y="479"/>
      <point x="512" y="535"/>
      <point x="477" y="550" type="qcurve" smooth="yes"/>
      <point x="443" y="565"/>
      <point x="403" y="565" type="qcurve" smooth="yes"/>
      <point x="339" y="565"/>
      <point x="282" y="592" type="qcurve" smooth="yes"/>
      <point x="226" y="619"/>
      <point x="182" y="664" type="qcurve" smooth="yes"/>
      <point x="139" y="708"/>
      <point x="115" y="770" type="qcurve" smooth="yes"/>
      <point x="90" y="834"/>
      <point x="90" y="899" type="qcurve" smooth="yes"/>
      <point x="90" y="966"/>
      <point x="140" y="1092"/>
      <point x="182" y="1135" type="qcurve" smooth="yes"/>
      <point x="224" y="1179"/>
      <point x="282" y="1206" type="qcurve" smooth="yes"/>
      <point x="339" y="1233"/>
      <point x="403" y="1233" type="qcurve" smooth="yes"/>
      <point x="464" y="1233"/>
      <point x="519" y="1210" type="qcurve" smooth="yes"/>
      <point x="575" y="1187"/>
      <point x="615" y="1148" type="qcurve" smooth="yes"/>
      <point x="657" y="1107"/>
      <point x="684" y="1054" type="qcurve" smooth="yes"/>
      <point x="711" y="1000"/>
      <point x="717" y="938" type="qcurve"/>
      <point x="537" y="938" type="line"/>
      <point x="526" y="986"/>
      <point x="489" y="1016" type="qcurve" smooth="yes"/>
      <point x="450" y="1047"/>
      <point x="403" y="1047" type="qcurve" smooth="yes"/>
      <point x="349" y="1047"/>
      <point x="307" y="1002" type="qcurve" smooth="yes"/>
      <point x="266" y="958"/>
      <point x="266" y="899" type="qcurve" smooth="yes"/>
      <point x="266" y="839"/>
      <point x="307" y="796" type="qcurve" smooth="yes"/>
      <point x="348" y="754"/>
      <point x="403" y="754" type="qcurve" smooth="yes"/>
      <point x="478" y="754"/>
      <point x="614" y="692"/>
      <point x="663" y="640" type="qcurve" smooth="yes"/>
      <point x="713" y="587"/>
      <point x="741" y="516" type="qcurve" smooth="yes"/>
      <point x="770" y="443"/>
      <point x="770" y="365" type="qcurve" smooth="yes"/>
      <point x="770" y="286"/>
      <point x="741" y="214" type="qcurve" smooth="yes"/>
      <point x="712" y="144"/>
      <point x="663" y="91" type="qcurve" smooth="yes"/>
      <point x="614" y="39"/>
      <point x="478" y="-23"/>
      <point x="403" y="-23" type="qcurve" smooth="yes"/>
      <point x="332" y="-23"/>
      <point x="269" y="4" type="qcurve" smooth="yes"/>
      <point x="209" y="30"/>
      <point x="158" y="79" type="qcurve" smooth="yes"/>
      <point x="108" y="128"/>
      <point x="78" y="190" type="qcurve" smooth="yes"/>
      <point x="47" y="255"/>
    </contour>
  </outline>
</glyph>
<glyph name="t" format="1">
  <advance width="647"/>
  <unicode hex="0074"/>
  <outline>
    <contour>
      <point x="96" y="332" type="qcurve" smooth="yes"/>
      <point x="96" y="1458" type="line"/>
      <point x="272" y="1458" type="line"/>
      <point x="272" y="1198" type="line"/>
      <point x="522" y="1198" type="line"/>
      <point x="522" y="1012" type="line"/>
      <point x="272" y="1012" type="line"/>
      <point x="272" y="332" type="line" smooth="yes"/>
      <point x="272" y="261"/>
      <point x="318" y="212" type="qcurve" smooth="yes"/>
      <point x="365" y="162"/>
      <point x="432" y="162" type="qcurve" smooth="yes"/>
      <point x="455" y="162"/>
      <point x="479" y="170" type="qcurve" smooth="yes"/>
      <point x="501" y="177"/>
      <point x="520" y="190" type="qcurve"/>
      <point x="651" y="61" type="line"/>
      <point x="607" y="23"/>
      <point x="551" y="0" type="qcurve" smooth="yes"/>
      <point x="494" y="-23"/>
      <point x="432" y="-23" type="qcurve" smooth="yes"/>
      <point x="365" y="-23"/>
      <point x="301" y="5" type="qcurve" smooth="yes"/>
      <point x="242" y="31"/>
      <point x="195" y="81" type="qcurve" smooth="yes"/>
      <point x="150" y="129"/>
      <point x="123" y="194" type="qcurve" smooth="yes"/>
      <point x="96" y="258"/>
    </contour>
  </outline>
</glyph>
<glyph name="v" format="1">
  <advance width="780"/>
  <unicode hex="0076"/>
  <outline>
    <contour>
      <point x="61" y="1210" type="line"/>
      <point x="238" y="1210" type="line"/>
      <point x="391" y="418" type="line"/>
      <point x="545" y="1210" type="line"/>
      <point x="719" y="1210" type="line"/>
      <point x="487" y="0" type="line"/>
      <point x="295" y="0" type="line"/>
    </contour>
  </outline>
</glyph>
<glyph name="w" format="1">
  <advance width="1177"/>
  <unicode hex="0077"/>
  <outline>
    <contour>
      <point x="12" y="1210" type="line"/>
      <point x="186" y="1210" type="line"/>
      <point x="340" y="418" type="line"/>
      <point x="496" y="1210" type="line"/>
      <point x="682" y="1210" type="line"/>
      <point x="836" y="418" type="line"/>
      <point x="991" y="1210" type="line"/>
      <point x="1165" y="1210" type="line"/>
      <point x="932" y="0" type="line"/>
      <point x="741" y="0" type="line"/>
      <point x="588" y="799" type="line"/>
      <point x="436" y="0" type="line"/>
      <point x="246" y="0" type="line"/>
    </contour>
  </outline>
</glyph>
<glyph name="x" format="1">
  <advance width="741"/>
  <unicode hex="0078"/>
  <outline>
    <contour>
      <point x="51" y="0" type="line"/>
      <point x="276" y="606" type="line"/>
      <point x="51" y="1210" type="line"/>
      <point x="242" y="1210" type="line"/>
      <point x="373" y="862" type="line"/>
      <point x="502" y="1210" type="line"/>
      <point x="690" y="1210" type="line"/>
      <point x="467" y="606" type="line"/>
      <point x="690" y="0" type="line"/>
      <point x="502" y="0" type="line"/>
      <point x="373" y="348" type="line"/>
      <point x="242" y="0" type="line"/>
    </contour>
  </outline>
</glyph>
<glyph name="z" format="1">
  <advance width="829"/>
  <unicode hex="007A"/>
  <outline>
    <contour>
      <point x="78" y="0" type="line"/>
      <point x="78" y="215" type="line"/>
      <point x="559" y="1024" type="line"/>
      <point x="78" y="1024" type="line"/>
      <point x="78" y="1210" type="line"/>
      <point x="750" y="1210" type="line"/>
      <point x="750" y="995" type="line"/>
      <point x="270" y="186" type="line"/>
      <point x="750" y="186" type="line"/>
      <point x="750" y="0" type="line"/>
    </contour>
  </outline>
</glyph>
<glyph name="braceleft" format="1">
  <advance width="454"/>
  <unicode hex="007B"/>
  <outline>
    <contour>
      <point x="31" y="588" type="qcurve"/>
      <point x="31" y="670" type="line"/>
      <point x="96" y="685"/>
      <point x="129" y="758" type="qcurve" smooth="yes"/>
      <point x="162" y="832"/>
      <point x="162" y="930" type="qcurve" smooth="yes"/>
      <point x="162" y="1249" type="line" smooth="yes"/>
      <point x="162" y="1353"/>
      <point x="215" y="1406" type="qcurve" smooth="yes"/>
      <point x="267" y="1458"/>
      <point x="338" y="1458" type="qcurve" smooth="yes"/>
      <point x="424" y="1458" type="line"/>
      <point x="424" y="1384" type="line"/>
      <point x="412" y="1384" type="line" smooth="yes"/>
      <point x="345" y="1384"/>
      <point x="297" y="1284"/>
      <point x="297" y="1219" type="qcurve" smooth="yes"/>
      <point x="297" y="899" type="line" smooth="yes"/>
      <point x="297" y="829"/>
      <point x="271" y="743"/>
      <point x="249" y="713" type="qcurve" smooth="yes"/>
      <point x="230" y="687"/>
      <point x="203" y="670" type="qcurve" smooth="yes"/>
      <point x="181" y="656"/>
      <point x="154" y="651" type="qcurve"/>
      <point x="154" y="602" type="line"/>
      <point x="182" y="597"/>
      <point x="203" y="585" type="qcurve" smooth="yes"/>
      <point x="227" y="572"/>
      <point x="248" y="543" type="qcurve" smooth="yes"/>
      <point x="268" y="516"/>
      <point x="282" y="468" type="qcurve" smooth="yes"/>
      <point x="295" y="423"/>
      <point x="295" y="352" type="qcurve" smooth="yes"/>
      <point x="295" y="37" type="line" smooth="yes"/>
      <point x="295" y="-32"/>
      <point x="319" y="-81" type="qcurve" smooth="yes"/>
      <point x="343" y="-131"/>
      <point x="412" y="-131" type="qcurve" smooth="yes"/>
      <point x="424" y="-131" type="line"/>
      <point x="424" y="-205" type="line"/>
      <point x="338" y="-205" type="line" smooth="yes"/>
      <point x="268" y="-205"/>
      <point x="164" y="-101"/>
      <point x="164" y="4" type="qcurve" smooth="yes"/>
      <point x="164" y="322" type="line" smooth="yes"/>
      <point x="164" y="422"/>
      <point x="130" y="497" type="qcurve" smooth="yes"/>
      <point x="96" y="573"/>
    </contour>
  </outline>
</glyph>
<glyph name="bar" format="1">
  <advance width="454"/>
  <unicode hex="007C"/>
  <outline>
    <contour>
      <point x="170" y="-12" type="line"/>
      <point x="170" y="1470" type="line"/>
      <point x="285" y="1470" type="line"/>
      <point x="285" y="-12" type="line"/>
    </contour>
  </outline>
</glyph>
<glyph name="braceright" format="1">
  <advance width="454"/>
  <unicode hex="007D"/>
  <outline>
    <contour>
      <point x="31" y="-131" type="line"/>
      <point x="43" y="-131" type="line" smooth="yes"/>
      <point x="110" y="-131"/>
      <point x="134" y="-81" type="qcurve" smooth="yes"/>
      <point x="158" y="-32"/>
      <point x="158" y="37" type="qcurve" smooth="yes"/>
      <point x="158" y="352" type="line" smooth="yes"/>
      <point x="158" y="423"/>
      <point x="184" y="513"/>
      <point x="206" y="543" type="qcurve" smooth="yes"/>
      <point x="226" y="571"/>
      <point x="252" y="585" type="qcurve" smooth="yes"/>
      <point x="273" y="597"/>
      <point x="301" y="602" type="qcurve"/>
      <point x="301" y="651" type="line"/>
      <point x="274" y="656"/>
      <point x="252" y="670" type="qcurve" smooth="yes"/>
      <point x="227" y="685"/>
      <point x="187" y="741"/>
      <point x="173" y="786" type="qcurve" smooth="yes"/>
      <point x="160" y="829"/>
      <point x="160" y="899" type="qcurve" smooth="yes"/>
      <point x="160" y="1219" type="line" smooth="yes"/>
      <point x="160" y="1282"/>
      <point x="135" y="1334" type="qcurve" smooth="yes"/>
      <point x="111" y="1384"/>
      <point x="43" y="1384" type="qcurve" smooth="yes"/>
      <point x="31" y="1384" type="line"/>
      <point x="31" y="1458" type="line"/>
      <point x="117" y="1458" type="line" smooth="yes"/>
      <point x="187" y="1458"/>
      <point x="291" y="1354"/>
      <point x="291" y="1249" type="qcurve" smooth="yes"/>
      <point x="291" y="930" type="line" smooth="yes"/>
      <point x="291" y="830"/>
      <point x="325" y="758" type="qcurve" smooth="yes"/>
      <point x="359" y="685"/>
      <point x="424" y="670" type="qcurve"/>
      <point x="424" y="588" type="line"/>
      <point x="359" y="573"/>
      <point x="326" y="497" type="qcurve" smooth="yes"/>
      <point x="293" y="420"/>
      <point x="293" y="322" type="qcurve" smooth="yes"/>
      <point x="293" y="4" type="line" smooth="yes"/>
      <point x="293" y="-100"/>
      <point x="240" y="-153" type="qcurve" smooth="yes"/>
      <point x="188" y="-205"/>
      <point x="117" y="-205" type="qcurve" smooth="yes"/>
      <point x="31" y="-205" type="line"/>
    </contour>
  </outline>
</glyph>
<glyph name="asciitilde" format="1">
  <advance width="1228"/>
  <unicode hex="007E"/>
  <outline>
    <contour>
      <point x="170" y="487" type="line"/>
      <point x="186" y="520"/>
      <point x="208" y="555" type="qcurve" smooth="yes"/>
      <point x="227" y="584"/>
      <point x="257" y="613" type="qcurve" smooth="yes"/>
      <point x="285" y="639"/>
      <point x="319" y="654" type="qcurve" smooth="yes"/>
      <point x="356" y="670"/>
      <point x="397" y="670" type="qcurve" smooth="yes"/>
      <point x="452" y="670"/>
      <point x="572" y="616"/>
      <point x="629" y="586" type="qcurve" smooth="yes"/>
      <point x="738" y="528" type="line" smooth="yes"/>
      <point x="789" y="502"/>
      <point x="834" y="502" type="qcurve" smooth="yes"/>
      <point x="895" y="502"/>
      <point x="938" y="548" type="qcurve" smooth="yes"/>
      <point x="983" y="596"/>
      <point x="1012" y="647" type="qcurve"/>
      <point x="1059" y="547" type="line"/>
      <point x="1043" y="514"/>
      <point x="1021" y="479" type="qcurve" smooth="yes"/>
      <point x="1002" y="450"/>
      <point x="972" y="421" type="qcurve" smooth="yes"/>
      <point x="945" y="396"/>
      <point x="909" y="380" type="qcurve" smooth="yes"/>
      <point x="874" y="365"/>
      <point x="831" y="365" type="qcurve" smooth="yes"/>
      <point x="775" y="365"/>
      <point x="717" y="391" type="qcurve" smooth="yes"/>
      <point x="670" y="412"/>
      <point x="600" y="449" type="qcurve" smooth="yes"/>
      <point x="489" y="506" type="line" smooth="yes"/>
      <point x="438" y="532"/>
      <point x="395" y="532" type="qcurve" smooth="yes"/>
      <point x="364" y="532"/>
      <point x="338" y="519" type="qcurve" smooth="yes"/>
      <point x="310" y="505"/>
      <point x="290" y="485" type="qcurve" smooth="yes"/>
      <point x="264" y="459"/>
      <point x="250" y="438" type="qcurve" smooth="yes"/>
      <point x="232" y="411"/>
      <point x="217" y="387" type="qcurve"/>
    </contour>
  </outline>
</glyph>
<glyph name="exclamdown" format="1">
  <advance width="491"/>
  <unicode hex="00A1"/>
  <outline>
    <contour>
      <point x="141" y="-420" type="line"/>
      <point x="219" y="666" type="line"/>
      <point x="272" y="666" type="line"/>
      <point x="350" y="-420" type="line"/>
    </contour>
    <contour>
      <point x="166" y="874" type="line"/>
      <point x="166" y="1038" type="line"/>
      <point x="326" y="1038" type="line"/>
      <point x="326" y="874" type="line"/>
    </contour>
  </outline>
</glyph>
<glyph name="cent" format="1">
  <advance width="761"/>
  <unicode hex="00A2"/>
  <outline>
    <contour>
      <point x="94" y="336" type="qcurve" smooth="yes"/>
      <point x="94" y="700" type="line" smooth="yes"/>
      <point x="94" y="859"/>
      <point x="212" y="1029"/>
      <point x="360" y="1047" type="qcurve"/>
      <point x="360" y="1204" type="line"/>
      <point x="393" y="1204" type="line"/>
      <point x="393" y="1047" type="line"/>
      <point x="522" y="1036"/>
      <point x="591" y="957" type="qcurve" smooth="yes"/>
      <point x="660" y="877"/>
      <point x="666" y="754" type="qcurve"/>
      <point x="508" y="754" type="line"/>
      <point x="504" y="802"/>
      <point x="479" y="836" type="qcurve" smooth="yes"/>
      <point x="456" y="868"/>
      <point x="393" y="891" type="qcurve"/>
      <point x="393" y="147" type="line"/>
      <point x="454" y="169"/>
      <point x="500" y="237"/>
      <point x="506" y="266" type="qcurve"/>
      <point x="666" y="266" type="line"/>
      <point x="661" y="209"/>
      <point x="644" y="164" type="qcurve" smooth="yes"/>
      <point x="625" y="115"/>
      <point x="594" y="80" type="qcurve" smooth="yes"/>
      <point x="561" y="42"/>
      <point x="512" y="20" type="qcurve" smooth="yes"/>
      <point x="464" y="-2"/>
      <point x="395" y="-8" type="qcurve"/>
      <point x="395" y="-184" type="line"/>
      <point x="362" y="-184" type="line"/>
      <point x="362" y="-8" type="line"/>
      <point x="209" y="4"/>
      <point x="152" y="92" type="qcurve" smooth="yes"/>
      <point x="94" y="182"/>
    </contour>
    <contour>
      <point x="252" y="283" type="line" smooth="yes"/>
      <point x="252" y="236"/>
      <point x="276" y="203" type="qcurve" smooth="yes"/>
      <point x="300" y="169"/>
      <point x="360" y="147" type="qcurve"/>
      <point x="362" y="893" type="line"/>
      <point x="323" y="877"/>
      <point x="299" y="858" type="qcurve" smooth="yes"/>
      <point x="277" y="840"/>
      <point x="255" y="800"/>
      <point x="254" y="780" type="qcurve" smooth="yes"/>
      <point x="252" y="752"/>
      <point x="252" y="739" type="qcurve" smooth="yes"/>
    </contour>
  </outline>
</glyph>
<glyph name="sterling" format="1">
  <advance width="761"/>
  <unicode hex="00A3"/>
  <outline>
    <contour>
      <point x="51" y="633" type="line"/>
      <point x="51" y="731" type="line"/>
      <point x="182" y="731" type="line"/>
      <point x="156" y="779"/>
      <point x="137" y="823" type="qcurve" smooth="yes"/>
      <point x="122" y="857"/>
      <point x="108" y="904" type="qcurve" smooth="yes"/>
      <point x="95" y="947"/>
      <point x="91" y="985" type="qcurve" smooth="yes"/>
      <point x="86" y="1030"/>
      <point x="86" y="1079" type="qcurve" smooth="yes"/>
      <point x="86" y="1165"/>
      <point x="103" y="1232" type="qcurve" smooth="yes"/>
      <point x="121" y="1303"/>
      <point x="159" y="1356" type="qcurve" smooth="yes"/>
      <point x="198" y="1411"/>
      <point x="255" y="1440" type="qcurve" smooth="yes"/>
      <point x="314" y="1470"/>
      <point x="393" y="1470" type="qcurve" smooth="yes"/>
      <point x="438" y="1470"/>
      <point x="488" y="1452" type="qcurve" smooth="yes"/>
      <point x="539" y="1433"/>
      <point x="579" y="1395" type="qcurve" smooth="yes"/>
      <point x="616" y="1359"/>
      <point x="645" y="1295" type="qcurve" smooth="yes"/>
      <point x="672" y="1235"/>
      <point x="672" y="1151" type="qcurve" smooth="yes"/>
      <point x="672" y="1081" type="line"/>
      <point x="526" y="1081" type="line"/>
      <point x="526" y="1141" type="line" smooth="yes"/>
      <point x="526" y="1170"/>
      <point x="514" y="1232"/>
      <point x="499" y="1258" type="qcurve" smooth="yes"/>
      <point x="484" y="1284"/>
      <point x="457" y="1302" type="qcurve" smooth="yes"/>
      <point x="431" y="1319"/>
      <point x="387" y="1319" type="qcurve" smooth="yes"/>
      <point x="341" y="1319"/>
      <point x="310" y="1297" type="qcurve" smooth="yes"/>
      <point x="281" y="1277"/>
      <point x="263" y="1242" type="qcurve" smooth="yes"/>
      <point x="247" y="1212"/>
      <point x="239" y="1164" type="qcurve" smooth="yes"/>
      <point x="231" y="1118"/>
      <point x="231" y="1077" type="qcurve" smooth="yes"/>
      <point x="231" y="993"/>
      <point x="277" y="809"/>
      <point x="305" y="731" type="qcurve"/>
      <point x="537" y="731" type="line"/>
      <point x="537" y="633" type="line"/>
      <point x="334" y="633" type="line"/>
      <point x="338" y="622"/>
      <point x="348" y="592"/>
      <point x="355" y="571"/>
      <point x="358" y="563" type="qcurve" smooth="yes"/>
      <point x="371" y="530"/>
      <point x="374" y="515" type="qcurve" smooth="yes"/>
      <point x="380" y="487"/>
      <point x="381" y="473" type="qcurve" smooth="yes"/>
      <point x="383" y="445"/>
      <point x="383" y="420" type="qcurve" smooth="yes"/>
      <point x="383" y="360"/>
      <point x="341" y="244"/>
      <point x="301" y="168" type="qcurve"/>
      <point x="329" y="164"/>
      <point x="375" y="157" type="qcurve" smooth="yes"/>
      <point x="425" y="147" type="line" smooth="yes"/>
      <point x="446" y="143"/>
      <point x="466" y="141" type="qcurve" smooth="yes"/>
      <point x="492" y="139"/>
      <point x="510" y="139" type="qcurve" smooth="yes"/>
      <point x="545" y="139"/>
      <point x="578" y="148" type="qcurve" smooth="yes"/>
      <point x="610" y="157"/>
      <point x="645" y="195" type="qcurve"/>
      <point x="752" y="84" type="line"/>
      <point x="710" y="29"/>
      <point x="665" y="9" type="qcurve" smooth="yes"/>
      <point x="618" y="-12"/>
      <point x="557" y="-12" type="qcurve" smooth="yes"/>
      <point x="528" y="-12"/>
      <point x="483" y="-6" type="qcurve" smooth="yes"/>
      <point x="470" y="-4"/>
      <point x="389" y="8" type="qcurve" smooth="yes"/>
      <point x="382" y="9"/>
      <point x="311" y="21"/>
      <point x="292" y="23" type="qcurve" smooth="yes"/>
      <point x="244" y="29"/>
      <point x="209" y="29" type="qcurve" smooth="yes"/>
      <point x="172" y="29"/>
      <point x="137" y="22" type="qcurve" smooth="yes"/>
      <point x="119" y="18"/>
      <point x="72" y="6" type="qcurve"/>
      <point x="72" y="133" type="line"/>
      <point x="95" y="144"/>
      <point x="125" y="154" type="qcurve" smooth="yes"/>
      <point x="152" y="163"/>
      <point x="193" y="168" type="qcurve"/>
      <point x="260" y="268"/>
      <point x="260" y="377" type="qcurve" smooth="yes"/>
      <point x="260" y="431"/>
      <point x="246" y="494" type="qcurve" smooth="yes"/>
      <point x="230" y="567"/>
      <point x="205" y="633" type="qcurve"/>
    </contour>
  </outline>
</glyph>
<glyph name="currency" format="1">
  <advance width="761"/>
  <unicode hex="00A4"/>
  <outline>
    <contour>
      <point x="43" y="1040" type="line"/>
      <point x="92" y="1092" type="line"/>
      <point x="174" y="1001" type="line"/>
      <point x="266" y="1087"/>
      <point x="381" y="1087" type="qcurve" smooth="yes"/>
      <point x="493" y="1087"/>
      <point x="590" y="1001" type="qcurve"/>
      <point x="672" y="1092" type="line"/>
      <point x="719" y="1040" type="line"/>
      <point x="635" y="952" type="line"/>
      <point x="715" y="852"/>
      <point x="715" y="729" type="qcurve" smooth="yes"/>
      <point x="715" y="603"/>
      <point x="635" y="508" type="qcurve"/>
      <point x="717" y="420" type="line"/>
      <point x="670" y="369" type="line"/>
      <point x="586" y="457" type="line"/>
      <point x="500" y="371"/>
      <point x="262" y="371"/>
      <point x="174" y="459" type="qcurve"/>
      <point x="92" y="369" type="line"/>
      <point x="45" y="418" type="line"/>
      <point x="129" y="508" type="line"/>
      <point x="47" y="602"/>
      <point x="47" y="729" type="qcurve" smooth="yes"/>
      <point x="47" y="853"/>
      <point x="127" y="950" type="qcurve"/>
    </contour>
    <contour>
      <point x="131" y="729" type="qcurve" smooth="yes"/>
      <point x="131" y="675"/>
      <point x="151" y="626" type="qcurve" smooth="yes"/>
      <point x="171" y="576"/>
      <point x="204" y="542" type="qcurve" smooth="yes"/>
      <point x="241" y="504"/>
      <point x="283" y="484" type="qcurve" smooth="yes"/>
      <point x="328" y="463"/>
      <point x="381" y="463" type="qcurve" smooth="yes"/>
      <point x="432" y="463"/>
      <point x="477" y="484" type="qcurve" smooth="yes"/>
      <point x="519" y="504"/>
      <point x="556" y="542" type="qcurve" smooth="yes"/>
      <point x="589" y="576"/>
      <point x="609" y="626" type="qcurve" smooth="yes"/>
      <point x="630" y="677"/>
      <point x="631" y="729" type="qcurve" smooth="yes"/>
      <point x="631" y="784"/>
      <point x="611" y="833" type="qcurve" smooth="yes"/>
      <point x="591" y="881"/>
      <point x="558" y="916" type="qcurve" smooth="yes"/>
      <point x="521" y="955"/>
      <point x="478" y="974" type="qcurve" smooth="yes"/>
      <point x="432" y="995"/>
      <point x="381" y="995" type="qcurve" smooth="yes"/>
      <point x="328" y="995"/>
      <point x="283" y="974" type="qcurve" smooth="yes"/>
      <point x="241" y="954"/>
      <point x="204" y="916" type="qcurve" smooth="yes"/>
      <point x="171" y="881"/>
      <point x="151" y="833" type="qcurve" smooth="yes"/>
      <point x="131" y="784"/>
    </contour>
  </outline>
</glyph>
<glyph name="yen" format="1">
  <advance width="761"/>
  <unicode hex="00A5"/>
  <outline>
    <contour>
      <point x="43" y="1458" type="line"/>
      <point x="197" y="1458" type="line"/>
      <point x="358" y="858" type="line"/>
      <point x="403" y="858" type="line"/>
      <point x="565" y="1458" type="line"/>
      <point x="719" y="1458" type="line"/>
      <point x="477" y="696" type="line"/>
      <point x="688" y="696" type="line"/>
      <point x="688" y="608" type="line"/>
      <point x="453" y="608" type="line"/>
      <point x="453" y="453" type="line"/>
      <point x="688" y="453" type="line"/>
      <point x="688" y="365" type="line"/>
      <point x="455" y="365" type="line"/>
      <point x="455" y="0" type="line"/>
      <point x="309" y="0" type="line"/>
      <point x="309" y="365" type="line"/>
      <point x="74" y="365" type="line"/>
      <point x="74" y="453" type="line"/>
      <point x="309" y="453" type="line"/>
      <point x="309" y="608" type="line"/>
      <point x="74" y="608" type="line"/>
      <point x="74" y="696" type="line"/>
      <point x="285" y="696" type="line"/>
    </contour>
  </outline>
</glyph>
<glyph name="brokenbar" format="1">
  <advance width="380"/>
  <unicode hex="00A6"/>
  <outline>
    <contour>
      <point x="170" y="-12" type="line"/>
      <point x="170" y="518" type="line"/>
      <point x="285" y="518" type="line"/>
      <point x="285" y="-12" type="line"/>
    </contour>
    <contour>
      <point x="170" y="940" type="line"/>
      <point x="170" y="1470" type="line"/>
      <point x="285" y="1470" type="line"/>
      <point x="285" y="940" type="line"/>
    </contour>
  </outline>
</glyph>
<glyph name="section" format="1">
  <advance width="757"/>
  <unicode hex="00A7"/>
  <outline>
    <contour>
      <point x="92" y="530" type="qcurve" smooth="yes"/>
      <point x="92" y="615"/>
      <point x="100" y="676" type="qcurve" smooth="yes"/>
      <point x="107" y="732"/>
      <point x="134" y="771" type="qcurve" smooth="yes"/>
      <point x="160" y="810"/>
      <point x="205" y="835" type="qcurve" smooth="yes"/>
      <point x="251" y="861"/>
      <point x="324" y="885" type="qcurve"/>
      <point x="252" y="922"/>
      <point x="218" y="949" type="qcurve" smooth="yes"/>
      <point x="181" y="979"/>
      <point x="141" y="1043"/>
      <point x="137" y="1081" type="qcurve" smooth="yes"/>
      <point x="133" y="1116"/>
      <point x="133" y="1174" type="qcurve" smooth="yes"/>
      <point x="133" y="1251"/>
      <point x="175" y="1365"/>
      <point x="245" y="1435"/>
      <point x="292" y="1453" type="qcurve" smooth="yes"/>
      <point x="336" y="1470"/>
      <point x="389" y="1470" type="qcurve" smooth="yes"/>
      <point x="435" y="1470"/>
      <point x="480" y="1454" type="qcurve" smooth="yes"/>
      <point x="527" y="1437"/>
      <point x="561" y="1405" type="qcurve" smooth="yes"/>
      <point x="596" y="1372"/>
      <point x="618" y="1323" type="qcurve" smooth="yes"/>
      <point x="641" y="1272"/>
      <point x="641" y="1208" type="qcurve" smooth="yes"/>
      <point x="641" y="1137" type="line"/>
      <point x="518" y="1137" type="line"/>
      <point x="518" y="1200" type="line" smooth="yes"/>
      <point x="518" y="1225"/>
      <point x="510" y="1254" type="qcurve" smooth="yes"/>
      <point x="503" y="1281"/>
      <point x="486" y="1304" type="qcurve" smooth="yes"/>
      <point x="473" y="1322"/>
      <point x="446" y="1339" type="qcurve" smooth="yes"/>
      <point x="422" y="1354"/>
      <point x="389" y="1354" type="qcurve" smooth="yes"/>
      <point x="350" y="1354"/>
      <point x="322" y="1337" type="qcurve" smooth="yes"/>
      <point x="297" y="1321"/>
      <point x="281" y="1295" type="qcurve" smooth="yes"/>
      <point x="265" y="1268"/>
      <point x="261" y="1238" type="qcurve" smooth="yes"/>
      <point x="256" y="1203"/>
      <point x="256" y="1176" type="qcurve" smooth="yes"/>
      <point x="256" y="1134"/>
      <point x="259" y="1107" type="qcurve" smooth="yes"/>
      <point x="262" y="1078"/>
      <point x="273" y="1059" type="qcurve" smooth="yes"/>
      <point x="285" y="1038"/>
      <point x="306" y="1020" type="qcurve" smooth="yes"/>
      <point x="330" y="999"/>
      <point x="365" y="977" type="qcurve" smooth="yes"/>
      <point x="563" y="844" type="line" smooth="yes"/>
      <point x="593" y="823"/>
      <point x="615" y="800" type="qcurve" smooth="yes"/>
      <point x="633" y="781"/>
      <point x="646" y="745" type="qcurve" smooth="yes"/>
      <point x="657" y="714"/>
      <point x="662" y="663" type="qcurve" smooth="yes"/>
      <point x="666" y="619"/>
      <point x="666" y="530" type="qcurve" smooth="yes"/>
      <point x="666" y="471"/>
      <point x="660" y="407" type="qcurve" smooth="yes"/>
      <point x="655" y="358"/>
      <point x="635" y="323" type="qcurve" smooth="yes"/>
      <point x="613" y="286"/>
      <point x="571" y="258" type="qcurve" smooth="yes"/>
      <point x="528" y="230"/>
      <point x="453" y="193" type="qcurve"/>
      <point x="510" y="163"/>
      <point x="556" y="130" type="qcurve" smooth="yes"/>
      <point x="593" y="103"/>
      <point x="612" y="72" type="qcurve" smooth="yes"/>
      <point x="632" y="39"/>
      <point x="636" y="-1" type="qcurve" smooth="yes"/>
      <point x="641" y="-48"/>
      <point x="641" y="-104" type="qcurve" smooth="yes"/>
      <point x="641" y="-281"/>
      <point x="573" y="-357" type="qcurve" smooth="yes"/>
      <point x="506" y="-432"/>
      <point x="381" y="-432" type="qcurve" smooth="yes"/>
      <point x="303" y="-432"/>
      <point x="254" y="-406" type="qcurve" smooth="yes"/>
      <point x="203" y="-379"/>
      <point x="171" y="-338" type="qcurve" smooth="yes"/>
      <point x="140" y="-298"/>
      <point x="126" y="-249" type="qcurve" smooth="yes"/>
      <point x="113" y="-203"/>
      <point x="113" y="-158" type="qcurve" smooth="yes"/>
      <point x="113" y="-94" type="line"/>
      <point x="236" y="-94" type="line"/>
      <point x="236" y="-156" type="line" smooth="yes"/>
      <point x="236" y="-220"/>
      <point x="273" y="-267" type="qcurve" smooth="yes"/>
      <point x="310" y="-315"/>
      <point x="375" y="-315" type="qcurve" smooth="yes"/>
      <point x="454" y="-315"/>
      <point x="486" y="-264" type="qcurve" smooth="yes"/>
      <point x="518" y="-212"/>
      <point x="518" y="-125" type="qcurve" smooth="yes"/>
      <point x="518" y="-84"/>
      <point x="515" y="-55" type="qcurve" smooth="yes"/>
      <point x="512" y="-27"/>
      <point x="494" y="15"/>
      <point x="479" y="30" type="qcurve" smooth="yes"/>
      <point x="466" y="43"/>
      <point x="440" y="61" type="qcurve" smooth="yes"/>
      <point x="199" y="213" type="line" smooth="yes"/>
      <point x="163" y="234"/>
      <point x="141" y="260" type="qcurve" smooth="yes"/>
      <point x="124" y="280"/>
      <point x="110" y="321" type="qcurve" smooth="yes"/>
      <point x="98" y="357"/>
      <point x="95" y="407" type="qcurve" smooth="yes"/>
      <point x="92" y="456"/>
    </contour>
    <contour>
      <point x="250" y="434" type="line" smooth="yes"/>
      <point x="250" y="378"/>
      <point x="287" y="338" type="qcurve" smooth="yes"/>
      <point x="325" y="297"/>
      <point x="379" y="297" type="qcurve" smooth="yes"/>
      <point x="431" y="297"/>
      <point x="469" y="338" type="qcurve" smooth="yes"/>
      <point x="506" y="378"/>
      <point x="506" y="434" type="qcurve" smooth="yes"/>
      <point x="508" y="643" type="line" smooth="yes"/>
      <point x="508" y="698"/>
      <point x="432" y="780"/>
      <point x="379" y="780" type="qcurve" smooth="yes"/>
      <point x="325" y="780"/>
      <point x="287" y="739" type="qcurve" smooth="yes"/>
      <point x="250" y="699"/>
      <point x="250" y="643" type="qcurve" smooth="yes"/>
    </contour>
  </outline>
</glyph>
<glyph name="dieresis" format="1">
  <advance width="1648"/>
  <unicode hex="00A8"/>
  <outline>
    <contour>
      <point x="199" y="1473" type="line"/>
      <point x="199" y="1618" type="line"/>
      <point x="344" y="1618" type="line"/>
      <point x="344" y="1473" type="line"/>
    </contour>
    <contour>
      <point x="489" y="1473" type="line"/>
      <point x="489" y="1618" type="line"/>
      <point x="635" y="1618" type="line"/>
      <point x="635" y="1473" type="line"/>
    </contour>
  </outline>
</glyph>
<glyph name="copyright" format="1">
  <advance width="1638"/>
  <unicode hex="00A9"/>
  <outline>
    <contour>
      <point x="102" y="883"/>
      <point x="159" y="1018" type="qcurve" smooth="yes"/>
      <point x="217" y="1155"/>
      <point x="312" y="1253" type="qcurve" smooth="yes"/>
      <point x="409" y="1353"/>
      <point x="541" y="1412" type="qcurve" smooth="yes"/>
      <point x="670" y="1470"/>
      <point x="819" y="1470" type="qcurve" smooth="yes"/>
      <point x="969" y="1470"/>
      <point x="1098" y="1412" type="qcurve" smooth="yes"/>
      <point x="1228" y="1354"/>
      <point x="1326" y="1253" type="qcurve" smooth="yes"/>
      <point x="1423" y="1153"/>
      <point x="1480" y="1018" type="qcurve" smooth="yes"/>
      <point x="1536" y="885"/>
      <point x="1536" y="573"/>
      <point x="1480" y="440" type="qcurve" smooth="yes"/>
      <point x="1423" y="305"/>
      <point x="1326" y="205" type="qcurve" smooth="yes"/>
      <point x="1228" y="104"/>
      <point x="1098" y="46" type="qcurve" smooth="yes"/>
      <point x="969" y="-12"/>
      <point x="819" y="-12" type="qcurve" smooth="yes"/>
      <point x="670" y="-12"/>
      <point x="541" y="46" type="qcurve" smooth="yes"/>
      <point x="409" y="105"/>
      <point x="312" y="205" type="qcurve" smooth="yes"/>
      <point x="217" y="303"/>
      <point x="159" y="440" type="qcurve" smooth="yes"/>
      <point x="102" y="575"/>
    </contour>
    <contour>
      <point x="199" y="592"/>
      <point x="248" y="475" type="qcurve" smooth="yes"/>
      <point x="299" y="354"/>
      <point x="381" y="267" type="qcurve" smooth="yes"/>
      <point x="465" y="178"/>
      <point x="578" y="127" type="qcurve" smooth="yes"/>
      <point x="690" y="76"/>
      <point x="948" y="76"/>
      <point x="1061" y="127" type="qcurve" smooth="yes"/>
      <point x="1173" y="178"/>
      <point x="1256" y="267" type="qcurve" smooth="yes"/>
      <point x="1340" y="357"/>
      <point x="1438" y="593"/>
      <point x="1440" y="729" type="qcurve" smooth="yes"/>
      <point x="1440" y="866"/>
      <point x="1391" y="983" type="qcurve" smooth="yes"/>
      <point x="1341" y="1102"/>
      <point x="1257" y="1191" type="qcurve" smooth="yes"/>
      <point x="1172" y="1281"/>
      <point x="1061" y="1331" type="qcurve" smooth="yes"/>
      <point x="949" y="1382"/>
      <point x="819" y="1382" type="qcurve" smooth="yes"/>
      <point x="690" y="1382"/>
      <point x="578" y="1331" type="qcurve" smooth="yes"/>
      <point x="465" y="1280"/>
      <point x="381" y="1191" type="qcurve" smooth="yes"/>
      <point x="299" y="1104"/>
      <point x="248" y="983" type="qcurve" smooth="yes"/>
      <point x="199" y="866"/>
    </contour>
    <contour>
      <point x="432" y="824"/>
      <point x="460" y="911" type="qcurve" smooth="yes"/>
      <point x="486" y="992"/>
      <point x="541" y="1055" type="qcurve" smooth="yes"/>
      <point x="591" y="1112"/>
      <point x="669" y="1148" type="qcurve" smooth="yes"/>
      <point x="743" y="1182"/>
      <point x="840" y="1182" type="qcurve" smooth="yes"/>
      <point x="965" y="1182"/>
      <point x="1151" y="1044"/>
      <point x="1178" y="913" type="qcurve"/>
      <point x="1092" y="913" type="line"/>
      <point x="1070" y="989"/>
      <point x="1001" y="1043" type="qcurve" smooth="yes"/>
      <point x="933" y="1096"/>
      <point x="842" y="1096" type="qcurve" smooth="yes"/>
      <point x="766" y="1096"/>
      <point x="708" y="1066" type="qcurve" smooth="yes"/>
      <point x="649" y="1036"/>
      <point x="609" y="987" type="qcurve" smooth="yes"/>
      <point x="571" y="940"/>
      <point x="549" y="872" type="qcurve" smooth="yes"/>
      <point x="528" y="806"/>
      <point x="528" y="733" type="qcurve" smooth="yes"/>
      <point x="528" y="665"/>
      <point x="551" y="598" type="qcurve" smooth="yes"/>
      <point x="574" y="532"/>
      <point x="614" y="481" type="qcurve" smooth="yes"/>
      <point x="654" y="430"/>
      <point x="714" y="398" type="qcurve" smooth="yes"/>
      <point x="772" y="367"/>
      <point x="846" y="367" type="qcurve" smooth="yes"/>
      <point x="939" y="367"/>
      <point x="1005" y="421" type="qcurve" smooth="yes"/>
      <point x="1072" y="476"/>
      <point x="1094" y="557" type="qcurve"/>
      <point x="1176" y="557" type="line"/>
      <point x="1143" y="429"/>
      <point x="1054" y="353" type="qcurve" smooth="yes"/>
      <point x="967" y="279"/>
      <point x="846" y="279" type="qcurve" smooth="yes"/>
      <point x="751" y="279"/>
      <point x="676" y="313" type="qcurve" smooth="yes"/>
      <point x="603" y="346"/>
      <point x="546" y="409" type="qcurve" smooth="yes"/>
      <point x="492" y="469"/>
      <point x="462" y="551" type="qcurve" smooth="yes"/>
      <point x="432" y="634"/>
    </contour>
  </outline>
</glyph>
<glyph name="ordfeminine" format="1">
  <advance width="491"/>
  <unicode hex="00AA"/>
  <outline>
    <contour>
      <point x="53" y="987" type="qcurve" smooth="yes"/>
      <point x="53" y="1094"/>
      <point x="135" y="1194"/>
      <point x="250" y="1194" type="qcurve" smooth="yes"/>
      <point x="271" y="1194"/>
      <point x="283" y="1193" type="qcurve" smooth="yes"/>
      <point x="339" y="1188"/>
      <point x="342" y="1188" type="qcurve" smooth="yes"/>
      <point x="342" y="1272" type="line" smooth="yes"/>
      <point x="342" y="1315"/>
      <point x="322" y="1346" type="qcurve" smooth="yes"/>
      <point x="302" y="1378"/>
      <point x="248" y="1378" type="qcurve" smooth="yes"/>
      <point x="218" y="1378"/>
      <point x="164" y="1348"/>
      <point x="152" y="1311" type="qcurve"/>
      <point x="66" y="1311" type="line"/>
      <point x="78" y="1385"/>
      <point x="125" y="1428" type="qcurve" smooth="yes"/>
      <point x="172" y="1470"/>
      <point x="248" y="1470" type="qcurve" smooth="yes"/>
      <point x="324" y="1470"/>
      <point x="382" y="1423" type="qcurve" smooth="yes"/>
      <point x="438" y="1377"/>
      <point x="438" y="1284" type="qcurve" smooth="yes"/>
      <point x="438" y="840" type="line"/>
      <point x="342" y="840" type="line"/>
      <point x="342" y="909" type="line"/>
      <point x="299" y="909" type="line"/>
      <point x="272" y="870"/>
      <point x="246" y="849" type="qcurve" smooth="yes"/>
      <point x="223" y="831"/>
      <point x="182" y="831" type="qcurve" smooth="yes"/>
      <point x="165" y="831"/>
      <point x="139" y="838" type="qcurve" smooth="yes"/>
      <point x="116" y="844"/>
      <point x="97" y="860" type="qcurve" smooth="yes"/>
      <point x="79" y="876"/>
      <point x="66" y="907" type="qcurve" smooth="yes"/>
      <point x="53" y="940"/>
    </contour>
    <contour>
      <point x="150" y="1012" type="qcurve" smooth="yes"/>
      <point x="150" y="968"/>
      <point x="175" y="944" type="qcurve" smooth="yes"/>
      <point x="201" y="920"/>
      <point x="242" y="920" type="qcurve" smooth="yes"/>
      <point x="288" y="920"/>
      <point x="314" y="949" type="qcurve" smooth="yes"/>
      <point x="342" y="980"/>
      <point x="342" y="1022" type="qcurve" smooth="yes"/>
      <point x="342" y="1128" type="line"/>
      <point x="334" y="1129"/>
      <point x="305" y="1134"/>
      <point x="300" y="1135" type="qcurve" smooth="yes"/>
      <point x="282" y="1137"/>
      <point x="279" y="1137" type="qcurve" smooth="yes"/>
      <point x="227" y="1137"/>
      <point x="188" y="1110" type="qcurve" smooth="yes"/>
      <point x="150" y="1084"/>
    </contour>
  </outline>
</glyph>
<glyph name="guillemotleft" format="1">
  <advance width="872"/>
  <unicode hex="00AB"/>
  <outline>
    <contour>
      <point x="57" y="567" type="line"/>
      <point x="412" y="942" type="line"/>
      <point x="412" y="797" type="line"/>
      <point x="193" y="567" type="line"/>
      <point x="410" y="338" type="line"/>
      <point x="410" y="193" type="line"/>
    </contour>
    <contour>
      <point x="436" y="567" type="line"/>
      <point x="791" y="942" type="line"/>
      <point x="791" y="797" type="line"/>
      <point x="571" y="567" type="line"/>
      <point x="791" y="338" type="line"/>
      <point x="791" y="193" type="line"/>
    </contour>
  </outline>
</glyph>
<glyph name="logicalnot" format="1">
  <advance width="1228"/>
  <unicode hex="00AC"/>
  <outline>
    <contour>
      <point x="121" y="680" type="line"/>
      <point x="121" y="805" type="line"/>
      <point x="1108" y="805" type="line"/>
      <point x="1108" y="231" type="line"/>
      <point x="995" y="231" type="line"/>
      <point x="995" y="680" type="line"/>
    </contour>
  </outline>
</glyph>
<glyph name="uni00AD" format="1">
  <advance width="827"/>
  <unicode hex="00AD"/>
  <outline>
    <contour>
      <point x="96" y="559" type="line"/>
      <point x="96" y="725" type="line"/>
      <point x="729" y="725" type="line"/>
      <point x="729" y="559" type="line"/>
    </contour>
  </outline>
</glyph>
<glyph name="registered" format="1">
  <advance width="1638"/>
  <unicode hex="00AE"/>
  <outline>
    <contour>
      <point x="102" y="883"/>
      <point x="159" y="1018" type="qcurve" smooth="yes"/>
      <point x="217" y="1155"/>
      <point x="312" y="1253" type="qcurve" smooth="yes"/>
      <point x="409" y="1353"/>
      <point x="541" y="1412" type="qcurve" smooth="yes"/>
      <point x="670" y="1470"/>
      <point x="819" y="1470" type="qcurve" smooth="yes"/>
      <point x="969" y="1470"/>
      <point x="1098" y="1412" type="qcurve" smooth="yes"/>
      <point x="1228" y="1354"/>
      <point x="1326" y="1253" type="qcurve" smooth="yes"/>
      <point x="1423" y="1153"/>
      <point x="1480" y="1018" type="qcurve" smooth="yes"/>
      <point x="1536" y="885"/>
      <point x="1536" y="573"/>
      <point x="1480" y="440" type="qcurve" smooth="yes"/>
      <point x="1423" y="305"/>
      <point x="1326" y="205" type="qcurve" smooth="yes"/>
      <point x="1228" y="104"/>
      <point x="1098" y="46" type="qcurve" smooth="yes"/>
      <point x="969" y="-12"/>
      <point x="819" y="-12" type="qcurve" smooth="yes"/>
      <point x="670" y="-12"/>
      <point x="541" y="46" type="qcurve" smooth="yes"/>
      <point x="409" y="105"/>
      <point x="312" y="205" type="qcurve" smooth="yes"/>
      <point x="217" y="303"/>
      <point x="159" y="440" type="qcurve" smooth="yes"/>
      <point x="102" y="575"/>
    </contour>
    <contour>
      <point x="199" y="592"/>
      <point x="248" y="475" type="qcurve" smooth="yes"/>
      <point x="299" y="354"/>
      <point x="381" y="267" type="qcurve" smooth="yes"/>
      <point x="465" y="178"/>
      <point x="578" y="127" type="qcurve" smooth="yes"/>
      <point x="690" y="76"/>
      <point x="948" y="76"/>
      <point x="1061" y="127" type="qcurve" smooth="yes"/>
      <point x="1173" y="178"/>
      <point x="1256" y="267" type="qcurve" smooth="yes"/>
      <point x="1340" y="357"/>
      <point x="1438" y="593"/>
      <point x="1440" y="729" type="qcurve" smooth="yes"/>
      <point x="1440" y="866"/>
      <point x="1391" y="983" type="qcurve" smooth="yes"/>
      <point x="1341" y="1102"/>
      <point x="1257" y="1191" type="qcurve" smooth="yes"/>
      <point x="1172" y="1281"/>
      <point x="1061" y="1331" type="qcurve" smooth="yes"/>
      <point x="949" y="1382"/>
      <point x="819" y="1382" type="qcurve" smooth="yes"/>
      <point x="690" y="1382"/>
      <point x="578" y="1331" type="qcurve" smooth="yes"/>
      <point x="465" y="1280"/>
      <point x="381" y="1191" type="qcurve" smooth="yes"/>
      <point x="299" y="1104"/>
      <point x="248" y="983" type="qcurve" smooth="yes"/>
      <point x="199" y="866"/>
    </contour>
    <contour>
      <point x="563" y="307" type="line"/>
      <point x="563" y="1151" type="line"/>
      <point x="866" y="1151" type="line" smooth="yes"/>
      <point x="1008" y="1151"/>
      <point x="1073" y="1096" type="qcurve" smooth="yes"/>
      <point x="1139" y="1041"/>
      <point x="1139" y="924" type="qcurve" smooth="yes"/>
      <point x="1139" y="811"/>
      <point x="1077" y="761" type="qcurve" smooth="yes"/>
      <point x="1014" y="710"/>
      <point x="899" y="694" type="qcurve"/>
      <point x="1143" y="307" type="line"/>
      <point x="1040" y="307" type="line"/>
      <point x="793" y="696" type="line"/>
      <point x="649" y="696" type="line"/>
      <point x="649" y="307" type="line"/>
    </contour>
    <contour>
      <point x="647" y="770" type="line"/>
      <point x="827" y="770" type="line" smooth="yes"/>
      <point x="928" y="770"/>
      <point x="992" y="805" type="qcurve" smooth="yes"/>
      <point x="1055" y="840"/>
      <point x="1055" y="930" type="qcurve" smooth="yes"/>
      <point x="1055" y="967"/>
      <point x="1039" y="997" type="qcurve" smooth="yes"/>
      <point x="1024" y="1025"/>
      <point x="998" y="1042" type="qcurve" smooth="yes"/>
      <point x="970" y="1060"/>
      <point x="940" y="1067" type="qcurve" smooth="yes"/>
      <point x="905" y="1075"/>
      <point x="870" y="1075" type="qcurve" smooth="yes"/>
      <point x="647" y="1075" type="line"/>
    </contour>
  </outline>
</glyph>
<glyph name="macron" format="1">
  <advance width="380"/>
  <unicode hex="00AF"/>
  <outline>
    <contour>
      <point x="-66" y="1243" type="line"/>
      <point x="-66" y="1366" type="line"/>
      <point x="446" y="1366" type="line"/>
      <point x="446" y="1243" type="line"/>
    </contour>
  </outline>
</glyph>
<glyph name="degree" format="1">
  <advance width="532"/>
  <unicode hex="00B0"/>
  <outline>
    <contour>
      <point x="61" y="1502"/>
      <point x="77" y="1547" type="qcurve" smooth="yes"/>
      <point x="92" y="1589"/>
      <point x="120" y="1620" type="qcurve" smooth="yes"/>
      <point x="147" y="1650"/>
      <point x="185" y="1668" type="qcurve" smooth="yes"/>
      <point x="222" y="1686"/>
      <point x="266" y="1686" type="qcurve" smooth="yes"/>
      <point x="308" y="1686"/>
      <point x="384" y="1650"/>
      <point x="438" y="1590"/>
      <point x="455" y="1547" type="qcurve" smooth="yes"/>
      <point x="471" y="1506"/>
      <point x="471" y="1456" type="qcurve" smooth="yes"/>
      <point x="471" y="1408"/>
      <point x="455" y="1367" type="qcurve" smooth="yes"/>
      <point x="438" y="1324"/>
      <point x="411" y="1294" type="qcurve" smooth="yes"/>
      <point x="383" y="1263"/>
      <point x="346" y="1245" type="qcurve" smooth="yes"/>
      <point x="308" y="1227"/>
      <point x="224" y="1227"/>
      <point x="186" y="1245" type="qcurve" smooth="yes"/>
      <point x="151" y="1262"/>
      <point x="122" y="1294" type="qcurve" smooth="yes"/>
      <point x="95" y="1324"/>
      <point x="61" y="1410"/>
    </contour>
    <contour>
      <point x="115" y="1456" type="qcurve" smooth="yes"/>
      <point x="115" y="1387"/>
      <point x="159" y="1337" type="qcurve" smooth="yes"/>
      <point x="202" y="1288"/>
      <point x="330" y="1288"/>
      <point x="416" y="1386"/>
      <point x="418" y="1456" type="qcurve" smooth="yes"/>
      <point x="418" y="1527"/>
      <point x="374" y="1576" type="qcurve" smooth="yes"/>
      <point x="330" y="1624"/>
      <point x="202" y="1624"/>
      <point x="159" y="1576" type="qcurve" smooth="yes"/>
      <point x="115" y="1527"/>
    </contour>
  </outline>
</glyph>
<glyph name="plusminus" format="1">
  <advance width="1228"/>
  <unicode hex="00B1"/>
  <outline>
    <contour>
      <point x="121" y="0" type="line"/>
      <point x="121" y="119" type="line"/>
      <point x="1108" y="119" type="line"/>
      <point x="1108" y="0" type="line"/>
    </contour>
    <contour>
      <point x="121" y="571" type="line"/>
      <point x="121" y="690" type="line"/>
      <point x="557" y="690" type="line"/>
      <point x="557" y="1036" type="line"/>
      <point x="670" y="1036" type="line"/>
      <point x="670" y="690" type="line"/>
      <point x="1108" y="690" type="line"/>
      <point x="1108" y="571" type="line"/>
      <point x="672" y="571" type="line"/>
      <point x="672" y="223" type="line"/>
      <point x="559" y="223" type="line"/>
      <point x="559" y="571" type="line"/>
    </contour>
  </outline>
</glyph>
<glyph name="uni00B2" format="1">
  <advance width="380"/>
  <unicode hex="00B2"/>
  <outline>
    <contour>
      <point x="47" y="588" type="line"/>
      <point x="47" y="672" type="line"/>
      <point x="307" y="1124" type="line" smooth="yes"/>
      <point x="322" y="1153"/>
      <point x="328" y="1171" type="qcurve" smooth="yes"/>
      <point x="336" y="1197"/>
      <point x="336" y="1223" type="qcurve" smooth="yes"/>
      <point x="336" y="1274" type="line" smooth="yes"/>
      <point x="336" y="1320"/>
      <point x="305" y="1345" type="qcurve" smooth="yes"/>
      <point x="276" y="1368"/>
      <point x="246" y="1368" type="qcurve" smooth="yes"/>
      <point x="210" y="1368"/>
      <point x="162" y="1316"/>
      <point x="162" y="1274" type="qcurve" smooth="yes"/>
      <point x="162" y="1233" type="line"/>
      <point x="47" y="1233" type="line"/>
      <point x="47" y="1284" type="line" smooth="yes"/>
      <point x="47" y="1362"/>
      <point x="161" y="1470"/>
      <point x="335" y="1470"/>
      <point x="391" y="1421" type="qcurve" smooth="yes"/>
      <point x="449" y="1371"/>
      <point x="449" y="1300" type="qcurve" smooth="yes"/>
      <point x="449" y="1229" type="line" smooth="yes"/>
      <point x="449" y="1175"/>
      <point x="437" y="1145" type="qcurve" smooth="yes"/>
      <point x="423" y="1109"/>
      <point x="403" y="1079" type="qcurve" smooth="yes"/>
      <point x="186" y="690" type="line"/>
      <point x="449" y="690" type="line"/>
      <point x="449" y="588" type="line"/>
    </contour>
  </outline>
</glyph>
<glyph name="uni00B3" format="1">
  <advance width="380"/>
  <unicode hex="00B3"/>
  <outline>
    <contour>
      <point x="47" y="758" type="qcurve" smooth="yes"/>
      <point x="47" y="805" type="line"/>
      <point x="160" y="805" type="line"/>
      <point x="160" y="780" type="line" smooth="yes"/>
      <point x="160" y="738"/>
      <point x="183" y="711" type="qcurve" smooth="yes"/>
      <point x="207" y="682"/>
      <point x="248" y="682" type="qcurve" smooth="yes"/>
      <point x="287" y="682"/>
      <point x="311" y="711" type="qcurve" smooth="yes"/>
      <point x="336" y="741"/>
      <point x="336" y="774" type="qcurve" smooth="yes"/>
      <point x="336" y="887" type="line" smooth="yes"/>
      <point x="336" y="947"/>
      <point x="310" y="968" type="qcurve" smooth="yes"/>
      <point x="285" y="988"/>
      <point x="229" y="993" type="qcurve"/>
      <point x="229" y="1085" type="line"/>
      <point x="280" y="1087"/>
      <point x="308" y="1108" type="qcurve" smooth="yes"/>
      <point x="336" y="1130"/>
      <point x="336" y="1184" type="qcurve" smooth="yes"/>
      <point x="336" y="1276" type="line" smooth="yes"/>
      <point x="336" y="1313"/>
      <point x="311" y="1341" type="qcurve" smooth="yes"/>
      <point x="287" y="1368"/>
      <point x="248" y="1368" type="qcurve" smooth="yes"/>
      <point x="200" y="1368"/>
      <point x="181" y="1335" type="qcurve" smooth="yes"/>
      <point x="162" y="1303"/>
      <point x="162" y="1276" type="qcurve" smooth="yes"/>
      <point x="162" y="1245" type="line"/>
      <point x="47" y="1245" type="line"/>
      <point x="47" y="1288" type="line" smooth="yes"/>
      <point x="47" y="1366"/>
      <point x="157" y="1470"/>
      <point x="252" y="1470" type="qcurve" smooth="yes"/>
      <point x="304" y="1470"/>
      <point x="340" y="1454" type="qcurve" smooth="yes"/>
      <point x="377" y="1438"/>
      <point x="425" y="1384"/>
      <point x="437" y="1350" type="qcurve" smooth="yes"/>
      <point x="449" y="1315"/>
      <point x="449" y="1280" type="qcurve" smooth="yes"/>
      <point x="449" y="1192" type="line" smooth="yes"/>
      <point x="449" y="1177"/>
      <point x="445" y="1153" type="qcurve" smooth="yes"/>
      <point x="442" y="1133"/>
      <point x="431" y="1117" type="qcurve" smooth="yes"/>
      <point x="419" y="1099"/>
      <point x="377" y="1063"/>
      <point x="338" y="1042" type="qcurve"/>
      <point x="411" y="997"/>
      <point x="429" y="964" type="qcurve" smooth="yes"/>
      <point x="449" y="929"/>
      <point x="449" y="883" type="qcurve" smooth="yes"/>
      <point x="449" y="772" type="line" smooth="yes"/>
      <point x="449" y="736"/>
      <point x="437" y="702" type="qcurve" smooth="yes"/>
      <point x="425" y="667"/>
      <point x="377" y="613"/>
      <point x="339" y="596" type="qcurve" smooth="yes"/>
      <point x="303" y="580"/>
      <point x="248" y="580" type="qcurve" smooth="yes"/>
      <point x="167" y="580"/>
      <point x="108" y="620" type="qcurve" smooth="yes"/>
      <point x="47" y="661"/>
    </contour>
  </outline>
</glyph>
<glyph name="acute" format="1">
  <advance width="441"/>
  <unicode hex="00B4"/>
  <outline>
    <contour>
      <point x="153" y="1273" type="line"/>
      <point x="153" y="1407" type="line"/>
      <point x="153" y="1639" type="line"/>
      <point x="287" y="1639" type="line"/>
      <point x="287" y="1368" type="line"/>
      <point x="287" y="1272" type="line"/>
    </contour>
  </outline>
</glyph>
<glyph name="paragraph" format="1">
  <advance width="909"/>
  <unicode hex="00B6"/>
  <outline>
    <contour>
      <point x="41" y="1079" type="qcurve" smooth="yes"/>
      <point x="41" y="1271"/>
      <point x="156" y="1365" type="qcurve" smooth="yes"/>
      <point x="270" y="1458"/>
      <point x="463" y="1458" type="qcurve" smooth="yes"/>
      <point x="791" y="1458" type="line"/>
      <point x="791" y="-420" type="line"/>
      <point x="694" y="-420" type="line"/>
      <point x="694" y="1403" type="line"/>
      <point x="496" y="1403" type="line"/>
      <point x="496" y="-420" type="line"/>
      <point x="399" y="-420" type="line"/>
      <point x="399" y="715" type="line"/>
      <point x="328" y="715"/>
      <point x="263" y="742" type="qcurve" smooth="yes"/>
      <point x="201" y="768"/>
      <point x="150" y="819" type="qcurve" smooth="yes"/>
      <point x="102" y="867"/>
      <point x="71" y="935" type="qcurve" smooth="yes"/>
      <point x="41" y="1001"/>
    </contour>
  </outline>
</glyph>
<glyph name="periodcentered" format="1">
  <advance width="380"/>
  <unicode hex="00B7"/>
  <outline>
    <contour>
      <point x="84" y="665"/>
      <point x="148" y="741"/>
      <point x="190" y="741" type="qcurve" smooth="yes"/>
      <point x="233" y="741"/>
      <point x="297" y="665"/>
      <point x="297" y="555"/>
      <point x="233" y="479"/>
      <point x="190" y="479" type="qcurve" smooth="yes"/>
      <point x="148" y="479"/>
      <point x="84" y="555"/>
    </contour>
  </outline>
</glyph>
<glyph name="cedilla" format="1">
  <advance width="1648"/>
  <unicode hex="00B8"/>
  <outline>
    <contour>
      <point x="98" y="-184" type="line"/>
      <point x="127" y="0" type="line"/>
      <point x="195" y="0" type="line"/>
      <point x="195" y="-184" type="line"/>
    </contour>
  </outline>
</glyph>
<glyph name="uni00B9" format="1">
  <advance width="380"/>
  <unicode hex="00B9"/>
  <outline>
    <contour>
      <point x="80" y="1284" type="line"/>
      <point x="80" y="1376" type="line"/>
      <point x="199" y="1458" type="line"/>
      <point x="330" y="1458" type="line"/>
      <point x="330" y="588" type="line"/>
      <point x="217" y="588" type="line"/>
      <point x="217" y="1378" type="line"/>
    </contour>
  </outline>
</glyph>
<glyph name="ordmasculine" format="1">
  <advance width="491"/>
  <unicode hex="00BA"/>
  <outline>
    <contour>
      <point x="61" y="1024" type="qcurve" smooth="yes"/>
      <point x="61" y="1278" type="line" smooth="yes"/>
      <point x="61" y="1364"/>
      <point x="161" y="1470"/>
      <point x="331" y="1470"/>
      <point x="381" y="1417" type="qcurve" smooth="yes"/>
      <point x="430" y="1365"/>
      <point x="430" y="1278" type="qcurve" smooth="yes"/>
      <point x="430" y="1024" type="line" smooth="yes"/>
      <point x="430" y="937"/>
      <point x="381" y="885" type="qcurve" smooth="yes"/>
      <point x="330" y="831"/>
      <point x="162" y="831"/>
      <point x="111" y="885" type="qcurve" smooth="yes"/>
      <point x="61" y="938"/>
    </contour>
    <contour>
      <point x="158" y="1026" type="line" smooth="yes"/>
      <point x="158" y="979"/>
      <point x="181" y="952" type="qcurve" smooth="yes"/>
      <point x="205" y="924"/>
      <point x="287" y="924"/>
      <point x="309" y="952" type="qcurve" smooth="yes"/>
      <point x="332" y="981"/>
      <point x="332" y="1026" type="qcurve" smooth="yes"/>
      <point x="334" y="1274" type="line" smooth="yes"/>
      <point x="334" y="1321"/>
      <point x="311" y="1350" type="qcurve" smooth="yes"/>
      <point x="289" y="1378"/>
      <point x="246" y="1378" type="qcurve" smooth="yes"/>
      <point x="202" y="1378"/>
      <point x="158" y="1322"/>
      <point x="158" y="1274" type="qcurve" smooth="yes"/>
    </contour>
  </outline>
</glyph>
<glyph name="guillemotright" format="1">
  <advance width="872"/>
  <unicode hex="00BB"/>
  <outline>
    <contour>
      <point x="82" y="193" type="line"/>
      <point x="82" y="338" type="line"/>
      <point x="301" y="567" type="line"/>
      <point x="82" y="797" type="line"/>
      <point x="82" y="942" type="line"/>
      <point x="436" y="567" type="line"/>
    </contour>
    <contour>
      <point x="461" y="193" type="line"/>
      <point x="461" y="338" type="line"/>
      <point x="680" y="567" type="line"/>
      <point x="461" y="797" type="line"/>
      <point x="461" y="942" type="line"/>
      <point x="815" y="567" type="line"/>
    </contour>
  </outline>
</glyph>
<glyph name="onequarter" format="1">
  <advance width="380"/>
  <unicode hex="00BC"/>
  <outline>
    <contour>
      <point x="47" y="1288" type="line"/>
      <point x="47" y="1378" type="line"/>
      <point x="166" y="1456" type="line"/>
      <point x="297" y="1456" type="line"/>
      <point x="297" y="608" type="line"/>
      <point x="184" y="608" type="line"/>
      <point x="184" y="1380" type="line"/>
    </contour>
    <contour>
      <point x="82" y="-35" type="line"/>
      <point x="946" y="1493" type="line"/>
      <point x="1010" y="1493" type="line"/>
      <point x="145" y="-35" type="line"/>
    </contour>
    <contour>
      <point x="621" y="133" type="line"/>
      <point x="621" y="233" type="line"/>
      <point x="815" y="854" type="line"/>
      <point x="926" y="854" type="line"/>
      <point x="733" y="219" type="line"/>
      <point x="913" y="219" type="line"/>
      <point x="913" y="463" type="line"/>
      <point x="1026" y="463" type="line"/>
      <point x="1026" y="219" type="line"/>
      <point x="1090" y="219" type="line"/>
      <point x="1090" y="133" type="line"/>
      <point x="1028" y="133" type="line"/>
      <point x="1028" y="2" type="line"/>
      <point x="915" y="2" type="line"/>
      <point x="915" y="133" type="line"/>
    </contour>
  </outline>
</glyph>
<glyph name="onehalf" format="1">
  <advance width="380"/>
  <unicode hex="00BD"/>
  <outline>
    <contour>
      <point x="47" y="1288" type="line"/>
      <point x="47" y="1378" type="line"/>
      <point x="166" y="1456" type="line"/>
      <point x="297" y="1456" type="line"/>
      <point x="297" y="608" type="line"/>
      <point x="184" y="608" type="line"/>
      <point x="184" y="1380" type="line"/>
    </contour>
    <contour>
      <point x="82" y="2" type="line"/>
      <point x="946" y="1493" type="line"/>
      <point x="1010" y="1493" type="line"/>
      <point x="145" y="-35" type="line"/>
    </contour>
    <contour>
      <point x="684" y="2" type="line"/>
      <point x="684" y="82" type="line"/>
      <point x="948" y="524" type="line" smooth="yes"/>
      <point x="964" y="554"/>
      <point x="969" y="570" type="qcurve" smooth="yes"/>
      <point x="977" y="596"/>
      <point x="977" y="621" type="qcurve" smooth="yes"/>
      <point x="977" y="670" type="line" smooth="yes"/>
      <point x="977" y="713"/>
      <point x="946" y="738" type="qcurve" smooth="yes"/>
      <point x="916" y="762"/>
      <point x="887" y="762" type="qcurve" smooth="yes"/>
      <point x="852" y="762"/>
      <point x="825" y="738" type="qcurve" smooth="yes"/>
      <point x="799" y="715"/>
      <point x="799" y="670" type="qcurve" smooth="yes"/>
      <point x="799" y="631" type="line"/>
      <point x="684" y="631" type="line"/>
      <point x="684" y="680" type="line" smooth="yes"/>
      <point x="684" y="758"/>
      <point x="796" y="862"/>
      <point x="889" y="862" type="qcurve" smooth="yes"/>
      <point x="975" y="862"/>
      <point x="1032" y="814" type="qcurve" smooth="yes"/>
      <point x="1090" y="765"/>
      <point x="1090" y="694" type="qcurve" smooth="yes"/>
      <point x="1090" y="625" type="line" smooth="yes"/>
      <point x="1090" y="574"/>
      <point x="1078" y="544" type="qcurve" smooth="yes"/>
      <point x="1065" y="511"/>
      <point x="1044" y="479" type="qcurve" smooth="yes"/>
      <point x="827" y="100" type="line"/>
      <point x="1090" y="100" type="line"/>
      <point x="1090" y="2" type="line"/>
    </contour>
  </outline>
</glyph>
<glyph name="threequarters" format="1">
  <advance width="380"/>
  <unicode hex="00BE"/>
  <outline>
    <contour>
      <point x="47" y="774" type="qcurve" smooth="yes"/>
      <point x="47" y="819" type="line"/>
      <point x="160" y="819" type="line"/>
      <point x="160" y="797" type="line" smooth="yes"/>
      <point x="160" y="754"/>
      <point x="183" y="728" type="qcurve" smooth="yes"/>
      <point x="208" y="700"/>
      <point x="248" y="700" type="qcurve" smooth="yes"/>
      <point x="286" y="700"/>
      <point x="336" y="756"/>
      <point x="336" y="791" type="qcurve" smooth="yes"/>
      <point x="336" y="901" type="line" smooth="yes"/>
      <point x="336" y="959"/>
      <point x="310" y="980" type="qcurve" smooth="yes"/>
      <point x="284" y="1002"/>
      <point x="229" y="1006" type="qcurve"/>
      <point x="229" y="1094" type="line"/>
      <point x="281" y="1096"/>
      <point x="308" y="1115" type="qcurve" smooth="yes"/>
      <point x="336" y="1135"/>
      <point x="336" y="1190" type="qcurve" smooth="yes"/>
      <point x="336" y="1280" type="line" smooth="yes"/>
      <point x="336" y="1315"/>
      <point x="311" y="1343" type="qcurve" smooth="yes"/>
      <point x="287" y="1370"/>
      <point x="248" y="1370" type="qcurve" smooth="yes"/>
      <point x="201" y="1370"/>
      <point x="181" y="1338" type="qcurve" smooth="yes"/>
      <point x="162" y="1307"/>
      <point x="162" y="1280" type="qcurve" smooth="yes"/>
      <point x="162" y="1251" type="line"/>
      <point x="47" y="1251" type="line"/>
      <point x="47" y="1292" type="line" smooth="yes"/>
      <point x="47" y="1368"/>
      <point x="102" y="1419" type="qcurve" smooth="yes"/>
      <point x="158" y="1470"/>
      <point x="252" y="1470" type="qcurve" smooth="yes"/>
      <point x="304" y="1470"/>
      <point x="340" y="1454" type="qcurve" smooth="yes"/>
      <point x="377" y="1438"/>
      <point x="401" y="1411" type="qcurve" smooth="yes"/>
      <point x="426" y="1383"/>
      <point x="437" y="1351" type="qcurve" smooth="yes"/>
      <point x="449" y="1316"/>
      <point x="449" y="1284" type="qcurve" smooth="yes"/>
      <point x="449" y="1198" type="line" smooth="yes"/>
      <point x="449" y="1184"/>
      <point x="445" y="1160" type="qcurve" smooth="yes"/>
      <point x="442" y="1141"/>
      <point x="431" y="1125" type="qcurve" smooth="yes"/>
      <point x="422" y="1112"/>
      <point x="398" y="1091" type="qcurve" smooth="yes"/>
      <point x="380" y="1076"/>
      <point x="338" y="1053" type="qcurve"/>
      <point x="409" y="1008"/>
      <point x="429" y="975" type="qcurve" smooth="yes"/>
      <point x="449" y="941"/>
      <point x="449" y="897" type="qcurve" smooth="yes"/>
      <point x="449" y="788" type="line" smooth="yes"/>
      <point x="449" y="754"/>
      <point x="425" y="686"/>
      <point x="401" y="659" type="qcurve" smooth="yes"/>
      <point x="378" y="633"/>
      <point x="339" y="616" type="qcurve" smooth="yes"/>
      <point x="303" y="600"/>
      <point x="248" y="600" type="qcurve" smooth="yes"/>
      <point x="207" y="600"/>
      <point x="135" y="618"/>
      <point x="108" y="639" type="qcurve" smooth="yes"/>
      <point x="77" y="663"/>
      <point x="63" y="693" type="qcurve" smooth="yes"/>
      <point x="47" y="726"/>
    </contour>
    <contour>
      <point x="121" y="-35" type="line"/>
      <point x="985" y="1493" type="line"/>
      <point x="1049" y="1493" type="line"/>
      <point x="184" y="-35" type="line"/>
    </contour>
    <contour>
      <point x="621" y="133" type="line"/>
      <point x="621" y="233" type="line"/>
      <point x="815" y="854" type="line"/>
      <point x="926" y="854" type="line"/>
      <point x="733" y="219" type="line"/>
      <point x="913" y="219" type="line"/>
      <point x="913" y="463" type="line"/>
      <point x="1026" y="463" type="line"/>
      <point x="1026" y="219" type="line"/>
      <point x="1090" y="219" type="line"/>
      <point x="1090" y="133" type="line"/>
      <point x="1028" y="133" type="line"/>
      <point x="1028" y="2" type="line"/>
      <point x="915" y="2" type="line"/>
      <point x="915" y="133" type="line"/>
    </contour>
  </outline>
</glyph>
<glyph name="questiondown" format="1">
  <advance width="757"/>
  <unicode hex="00BF"/>
  <outline>
    <contour>
      <point x="90" y="-78" type="qcurve" smooth="yes"/>
      <point x="90" y="-38"/>
      <point x="92" y="12" type="qcurve" smooth="yes"/>
      <point x="93" y="43"/>
      <point x="97" y="75" type="qcurve" smooth="yes"/>
      <point x="100" y="100"/>
      <point x="106" y="118" type="qcurve" smooth="yes"/>
      <point x="108" y="124"/>
      <point x="121" y="150" type="qcurve" smooth="yes"/>
      <point x="262" y="399" type="line" smooth="yes"/>
      <point x="272" y="417"/>
      <point x="288" y="457" type="qcurve" smooth="yes"/>
      <point x="299" y="484"/>
      <point x="299" y="522" type="qcurve" smooth="yes"/>
      <point x="299" y="666" type="line"/>
      <point x="459" y="666" type="line"/>
      <point x="459" y="494" type="line" smooth="yes"/>
      <point x="461" y="452"/>
      <point x="446" y="414" type="qcurve" smooth="yes"/>
      <point x="428" y="367"/>
      <point x="410" y="336" type="qcurve" smooth="yes"/>
      <point x="279" y="115" type="line" smooth="yes"/>
      <point x="260" y="83"/>
      <point x="254" y="48" type="qcurve" smooth="yes"/>
      <point x="248" y="12"/>
      <point x="248" y="-20" type="qcurve" smooth="yes"/>
      <point x="248" y="-133" type="line" smooth="yes"/>
      <point x="248" y="-187"/>
      <point x="286" y="-228" type="qcurve" smooth="yes"/>
      <point x="323" y="-268"/>
      <point x="377" y="-268" type="qcurve" smooth="yes"/>
      <point x="421" y="-268"/>
      <point x="465" y="-233" type="qcurve" smooth="yes"/>
      <point x="508" y="-199"/>
      <point x="508" y="-133" type="qcurve" smooth="yes"/>
      <point x="508" y="-37" type="line"/>
      <point x="668" y="-37" type="line"/>
      <point x="668" y="-135" type="line" smooth="yes"/>
      <point x="668" y="-196"/>
      <point x="622" y="-306"/>
      <point x="544" y="-384"/>
      <point x="489" y="-409" type="qcurve" smooth="yes"/>
      <point x="439" y="-432"/>
      <point x="377" y="-432" type="qcurve" smooth="yes"/>
      <point x="248" y="-432"/>
      <point x="169" y="-342" type="qcurve" smooth="yes"/>
      <point x="90" y="-253"/>
    </contour>
    <contour>
      <point x="299" y="874" type="line"/>
      <point x="299" y="1038" type="line"/>
      <point x="459" y="1038" type="line"/>
      <point x="459" y="874" type="line"/>
    </contour>
  </outline>
</glyph>
<glyph name="Agrave" format="1">
  <advance width="913"/>
  <unicode hex="00C0"/>
  <outline>
    <contour>
      <point x="98" y="0" type="line"/>
      <point x="375" y="1458" type="line"/>
      <point x="541" y="1458" type="line"/>
      <point x="817" y="0" type="line"/>
      <point x="649" y="0" type="line"/>
      <point x="590" y="305" type="line"/>
      <point x="324" y="305" type="line"/>
      <point x="266" y="0" type="line"/>
    </contour>
    <contour>
      <point x="317" y="1763" type="line"/>
      <point x="420" y="1866" type="line"/>
      <point x="616" y="1669" type="line"/>
      <point x="545" y="1597" type="line"/>
    </contour>
    <contour>
      <point x="354" y="471" type="line"/>
      <point x="559" y="471" type="line"/>
      <point x="457" y="1008" type="line"/>
    </contour>
  </outline>
</glyph>
<glyph name="Aacute" format="1">
  <advance width="913"/>
  <unicode hex="00C1"/>
  <outline>
    <contour>
      <point x="98" y="0" type="line"/>
      <point x="375" y="1458" type="line"/>
      <point x="541" y="1458" type="line"/>
      <point x="817" y="0" type="line"/>
      <point x="649" y="0" type="line"/>
      <point x="590" y="305" type="line"/>
      <point x="324" y="305" type="line"/>
      <point x="266" y="0" type="line"/>
    </contour>
    <contour>
      <point x="319" y="1681" type="line"/>
      <point x="516" y="1878" type="line"/>
      <point x="618" y="1776" type="line"/>
      <point x="391" y="1610" type="line"/>
    </contour>
    <contour>
      <point x="354" y="471" type="line"/>
      <point x="559" y="471" type="line"/>
      <point x="457" y="1008" type="line"/>
    </contour>
  </outline>
</glyph>
<glyph name="Acircumflex" format="1">
  <advance width="913"/>
  <unicode hex="00C2"/>
  <outline>
    <contour>
      <point x="98" y="0" type="line"/>
      <point x="375" y="1458" type="line"/>
      <point x="541" y="1458" type="line"/>
      <point x="817" y="0" type="line"/>
      <point x="649" y="0" type="line"/>
      <point x="590" y="305" type="line"/>
      <point x="324" y="305" type="line"/>
      <point x="266" y="0" type="line"/>
    </contour>
    <contour>
      <point x="217" y="1661" type="line"/>
      <point x="465" y="1909" type="line"/>
      <point x="713" y="1661" type="line"/>
      <point x="651" y="1599" type="line"/>
      <point x="465" y="1784" type="line"/>
      <point x="279" y="1599" type="line"/>
    </contour>
    <contour>
      <point x="354" y="471" type="line"/>
      <point x="559" y="471" type="line"/>
      <point x="457" y="1008" type="line"/>
    </contour>
  </outline>
</glyph>
<glyph name="Atilde" format="1">
  <advance width="913"/>
  <unicode hex="00C3"/>
  <outline>
    <contour>
      <point x="98" y="0" type="line"/>
      <point x="375" y="1458" type="line"/>
      <point x="541" y="1458" type="line"/>
      <point x="817" y="0" type="line"/>
      <point x="649" y="0" type="line"/>
      <point x="590" y="305" type="line"/>
      <point x="324" y="305" type="line"/>
      <point x="266" y="0" type="line"/>
    </contour>
    <contour>
      <point x="135" y="1542" type="line"/>
      <point x="156" y="1648"/>
      <point x="196" y="1707" type="qcurve" smooth="yes"/>
      <point x="237" y="1767"/>
      <point x="311" y="1767" type="qcurve" smooth="yes"/>
      <point x="324" y="1767"/>
      <point x="350" y="1759" type="qcurve" smooth="yes"/>
      <point x="380" y="1750"/>
      <point x="407" y="1738" type="qcurve" smooth="yes"/>
      <point x="473" y="1709" type="line" smooth="yes"/>
      <point x="515" y="1691"/>
      <point x="543" y="1681" type="qcurve" smooth="yes"/>
      <point x="577" y="1669" type="line" smooth="yes"/>
      <point x="595" y="1663"/>
      <point x="606" y="1663" type="qcurve" smooth="yes"/>
      <point x="656" y="1663"/>
      <point x="683" y="1697" type="qcurve" smooth="yes"/>
      <point x="712" y="1734"/>
      <point x="719" y="1780" type="qcurve"/>
      <point x="770" y="1780" type="line"/>
      <point x="748" y="1672"/>
      <point x="710" y="1615" type="qcurve" smooth="yes"/>
      <point x="669" y="1554"/>
      <point x="594" y="1554" type="qcurve" smooth="yes"/>
      <point x="577" y="1554"/>
      <point x="537" y="1571" type="qcurve" smooth="yes"/>
      <point x="454" y="1607" type="line" smooth="yes"/>
      <point x="425" y="1620"/>
      <point x="367" y="1642" type="qcurve" smooth="yes"/>
      <point x="322" y="1659"/>
      <point x="299" y="1659" type="qcurve" smooth="yes"/>
      <point x="249" y="1659"/>
      <point x="222" y="1625" type="qcurve" smooth="yes"/>
      <point x="193" y="1588"/>
      <point x="186" y="1542" type="qcurve"/>
    </contour>
    <contour>
      <point x="354" y="471" type="line"/>
      <point x="559" y="471" type="line"/>
      <point x="457" y="1008" type="line"/>
    </contour>
  </outline>
</glyph>
<glyph name="Adieresis" format="1">
  <advance width="913"/>
  <unicode hex="00C4"/>
  <outline>
    <contour>
      <point x="98" y="0" type="line"/>
      <point x="375" y="1458" type="line"/>
      <point x="541" y="1458" type="line"/>
      <point x="817" y="0" type="line"/>
      <point x="649" y="0" type="line"/>
      <point x="590" y="305" type="line"/>
      <point x="324" y="305" type="line"/>
      <point x="266" y="0" type="line"/>
    </contour>
    <contour>
      <point x="240" y="1599" type="line"/>
      <point x="240" y="1745" type="line"/>
      <point x="385" y="1745" type="line"/>
      <point x="385" y="1599" type="line"/>
    </contour>
    <contour>
      <point x="354" y="471" type="line"/>
      <point x="559" y="471" type="line"/>
      <point x="457" y="1008" type="line"/>
    </contour>
    <contour>
      <point x="530" y="1599" type="line"/>
      <point x="530" y="1745" type="line"/>
      <point x="676" y="1745" type="line"/>
      <point x="676" y="1599" type="line"/>
    </contour>
  </outline>
</glyph>
<glyph name="Aring" format="1">
  <advance width="913"/>
  <unicode hex="00C5"/>
  <outline>
    <contour>
      <point x="98" y="0" type="line"/>
      <point x="375" y="1458" type="line"/>
      <point x="541" y="1458" type="line"/>
      <point x="817" y="0" type="line"/>
      <point x="649" y="0" type="line"/>
      <point x="590" y="305" type="line"/>
      <point x="324" y="305" type="line"/>
      <point x="266" y="0" type="line"/>
    </contour>
    <contour>
      <point x="272" y="1754"/>
      <point x="287" y="1791" type="qcurve" smooth="yes"/>
      <point x="303" y="1831"/>
      <point x="327" y="1858" type="qcurve" smooth="yes"/>
      <point x="353" y="1887"/>
      <point x="419" y="1919"/>
      <point x="457" y="1919" type="qcurve" smooth="yes"/>
      <point x="494" y="1919"/>
      <point x="527" y="1903" type="qcurve" smooth="yes"/>
      <point x="562" y="1886"/>
      <point x="587" y="1858" type="qcurve" smooth="yes"/>
      <point x="611" y="1831"/>
      <point x="627" y="1791" type="qcurve" smooth="yes"/>
      <point x="641" y="1756"/>
      <point x="641" y="1664"/>
      <point x="627" y="1629" type="qcurve" smooth="yes"/>
      <point x="612" y="1590"/>
      <point x="587" y="1563" type="qcurve" smooth="yes"/>
      <point x="562" y="1534"/>
      <point x="527" y="1518" type="qcurve" smooth="yes"/>
      <point x="491" y="1501"/>
      <point x="457" y="1501" type="qcurve" smooth="yes"/>
      <point x="422" y="1501"/>
      <point x="386" y="1518" type="qcurve" smooth="yes"/>
      <point x="353" y="1534"/>
      <point x="327" y="1563" type="qcurve" smooth="yes"/>
      <point x="302" y="1590"/>
      <point x="287" y="1629" type="qcurve" smooth="yes"/>
      <point x="272" y="1666"/>
    </contour>
    <contour>
      <point x="305" y="1639"/>
      <point x="349" y="1589" type="qcurve" smooth="yes"/>
      <point x="392" y="1540"/>
      <point x="457" y="1540" type="qcurve" smooth="yes"/>
      <point x="520" y="1540"/>
      <point x="563" y="1589" type="qcurve" smooth="yes"/>
      <point x="607" y="1639"/>
      <point x="608" y="1710" type="qcurve" smooth="yes"/>
      <point x="608" y="1781"/>
      <point x="564" y="1831" type="qcurve" smooth="yes"/>
      <point x="521" y="1880"/>
      <point x="457" y="1880" type="qcurve" smooth="yes"/>
      <point x="392" y="1880"/>
      <point x="349" y="1831" type="qcurve" smooth="yes"/>
      <point x="305" y="1781"/>
    </contour>
    <contour>
      <point x="354" y="471" type="line"/>
      <point x="559" y="471" type="line"/>
      <point x="457" y="1008" type="line"/>
    </contour>
  </outline>
</glyph>
<glyph name="AE" format="1">
  <advance width="1251"/>
  <unicode hex="00C6"/>
  <outline>
    <contour>
      <point x="39" y="0" type="line"/>
      <point x="436" y="1458" type="line"/>
      <point x="1190" y="1458" type="line"/>
      <point x="1190" y="1307" type="line"/>
      <point x="774" y="1307" type="line"/>
      <point x="774" y="811" type="line"/>
      <point x="1137" y="811" type="line"/>
      <point x="1137" y="659" type="line"/>
      <point x="774" y="659" type="line"/>
      <point x="774" y="164" type="line"/>
      <point x="1190" y="164" type="line"/>
      <point x="1190" y="0" type="line"/>
      <point x="618" y="0" type="line"/>
      <point x="618" y="326" type="line"/>
      <point x="285" y="326" type="line"/>
      <point x="205" y="0" type="line"/>
    </contour>
    <contour>
      <point x="322" y="475" type="line"/>
      <point x="618" y="475" type="line"/>
      <point x="618" y="1307" type="line"/>
      <point x="522" y="1307" type="line"/>
    </contour>
  </outline>
</glyph>
<glyph name="Ccedilla" format="1">
  <advance width="667"/>
  <unicode hex="00C7"/>
  <outline>
    <contour>
      <point x="111" y="328" type="qcurve" smooth="yes"/>
      <point x="111" y="1151" type="line" smooth="yes"/>
      <point x="111" y="1220"/>
      <point x="133" y="1277" type="qcurve" smooth="yes"/>
      <point x="155" y="1333"/>
      <point x="198" y="1378" type="qcurve" smooth="yes"/>
      <point x="241" y="1422"/>
      <point x="297" y="1446" type="qcurve" smooth="yes"/>
      <point x="354" y="1470"/>
      <point x="426" y="1470" type="qcurve" smooth="yes"/>
      <point x="493" y="1470"/>
      <point x="550" y="1446" type="qcurve" smooth="yes"/>
      <point x="603" y="1424"/>
      <point x="648" y="1377" type="qcurve" smooth="yes"/>
      <point x="690" y="1334"/>
      <point x="714" y="1273" type="qcurve" smooth="yes"/>
      <point x="737" y="1216"/>
      <point x="737" y="1139" type="qcurve" smooth="yes"/>
      <point x="737" y="1081" type="line"/>
      <point x="580" y="1081" type="line"/>
      <point x="580" y="1126" type="line" smooth="yes"/>
      <point x="580" y="1159"/>
      <point x="558" y="1229"/>
      <point x="539" y="1252" type="qcurve" smooth="yes"/>
      <point x="518" y="1278"/>
      <point x="489" y="1293" type="qcurve" smooth="yes"/>
      <point x="459" y="1309"/>
      <point x="424" y="1309" type="qcurve" smooth="yes"/>
      <point x="375" y="1309"/>
      <point x="345" y="1291" type="qcurve" smooth="yes"/>
      <point x="317" y="1274"/>
      <point x="298" y="1246" type="qcurve" smooth="yes"/>
      <point x="280" y="1219"/>
      <point x="268" y="1147"/>
      <point x="268" y="1108" type="qcurve" smooth="yes"/>
      <point x="268" y="342" type="line" smooth="yes"/>
      <point x="268" y="309"/>
      <point x="276" y="274" type="qcurve" smooth="yes"/>
      <point x="283" y="242"/>
      <point x="302" y="217" type="qcurve" smooth="yes"/>
      <point x="322" y="191"/>
      <point x="349" y="177" type="qcurve" smooth="yes"/>
      <point x="379" y="162"/>
      <point x="422" y="162" type="qcurve" smooth="yes"/>
      <point x="447" y="162"/>
      <point x="501" y="180"/>
      <point x="525" y="201" type="qcurve" smooth="yes"/>
      <point x="548" y="222"/>
      <point x="563" y="255" type="qcurve" smooth="yes"/>
      <point x="578" y="290"/>
      <point x="578" y="340" type="qcurve" smooth="yes"/>
      <point x="578" y="387" type="line"/>
      <point x="737" y="387" type="line"/>
      <point x="737" y="322" type="line" smooth="yes"/>
      <point x="737" y="261"/>
      <point x="718" y="210" type="qcurve" smooth="yes"/>
      <point x="698" y="156"/>
      <point x="665" y="116" type="qcurve" smooth="yes"/>
      <point x="630" y="73"/>
      <point x="582" y="44" type="qcurve" smooth="yes"/>
      <point x="533" y="14"/>
      <point x="475" y="2" type="qcurve"/>
      <point x="346" y="-172" type="line"/>
      <point x="423" y="-164"/>
      <point x="427" y="-164" type="qcurve" smooth="yes"/>
      <point x="455" y="-162"/>
      <point x="465" y="-162" type="qcurve" smooth="yes"/>
      <point x="510" y="-162"/>
      <point x="539" y="-174" type="qcurve" smooth="yes"/>
      <point x="567" y="-186"/>
      <point x="584" y="-206" type="qcurve" smooth="yes"/>
      <point x="599" y="-224"/>
      <point x="607" y="-249" type="qcurve" smooth="yes"/>
      <point x="614" y="-271"/>
      <point x="614" y="-293" type="qcurve" smooth="yes"/>
      <point x="614" y="-338"/>
      <point x="594" y="-367" type="qcurve" smooth="yes"/>
      <point x="573" y="-398"/>
      <point x="542" y="-418" type="qcurve" smooth="yes"/>
      <point x="512" y="-438"/>
      <point x="469" y="-449" type="qcurve" smooth="yes"/>
      <point x="430" y="-459"/>
      <point x="387" y="-459" type="qcurve" smooth="yes"/>
      <point x="340" y="-459"/>
      <point x="300" y="-450" type="qcurve" smooth="yes"/>
      <point x="262" y="-442"/>
      <point x="229" y="-430" type="qcurve"/>
      <point x="246" y="-389" type="line"/>
      <point x="276" y="-400"/>
      <point x="332" y="-414"/>
      <point x="365" y="-414" type="qcurve" smooth="yes"/>
      <point x="383" y="-414"/>
      <point x="404" y="-410" type="qcurve" smooth="yes"/>
      <point x="431" y="-405"/>
      <point x="450" y="-394" type="qcurve" smooth="yes"/>
      <point x="472" y="-382"/>
      <point x="486" y="-360" type="qcurve" smooth="yes"/>
      <point x="502" y="-336"/>
      <point x="502" y="-301" type="qcurve" smooth="yes"/>
      <point x="502" y="-250"/>
      <point x="463" y="-223" type="qcurve" smooth="yes"/>
      <point x="425" y="-197"/>
      <point x="383" y="-197" type="qcurve" smooth="yes"/>
      <point x="371" y="-197"/>
      <point x="347" y="-199" type="qcurve" smooth="yes"/>
      <point x="331" y="-200"/>
      <point x="311" y="-207" type="qcurve"/>
      <point x="301" y="-195" type="line"/>
      <point x="442" y="-4" type="line"/>
      <point x="372" y="2"/>
      <point x="248" y="42"/>
      <point x="206" y="80" type="qcurve" smooth="yes"/>
      <point x="161" y="120"/>
      <point x="111" y="238"/>
    </contour>
  </outline>
</glyph>
<glyph name="Egrave" format="1">
  <advance width="718"/>
  <unicode hex="00C8"/>
  <outline>
    <contour>
      <point x="98" y="0" type="line"/>
      <point x="98" y="1458" type="line"/>
      <point x="623" y="1458" type="line"/>
      <point x="623" y="1292" type="line"/>
      <point x="264" y="1292" type="line"/>
      <point x="264" y="899" type="line"/>
      <point x="506" y="899" type="line"/>
      <point x="506" y="733" type="line"/>
      <point x="264" y="733" type="line"/>
      <point x="264" y="166" type="line"/>
      <point x="623" y="166" type="line"/>
      <point x="623" y="0" type="line"/>
    </contour>
    <contour>
      <point x="238" y="1776" type="line"/>
      <point x="340" y="1878" type="line"/>
      <point x="537" y="1681" type="line"/>
      <point x="465" y="1610" type="line"/>
    </contour>
  </outline>
</glyph>
<glyph name="Eacute" format="1">
  <advance width="606"/>
  <unicode hex="00C9"/>
  <outline>
    <contour>
      <point x="98" y="0" type="line"/>
      <point x="98" y="1458" type="line"/>
      <point x="623" y="1458" type="line"/>
      <point x="623" y="1292" type="line"/>
      <point x="264" y="1292" type="line"/>
      <point x="264" y="899" type="line"/>
      <point x="506" y="899" type="line"/>
      <point x="506" y="733" type="line"/>
      <point x="264" y="733" type="line"/>
      <point x="264" y="166" type="line"/>
      <point x="623" y="166" type="line"/>
      <point x="623" y="0" type="line"/>
    </contour>
    <contour>
      <point x="248" y="1681" type="line"/>
      <point x="444" y="1878" type="line"/>
      <point x="547" y="1776" type="line"/>
      <point x="319" y="1610" type="line"/>
    </contour>
  </outline>
</glyph>
<glyph name="Ecircumflex" format="1">
  <advance width="718"/>
  <unicode hex="00CA"/>
  <outline>
    <contour>
      <point x="98" y="0" type="line"/>
      <point x="98" y="1458" type="line"/>
      <point x="623" y="1458" type="line"/>
      <point x="623" y="1292" type="line"/>
      <point x="264" y="1292" type="line"/>
      <point x="264" y="899" type="line"/>
      <point x="506" y="899" type="line"/>
      <point x="506" y="733" type="line"/>
      <point x="264" y="733" type="line"/>
      <point x="264" y="166" type="line"/>
      <point x="623" y="166" type="line"/>
      <point x="623" y="0" type="line"/>
    </contour>
    <contour>
      <point x="125" y="1661" type="line"/>
      <point x="373" y="1909" type="line"/>
      <point x="621" y="1661" type="line"/>
      <point x="559" y="1599" type="line"/>
      <point x="373" y="1784" type="line"/>
      <point x="186" y="1599" type="line"/>
    </contour>
  </outline>
</glyph>
<glyph name="Igrave" format="1">
  <advance width="360"/>
  <unicode hex="00CC"/>
  <outline>
    <contour>
      <point x="47" y="1769" type="line"/>
      <point x="150" y="1872" type="line"/>
      <point x="346" y="1675" type="line"/>
      <point x="274" y="1604" type="line"/>
    </contour>
    <contour>
      <point x="98" y="0" type="line"/>
      <point x="98" y="1458" type="line"/>
      <point x="264" y="1458" type="line"/>
      <point x="264" y="0" type="line"/>
    </contour>
  </outline>
</glyph>
<glyph name="Iacute" format="1">
  <advance width="360"/>
  <unicode hex="00CD"/>
  <outline>
    <contour>
      <point x="51" y="1688" type="line"/>
      <point x="248" y="1884" type="line"/>
      <point x="350" y="1782" type="line"/>
      <point x="123" y="1616" type="line"/>
    </contour>
    <contour>
      <point x="98" y="0" type="line"/>
      <point x="98" y="1458" type="line"/>
      <point x="264" y="1458" type="line"/>
      <point x="264" y="0" type="line"/>
    </contour>
  </outline>
</glyph>
<glyph name="Icircumflex" format="1">
  <advance width="360"/>
  <unicode hex="00CE"/>
  <outline>
    <contour>
      <point x="-55" y="1640" type="line"/>
      <point x="193" y="1888" type="line"/>
      <point x="440" y="1640" type="line"/>
      <point x="379" y="1579" type="line"/>
      <point x="193" y="1763" type="line"/>
      <point x="6" y="1579" type="line"/>
    </contour>
    <contour>
      <point x="98" y="0" type="line"/>
      <point x="98" y="1458" type="line"/>
      <point x="264" y="1458" type="line"/>
      <point x="264" y="0" type="line"/>
    </contour>
  </outline>
</glyph>
<glyph name="Idieresis" format="1">
  <advance width="360"/>
  <unicode hex="00CF"/>
  <outline>
    <contour>
      <point x="-31" y="1606" type="line"/>
      <point x="-31" y="1751" type="line"/>
      <point x="115" y="1751" type="line"/>
      <point x="115" y="1606" type="line"/>
    </contour>
    <contour>
      <point x="98" y="0" type="line"/>
      <point x="98" y="1458" type="line"/>
      <point x="264" y="1458" type="line"/>
      <point x="264" y="0" type="line"/>
    </contour>
    <contour>
      <point x="260" y="1606" type="line"/>
      <point x="260" y="1751" type="line"/>
      <point x="406" y="1751" type="line"/>
      <point x="406" y="1606" type="line"/>
    </contour>
  </outline>
</glyph>
<glyph name="Eth" format="1">
  <advance width="380"/>
  <unicode hex="00D0"/>
  <outline>
    <contour>
      <point x="25" y="743" type="line"/>
      <point x="25" y="829" type="line"/>
      <point x="123" y="829" type="line"/>
      <point x="123" y="1458" type="line"/>
      <point x="408" y="1458" type="line" smooth="yes"/>
      <point x="573" y="1458"/>
      <point x="662" y="1363" type="qcurve" smooth="yes"/>
      <point x="750" y="1269"/>
      <point x="750" y="1094" type="qcurve" smooth="yes"/>
      <point x="750" y="387" type="line" smooth="yes"/>
      <point x="750" y="184"/>
      <point x="562" y="0"/>
      <point x="389" y="0" type="qcurve" smooth="yes"/>
      <point x="125" y="0" type="line"/>
      <point x="125" y="743" type="line"/>
    </contour>
    <contour>
      <point x="281" y="152" type="line"/>
      <point x="403" y="152" type="line" smooth="yes"/>
      <point x="509" y="152"/>
      <point x="549" y="207" type="qcurve" smooth="yes"/>
      <point x="590" y="263"/>
      <point x="590" y="367" type="qcurve" smooth="yes"/>
      <point x="592" y="1094" type="line" smooth="yes"/>
      <point x="592" y="1191"/>
      <point x="510" y="1307"/>
      <point x="403" y="1307" type="qcurve" smooth="yes"/>
      <point x="281" y="1307" type="line"/>
      <point x="281" y="829" type="line"/>
      <point x="426" y="829" type="line"/>
      <point x="426" y="743" type="line"/>
      <point x="281" y="743" type="line"/>
    </contour>
  </outline>
</glyph>
<glyph name="Ntilde" format="1">
  <advance width="727"/>
  <unicode hex="00D1"/>
  <outline>
    <contour>
      <point x="98" y="0" type="line"/>
      <point x="98" y="1458" type="line"/>
      <point x="264" y="1458" type="line"/>
      <point x="563" y="905" type="line"/>
      <point x="563" y="1458" type="line"/>
      <point x="729" y="1458" type="line"/>
      <point x="729" y="0" type="line"/>
      <point x="563" y="0" type="line"/>
      <point x="563" y="559" type="line"/>
      <point x="264" y="1112" type="line"/>
      <point x="264" y="0" type="line"/>
    </contour>
    <contour>
      <point x="137" y="1542" type="line"/>
      <point x="158" y="1648"/>
      <point x="198" y="1707" type="qcurve" smooth="yes"/>
      <point x="238" y="1767"/>
      <point x="313" y="1767" type="qcurve" smooth="yes"/>
      <point x="326" y="1767"/>
      <point x="352" y="1759" type="qcurve" smooth="yes"/>
      <point x="382" y="1750"/>
      <point x="409" y="1738" type="qcurve" smooth="yes"/>
      <point x="475" y="1709" type="line" smooth="yes"/>
      <point x="517" y="1691"/>
      <point x="545" y="1681" type="qcurve" smooth="yes"/>
      <point x="579" y="1669" type="line" smooth="yes"/>
      <point x="597" y="1663"/>
      <point x="608" y="1663" type="qcurve" smooth="yes"/>
      <point x="658" y="1663"/>
      <point x="685" y="1697" type="qcurve" smooth="yes"/>
      <point x="714" y="1734"/>
      <point x="721" y="1780" type="qcurve"/>
      <point x="772" y="1780" type="line"/>
      <point x="750" y="1672"/>
      <point x="712" y="1615" type="qcurve" smooth="yes"/>
      <point x="671" y="1554"/>
      <point x="596" y="1554" type="qcurve" smooth="yes"/>
      <point x="579" y="1554"/>
      <point x="539" y="1571" type="qcurve" smooth="yes"/>
      <point x="456" y="1607" type="line" smooth="yes"/>
      <point x="427" y="1620"/>
      <point x="369" y="1642" type="qcurve" smooth="yes"/>
      <point x="324" y="1659"/>
      <point x="301" y="1659" type="qcurve" smooth="yes"/>
      <point x="251" y="1659"/>
      <point x="224" y="1625" type="qcurve" smooth="yes"/>
      <point x="195" y="1588"/>
      <point x="188" y="1542" type="qcurve"/>
    </contour>
  </outline>
</glyph>
<glyph name="Otilde" format="1">
  <advance width="827"/>
  <unicode hex="00D5"/>
  <outline>
    <contour>
      <point x="96" y="287" type="qcurve" smooth="yes"/>
      <point x="96" y="1171" type="line" smooth="yes"/>
      <point x="96" y="1235"/>
      <point x="148" y="1355"/>
      <point x="232" y="1439"/>
      <point x="350" y="1489"/>
      <point x="478" y="1489"/>
      <point x="537" y="1464" type="qcurve" smooth="yes"/>
      <point x="594" y="1440"/>
      <point x="637" y="1397" type="qcurve" smooth="yes"/>
      <point x="681" y="1353"/>
      <point x="705" y="1295" type="qcurve" smooth="yes"/>
      <point x="729" y="1236"/>
      <point x="729" y="1171" type="qcurve" smooth="yes"/>
      <point x="729" y="287" type="line" smooth="yes"/>
      <point x="729" y="221"/>
      <point x="681" y="107"/>
      <point x="637" y="63" type="qcurve" smooth="yes"/>
      <point x="594" y="20"/>
      <point x="537" y="-4" type="qcurve" smooth="yes"/>
      <point x="478" y="-29"/>
      <point x="350" y="-29"/>
      <point x="232" y="21"/>
      <point x="190" y="63" type="qcurve" smooth="yes"/>
      <point x="149" y="104"/>
      <point x="122" y="164" type="qcurve" smooth="yes"/>
      <point x="96" y="222"/>
    </contour>
    <contour>
      <point x="119" y="1542" type="line"/>
      <point x="141" y="1650"/>
      <point x="179" y="1707" type="qcurve" smooth="yes"/>
      <point x="220" y="1767"/>
      <point x="295" y="1767" type="qcurve" smooth="yes"/>
      <point x="308" y="1767"/>
      <point x="360" y="1751"/>
      <point x="390" y="1738" type="qcurve" smooth="yes"/>
      <point x="457" y="1709" type="line" smooth="yes"/>
      <point x="503" y="1689"/>
      <point x="526" y="1681" type="qcurve" smooth="yes"/>
      <point x="560" y="1669" type="line" smooth="yes"/>
      <point x="578" y="1663"/>
      <point x="590" y="1663" type="qcurve" smooth="yes"/>
      <point x="640" y="1663"/>
      <point x="667" y="1697" type="qcurve" smooth="yes"/>
      <point x="695" y="1733"/>
      <point x="702" y="1780" type="qcurve"/>
      <point x="754" y="1780" type="line"/>
      <point x="733" y="1674"/>
      <point x="693" y="1615" type="qcurve" smooth="yes"/>
      <point x="652" y="1554"/>
      <point x="578" y="1554" type="qcurve" smooth="yes"/>
      <point x="560" y="1554"/>
      <point x="520" y="1571" type="qcurve" smooth="yes"/>
      <point x="437" y="1607" type="line" smooth="yes"/>
      <point x="408" y="1620"/>
      <point x="350" y="1642" type="qcurve" smooth="yes"/>
      <point x="305" y="1659"/>
      <point x="283" y="1659" type="qcurve" smooth="yes"/>
      <point x="233" y="1659"/>
      <point x="206" y="1625" type="qcurve" smooth="yes"/>
      <point x="177" y="1588"/>
      <point x="170" y="1542" type="qcurve"/>
    </contour>
    <contour>
      <point x="262" y="287" type="line" smooth="yes"/>
      <point x="262" y="224"/>
      <point x="306" y="180" type="qcurve" smooth="yes"/>
      <point x="349" y="137"/>
      <point x="414" y="137" type="qcurve" smooth="yes"/>
      <point x="476" y="137"/>
      <point x="519" y="180" type="qcurve" smooth="yes"/>
      <point x="563" y="224"/>
      <point x="563" y="287" type="qcurve" smooth="yes"/>
      <point x="563" y="1171" type="line" smooth="yes"/>
      <point x="563" y="1235"/>
      <point x="475" y="1323"/>
      <point x="414" y="1323" type="qcurve" smooth="yes"/>
      <point x="350" y="1323"/>
      <point x="262" y="1235"/>
      <point x="262" y="1171" type="qcurve" smooth="yes"/>
    </contour>
  </outline>
</glyph>
<glyph name="Odieresis" format="1">
  <advance width="698"/>
  <unicode hex="00D6"/>
  <outline>
    <contour>
      <point x="96" y="287" type="qcurve" smooth="yes"/>
      <point x="96" y="1171" type="line" smooth="yes"/>
      <point x="96" y="1235"/>
      <point x="148" y="1355"/>
      <point x="232" y="1439"/>
      <point x="350" y="1489"/>
      <point x="478" y="1489"/>
      <point x="537" y="1464" type="qcurve" smooth="yes"/>
      <point x="594" y="1440"/>
      <point x="637" y="1397" type="qcurve" smooth="yes"/>
      <point x="681" y="1353"/>
      <point x="705" y="1295" type="qcurve" smooth="yes"/>
      <point x="729" y="1236"/>
      <point x="729" y="1171" type="qcurve" smooth="yes"/>
      <point x="729" y="287" type="line" smooth="yes"/>
      <point x="729" y="221"/>
      <point x="681" y="107"/>
      <point x="637" y="63" type="qcurve" smooth="yes"/>
      <point x="594" y="20"/>
      <point x="537" y="-4" type="qcurve" smooth="yes"/>
      <point x="478" y="-29"/>
      <point x="350" y="-29"/>
      <point x="232" y="21"/>
      <point x="190" y="63" type="qcurve" smooth="yes"/>
      <point x="149" y="104"/>
      <point x="122" y="164" type="qcurve" smooth="yes"/>
      <point x="96" y="222"/>
    </contour>
    <contour>
      <point x="199" y="1599" type="line"/>
      <point x="199" y="1745" type="line"/>
      <point x="344" y="1745" type="line"/>
      <point x="344" y="1599" type="line"/>
    </contour>
    <contour>
      <point x="262" y="287" type="line" smooth="yes"/>
      <point x="262" y="224"/>
      <point x="306" y="180" type="qcurve" smooth="yes"/>
      <point x="349" y="137"/>
      <point x="414" y="137" type="qcurve" smooth="yes"/>
      <point x="476" y="137"/>
      <point x="519" y="180" type="qcurve" smooth="yes"/>
      <point x="563" y="224"/>
      <point x="563" y="287" type="qcurve" smooth="yes"/>
      <point x="563" y="1171" type="line" smooth="yes"/>
      <point x="563" y="1235"/>
      <point x="475" y="1323"/>
      <point x="414" y="1323" type="qcurve" smooth="yes"/>
      <point x="350" y="1323"/>
      <point x="262" y="1235"/>
      <point x="262" y="1171" type="qcurve" smooth="yes"/>
    </contour>
    <contour>
      <point x="489" y="1599" type="line"/>
      <point x="489" y="1745" type="line"/>
      <point x="635" y="1745" type="line"/>
      <point x="635" y="1599" type="line"/>
    </contour>
  </outline>
</glyph>
<glyph name="multiply" format="1">
  <advance width="1152"/>
  <unicode hex="00D7"/>
  <outline>
    <contour>
      <point x="134" y="137" type="line"/>
      <point x="497" y="518" type="line"/>
      <point x="134" y="901" type="line"/>
      <point x="214" y="985" type="line"/>
      <point x="574" y="604" type="line"/>
      <point x="937" y="985" type="line"/>
      <point x="1015" y="901" type="line"/>
      <point x="654" y="518" type="line"/>
      <point x="1017" y="137" type="line"/>
      <point x="937" y="53" type="line"/>
      <point x="574" y="434" type="line"/>
      <point x="214" y="51" type="line"/>
    </contour>
  </outline>
</glyph>
<glyph name="Oslash" format="1">
  <advance width="872"/>
  <unicode hex="00D8"/>
  <outline>
    <contour>
      <point x="53" y="-47" type="line"/>
      <point x="152" y="160" type="line"/>
      <point x="111" y="247"/>
      <point x="111" y="332" type="qcurve" smooth="yes"/>
      <point x="111" y="1126" type="line" smooth="yes"/>
      <point x="111" y="1214"/>
      <point x="139" y="1277" type="qcurve" smooth="yes"/>
      <point x="167" y="1341"/>
      <point x="214" y="1383" type="qcurve" smooth="yes"/>
      <point x="263" y="1427"/>
      <point x="318" y="1447" type="qcurve" smooth="yes"/>
      <point x="377" y="1468"/>
      <point x="436" y="1468" type="qcurve" smooth="yes"/>
      <point x="503" y="1468"/>
      <point x="566" y="1440" type="qcurve" smooth="yes"/>
      <point x="631" y="1411"/>
      <point x="700" y="1339" type="qcurve"/>
      <point x="784" y="1526" type="line"/>
      <point x="819" y="1505" type="line"/>
      <point x="721" y="1298" type="line"/>
      <point x="762" y="1211"/>
      <point x="762" y="1126" type="qcurve" smooth="yes"/>
      <point x="762" y="332" type="line" smooth="yes"/>
      <point x="762" y="247"/>
      <point x="733" y="181" type="qcurve" smooth="yes"/>
      <point x="705" y="117"/>
      <point x="658" y="75" type="qcurve" smooth="yes"/>
      <point x="609" y="31"/>
      <point x="554" y="11" type="qcurve" smooth="yes"/>
      <point x="495" y="-10"/>
      <point x="436" y="-10" type="qcurve" smooth="yes"/>
      <point x="370" y="-10"/>
      <point x="305" y="18" type="qcurve" smooth="yes"/>
      <point x="242" y="45"/>
      <point x="174" y="121" type="qcurve"/>
      <point x="88" y="-68" type="line"/>
    </contour>
    <contour>
      <point x="268" y="326" type="line"/>
      <point x="272" y="238"/>
      <point x="372" y="154"/>
      <point x="436" y="154" type="qcurve" smooth="yes"/>
      <point x="503" y="154"/>
      <point x="553" y="197" type="qcurve" smooth="yes"/>
      <point x="604" y="240"/>
      <point x="604" y="332" type="qcurve" smooth="yes"/>
      <point x="604" y="952" type="line"/>
      <point x="557" y="952" type="line"/>
    </contour>
    <contour>
      <point x="268" y="504" type="line"/>
      <point x="315" y="504" type="line"/>
      <point x="604" y="1133" type="line"/>
      <point x="598" y="1225"/>
      <point x="500" y="1305"/>
      <point x="436" y="1305" type="qcurve" smooth="yes"/>
      <point x="369" y="1305"/>
      <point x="319" y="1262" type="qcurve" smooth="yes"/>
      <point x="268" y="1218"/>
      <point x="268" y="1126" type="qcurve" smooth="yes"/>
    </contour>
  </outline>
</glyph>
<glyph name="Uacute" format="1">
  <advance width="827"/>
  <unicode hex="00DA"/>
  <outline>
    <contour>
      <point x="98" y="287" type="qcurve" smooth="yes"/>
      <point x="98" y="1458" type="line"/>
      <point x="264" y="1458" type="line"/>
      <point x="264" y="287" type="line" smooth="yes"/>
      <point x="264" y="223"/>
      <point x="350" y="137"/>
      <point x="414" y="137" type="qcurve" smooth="yes"/>
      <point x="476" y="137"/>
      <point x="519" y="180" type="qcurve" smooth="yes"/>
      <point x="563" y="224"/>
      <point x="563" y="287" type="qcurve" smooth="yes"/>
      <point x="563" y="1458" type="line"/>
      <point x="729" y="1458" type="line"/>
      <point x="729" y="287" type="line" smooth="yes"/>
      <point x="729" y="221"/>
      <point x="681" y="107"/>
      <point x="637" y="63" type="qcurve" smooth="yes"/>
      <point x="594" y="20"/>
      <point x="537" y="-4" type="qcurve" smooth="yes"/>
      <point x="478" y="-29"/>
      <point x="350" y="-29"/>
      <point x="232" y="21"/>
      <point x="148" y="105"/>
      <point x="98" y="223"/>
    </contour>
    <contour>
      <point x="270" y="1681" type="line"/>
      <point x="467" y="1878" type="line"/>
      <point x="569" y="1776" type="line"/>
      <point x="342" y="1610" type="line"/>
    </contour>
  </outline>
</glyph>
<glyph name="Ucircumflex" format="1">
  <advance width="827"/>
  <unicode hex="00DB"/>
  <outline>
    <contour>
      <point x="98" y="287" type="qcurve" smooth="yes"/>
      <point x="98" y="1458" type="line"/>
      <point x="264" y="1458" type="line"/>
      <point x="264" y="287" type="line" smooth="yes"/>
      <point x="264" y="223"/>
      <point x="350" y="137"/>
      <point x="414" y="137" type="qcurve" smooth="yes"/>
      <point x="476" y="137"/>
      <point x="519" y="180" type="qcurve" smooth="yes"/>
      <point x="563" y="224"/>
      <point x="563" y="287" type="qcurve" smooth="yes"/>
      <point x="563" y="1458" type="line"/>
      <point x="729" y="1458" type="line"/>
      <point x="729" y="287" type="line" smooth="yes"/>
      <point x="729" y="221"/>
      <point x="681" y="107"/>
      <point x="637" y="63" type="qcurve" smooth="yes"/>
      <point x="594" y="20"/>
      <point x="537" y="-4" type="qcurve" smooth="yes"/>
      <point x="478" y="-29"/>
      <point x="350" y="-29"/>
      <point x="232" y="21"/>
      <point x="148" y="105"/>
      <point x="98" y="223"/>
    </contour>
    <contour>
      <point x="193" y="1661" type="line"/>
      <point x="440" y="1909" type="line"/>
      <point x="688" y="1661" type="line"/>
      <point x="627" y="1599" type="line"/>
      <point x="440" y="1784" type="line"/>
      <point x="254" y="1599" type="line"/>
    </contour>
  </outline>
</glyph>
<glyph name="Thorn" format="1">
  <advance width="380"/>
  <unicode hex="00DE"/>
  <outline>
    <contour>
      <point x="123" y="0" type="line"/>
      <point x="123" y="1458" type="line"/>
      <point x="281" y="1458" type="line"/>
      <point x="281" y="1196" type="line"/>
      <point x="412" y="1196" type="line" smooth="yes"/>
      <point x="489" y="1196"/>
      <point x="550" y="1177" type="qcurve" smooth="yes"/>
      <point x="612" y="1158"/>
      <point x="657" y="1108" type="qcurve" smooth="yes"/>
      <point x="704" y="1057"/>
      <point x="727" y="975" type="qcurve" smooth="yes"/>
      <point x="752" y="888"/>
      <point x="752" y="762" type="qcurve" smooth="yes"/>
      <point x="752" y="664"/>
      <point x="735" y="582" type="qcurve" smooth="yes"/>
      <point x="718" y="501"/>
      <point x="680" y="445" type="qcurve" smooth="yes"/>
      <point x="641" y="388"/>
      <point x="577" y="358" type="qcurve" smooth="yes"/>
      <point x="512" y="328"/>
      <point x="414" y="328" type="qcurve" smooth="yes"/>
      <point x="283" y="328" type="line"/>
      <point x="283" y="0" type="line"/>
    </contour>
    <contour>
      <point x="281" y="477" type="line"/>
      <point x="408" y="477" type="line" smooth="yes"/>
      <point x="480" y="477"/>
      <point x="521" y="501" type="qcurve" smooth="yes"/>
      <point x="563" y="526"/>
      <point x="580" y="563" type="qcurve" smooth="yes"/>
      <point x="598" y="602"/>
      <point x="604" y="704"/>
      <point x="604" y="760" type="qcurve" smooth="yes"/>
      <point x="604" y="815"/>
      <point x="601" y="866" type="qcurve" smooth="yes"/>
      <point x="598" y="919"/>
      <point x="581" y="957" type="qcurve" smooth="yes"/>
      <point x="563" y="997"/>
      <point x="524" y="1021" type="qcurve" smooth="yes"/>
      <point x="487" y="1044"/>
      <point x="416" y="1044" type="qcurve" smooth="yes"/>
      <point x="281" y="1044" type="line"/>
    </contour>
  </outline>
</glyph>
